<?xml version="1.0" encoding="utf-8"?>
<!-- Generator: Adobe Illustrator 16.0.3, SVG Export Plug-In . SVG Version: 6.00 Build 0)  -->
<!DOCTYPE svg PUBLIC "-//W3C//DTD SVG 1.1//EN" "http://www.w3.org/Graphics/SVG/1.1/DTD/svg11.dtd">
<svg version="1.1" xmlns="http://www.w3.org/2000/svg" xmlns:xlink="http://www.w3.org/1999/xlink" x="0px" y="0px" width="792px"
	 height="612px" viewBox="0 0 792 612" enable-background="new 0 0 792 612" xml:space="preserve">
<g id="Capa_1" display="none">
	<g id="Capa_1_1_">
		<path display="inline" fill="#1C4289" d="M546.54,156.283"/>
		<path display="inline" fill="#1C4289" d="M513.617,156.284"/>
		<g display="inline">
			<path fill="#1C4289" d="M502.166,117.255c-18.067-9.279-63.598-10.049-81.249,0c-15.445,8.793-38.393,38.627-44.791,55.209
				c-5.996,15.538-15.104,49.375-11.459,65.625c4.145,18.479,32.706,46.939,39.584,64.583c6.456,16.564,2.197,53.523,6.25,70.833
				c5.707,24.381,20.381,84.006,44.79,89.584c10.634,2.43,31.481-14.254,36.459-23.959c9.652-18.818,5.313-64.322,14.584-83.334
				c4.179-8.57,19.099-22.777,28.171-25.711c5.925-1.916,24.907-0.129,24.907-0.129l28.172,25.711l14.582,83.334l36.459,23.959
				l44.791-89.584l6.25-70.834l39.584-64.583l-11.459-65.625L673,117.125h-81.25l-45.209,34.791
				C546.54,151.916,519.266,126.038,502.166,117.255z"/>
		</g>
	</g>
	<g id="Capa_3">
		<rect x="146" y="-19.334" display="inline" fill="#1C4289" width="792" height="612"/>
	</g>
	<g id="Capa_2" display="inline" opacity="0.5">
		<g display="none">
			<polyline display="inline" fill="#1C4289" points="547.745,319.808 547.745,141.963 547.745,141.203 			"/>
			<path display="inline" fill="#1C4289" d="M547.745,319.808c0,0-1.217-2.791-2.936-7.676c-0.87-2.439-1.849-5.404-2.914-8.807
				c-0.508-1.701-1.05-3.511-1.62-5.418c-0.321-0.954-0.268-1.933-0.117-2.934c0.135-1.002,0.071-2.026,0.086-3.073
				c0-16.744,0-39.07,0-61.396c0-22.324,0-44.65,0-61.395c-0.018-1.047,0.046-2.071-0.066-3.073
				c-0.057-0.501-0.14-0.996-0.109-1.484c0.019-0.489,0.153-0.973,0.303-1.449c0.574-1.908,1.119-3.717,1.631-5.418
				c1.062-3.401,2.033-6.366,2.888-8.809c0.831-2.441,1.593-4.359,2.065-5.668c0.493-1.308,0.788-2.006,0.788-2.006
				s0.295,0.698,0.788,2.006c0.475,1.309,1.235,3.228,2.066,5.668c0.854,2.442,1.826,5.407,2.889,8.809
				c0.512,1.701,1.057,3.51,1.63,5.418c0.149,0.477,0.285,0.96,0.304,1.449c0.029,0.488-0.055,0.983-0.109,1.484
				c-0.113,1.001-0.049,2.026-0.066,3.073c0,16.744,0,39.07,0,61.395c0,22.326,0,44.651,0,61.396
				c0.017,1.047-0.048,2.071,0.088,3.073c0.149,1.001,0.202,1.979-0.118,2.934c-0.57,1.907-1.111,3.717-1.619,5.418
				c-1.065,3.401-2.044,6.366-2.914,8.807C548.963,317.017,547.745,319.808,547.745,319.808z"/>
		</g>
		<g>
			<g>
				<path fill="#1C4289" d="M694.541,291.828c0.203,2.992,0.304,5.977,0.441,8.963c0.15,2.987,0.205,5.966,0.307,8.951l0.174,8.938
					l0.087,8.932l0.009,8.924l-0.075,8.918c-0.016,2.973-0.077,5.941-0.136,8.91l-0.185,8.908l-0.019,0.885l-0.684,1.594
					l-4.943,11.525l-5.053,11.471c-1.669,3.832-3.42,7.623-5.142,11.428c-1.731,3.801-3.432,7.615-5.216,11.391l-5.297,11.348
					c-1.771,3.781-3.602,7.531-5.399,11.299c-1.813,3.76-3.587,7.537-5.451,11.271l-5.538,11.229l-4.949,10.033l-9.45-6.158
					l-4.569-2.979l-4.541-3.02l-9.082-6.039c-3.036-1.998-6.029-4.063-9.038-6.105l-9.018-6.139l-3.594-2.447l-0.586-3.914
					l-0.783-5.23l-0.771-5.232c-0.506-3.49-1.046-6.975-1.521-10.469l-1.43-10.486c-0.49-3.492-0.934-6.994-1.366-10.496
					l-1.31-10.506l-1.211-10.525c-0.421-3.504-0.754-7.023-1.131-10.537c-0.379-3.512-0.729-7.029-1.049-10.553l2.73,3.857
					l-5.34-3.588l-5.309-3.645c-3.548-2.412-7.051-4.904-10.571-7.367c-3.499-2.5-6.998-4.998-10.466-7.553
					c-1.743-1.262-3.452-2.584-5.18-3.871c-1.728-1.291-3.447-2.592-5.146-3.934c2.027,0.756,4.033,1.551,6.033,2.354
					c1.998,0.809,4.017,1.58,5.998,2.416c3.985,1.635,7.938,3.328,11.891,5.021c3.934,1.729,7.883,3.428,11.786,5.207l5.871,2.643
					l5.839,2.699l1.957,0.904l0.773,2.951c0.896,3.424,1.76,6.852,2.597,10.281c0.838,3.434,1.721,6.857,2.516,10.297l2.436,10.311
					l2.336,10.326c0.781,3.441,1.554,6.885,2.279,10.338l2.216,10.348c0.738,3.449,1.414,6.91,2.124,10.363l1.052,5.184l1.04,5.188
					l-4.18-6.361l9.213,5.84c3.067,1.953,6.151,3.879,9.19,5.875l9.146,5.939l4.573,2.971l4.546,3.012l-14.399,3.875l5.659-11.168
					c1.867-3.73,3.828-7.416,5.745-11.123c1.936-3.697,3.836-7.414,5.799-11.1l5.9-11.047c1.948-3.691,3.98-7.34,5.98-11.006
					c2.013-3.66,3.994-7.334,6.059-10.971l6.145-10.924l6.254-10.871l-0.701,2.48l1.379-8.803c0.462-2.934,0.922-5.867,1.427-8.799
					l1.487-8.791l1.57-8.785l1.649-8.777l1.736-8.771c0.62-2.919,1.196-5.842,1.867-8.758
					C693.195,297.658,693.816,294.739,694.541,291.828z"/>
			</g>
			<g>
				<path fill="#1C4289" d="M547.745,141.203c0.915-0.871,1.813-1.763,2.741-2.615l2.771-2.574c1.842-1.724,3.692-3.434,5.566-5.112
					c1.86-1.697,3.742-3.364,5.624-5.032c1.875-1.677,3.769-3.329,5.664-4.975c1.896-1.647,3.783-3.309,5.698-4.929l5.727-4.888
					l5.768-4.831c1.925-1.605,3.84-3.227,5.784-4.806l1.195-0.971l2.342-0.159l10.156-0.691l10.156-0.594
					c3.385-0.208,6.771-0.386,10.156-0.535l10.154-0.483l10.156-0.384c3.387-0.114,6.771-0.275,10.156-0.353
					c6.771-0.161,13.542-0.405,20.313-0.497l4.444-0.062l3.04,3.626l5.709,6.813c1.896,2.277,3.824,4.526,5.691,6.826l11.271,13.743
					l11.133,13.854c3.73,4.604,7.337,9.306,11.013,13.954l1.654,2.094l0.36,2.335c0.425,2.744,0.888,5.48,1.277,8.23l1.213,8.242
					l1.208,8.241l1.126,8.257l1.126,8.257l1.04,8.271l1.031,8.273l0.954,8.287l0.355,3.076l-1.303,1.89
					c-3.588,5.206-7.298,10.335-10.957,15.495l-5.583,7.684c-1.854,2.566-3.768,5.095-5.646,7.646
					c-1.876,2.552-3.808,5.069-5.719,7.6c-1.902,2.536-3.865,5.035-5.801,7.55l-2.943,3.75c-0.981,1.249-1.965,2.497-2.975,3.729
					c-2.015,2.468-3.984,4.962-6.057,7.394c1.228-2.95,2.556-5.838,3.841-8.751c0.641-1.459,1.306-2.902,1.974-4.344l2.005-4.324
					c1.363-2.866,2.699-5.75,4.095-8.596c1.388-2.853,2.755-5.715,4.178-8.545c1.419-2.833,2.805-5.687,4.249-8.501l4.313-8.462
					c2.938-5.604,5.824-11.237,8.835-16.797l-0.948,4.967l-1.909-8.12l-1.833-8.133l-1.823-8.136l-1.739-8.148l-1.739-8.15
					l-1.656-8.164l-1.651-8.165c-0.565-2.719-1.058-5.451-1.587-8.176l2.016,4.429c-3.791-4.554-7.648-9.052-11.385-13.649
					l-11.262-13.75l-11.124-13.862c-1.865-2.301-3.669-4.652-5.508-6.977l-5.487-6.991l7.483,3.564
					c-6.771-0.092-13.542-0.336-20.313-0.497c-3.385-0.075-6.771-0.237-10.156-0.353l-10.156-0.384l-10.154-0.483
					c-3.387-0.148-6.771-0.328-10.156-0.535l-10.156-0.594l-10.156-0.69l3.537-1.131c-2.128,1.32-4.287,2.6-6.435,3.893
					l-6.453,3.866l-6.494,3.811c-2.157,1.279-4.345,2.517-6.521,3.771c-2.178,1.253-4.357,2.501-6.557,3.723
					c-2.191,1.23-4.383,2.464-6.596,3.666c-2.2,1.22-4.422,2.41-6.653,3.586l-3.34,1.773
					C550.006,140.067,548.867,140.624,547.745,141.203z"/>
			</g>
			<g>
				<path fill="#1C4289" d="M547.745,141.99l-2.856-2.247l-2.864-2.218c-0.959-0.732-1.918-1.46-2.892-2.17l-2.896-2.148
					c-0.97-0.707-1.927-1.425-2.913-2.106l-2.917-2.081c-1.961-1.36-3.93-2.693-5.907-3.992c-0.979-0.667-1.98-1.29-2.982-1.909
					c-1.005-0.612-1.986-1.266-3.004-1.838l-3.013-1.772l-3.052-1.634c-1.006-0.567-2.046-1.021-3.064-1.509
					c-1.021-0.486-2.029-1.003-3.061-1.379c-1.024-0.389-2.04-0.865-3.055-1.184l-3.021-0.931l-0.383-0.149l-2.051-0.586
					c-0.685-0.194-1.331-0.423-2.077-0.557l-2.164-0.468l-1.076-0.235l-1.119-0.178c-2.961-0.502-5.996-0.866-9.042-1.181
					l-4.6-0.359l-4.63-0.188c-3.089-0.085-6.178-0.17-9.266-0.074c-1.543,0.021-3.084,0.049-4.62,0.154
					c-1.534,0.107-3.076,0.108-4.598,0.25l-4.566,0.369l-4.503,0.552c-2.962,0.457-5.911,0.918-8.715,1.567
					c-1.452,0.262-2.752,0.699-4.101,1.067c-1.396,0.333-2.542,0.864-3.777,1.301l-0.91,0.338l-0.768,0.404
					c-0.514,0.266-1.027,0.522-1.551,0.761c-0.223,0.084-0.606,0.331-0.957,0.521l-1.056,0.6l-1.034,0.594l-0.792,0.52
					c-0.54,0.363-1.035,0.635-1.616,1.063l-1.708,1.207c-1.111,0.86-2.24,1.688-3.31,2.625c-2.162,1.822-4.256,3.778-6.264,5.862
					c-2.004,2.084-3.945,4.265-5.766,6.582c-1.831,2.305-3.559,4.714-5.258,7.163c-1.688,2.457-3.286,4.995-4.796,7.593
					c-1.518,2.593-2.92,5.263-4.27,7.945c-0.683,1.338-1.329,2.689-1.95,4.038l-0.899,2.015l-0.77,1.843l-0.435,1.038l-0.244,0.44
					l-0.381,0.688c-0.146,0.257-0.299,0.572-0.449,0.863c-0.307,0.581-0.604,1.196-0.898,1.818c-0.603,1.223-1.151,2.52-1.712,3.794
					c-0.543,1.294-1.114,2.575-1.604,3.902l-0.764,1.977l-0.696,2.005l-0.693,2.008l-0.617,2.035l-0.62,2.036l-0.538,2.057
					c-0.789,2.73-1.374,5.507-1.953,8.288l-0.728,4.195c-0.225,1.401-0.336,2.813-0.54,4.22c-0.084,0.704-0.204,1.409-0.262,2.115
					l-0.154,2.12c-0.079,1.414-0.267,2.835-0.264,4.251l-0.056,4.26c-0.046,1.426,0.094,2.835,0.127,4.259l0.085,2.136l0.021,0.535
					l0.01,0.269c-0.039-0.214,0.088,0.527-0.086-0.474l0.005,0.036l0.011,0.071l0.021,0.143l0.17,1.141l0.34,2.278l0.17,1.141
					l0.085,0.569c0.025,0.203,0.059,0.375,0.102,0.509c0.317,1.176,0.601,2.368,0.862,3.587c0.352,1.229,0.855,2.488,1.268,3.753
					c0.185,0.647,0.513,1.231,0.788,1.843l0.852,1.83c0.254,0.626,0.625,1.202,0.963,1.798l1.021,1.792
					c0.316,0.61,0.729,1.184,1.127,1.765l1.191,1.752c0.793,1.176,1.75,2.297,2.62,3.456c1.82,2.307,3.776,4.604,5.79,6.917
					c2.018,2.323,4.028,4.718,6.014,7.163c1.964,2.47,3.852,5.02,5.583,7.679c0.904,1.292,1.665,2.697,2.449,4.067l1.166,2.055
					l0.996,2.15c1.398,2.813,2.418,5.787,3.409,8.708c-0.909-1.268-1.819-2.516-2.683-3.774c-0.823-1.283-1.892-2.412-2.829-3.601
					l-1.447-1.748l-1.549-1.661c-1.029-1.104-2.024-2.216-3.149-3.229c-2.119-2.12-4.407-4.07-6.697-6.021
					c-1.175-0.962-2.313-1.927-3.509-2.881l-3.585-2.876c-2.401-1.944-4.826-3.945-7.229-6.088
					c-1.169-1.131-2.386-2.185-3.521-3.396l-1.707-1.82c-0.569-0.609-1.15-1.206-1.667-1.887l-1.595-1.993
					c-0.535-0.665-1.068-1.332-1.518-2.072l-1.408-2.178c-0.459-0.734-0.969-1.445-1.336-2.233c-0.782-1.56-1.62-3.066-2.343-4.708
					c-0.667-1.705-1.313-3.435-1.924-5.182c-0.086-0.23-0.146-0.429-0.188-0.604l-0.15-0.557l-0.299-1.112l-0.599-2.225l-0.3-1.113
					l-0.036-0.139l-0.02-0.069l-0.009-0.035l-0.094-0.544l-0.05-0.304l-0.097-0.609l-0.386-2.439l-0.383-2.447
					c-0.141-0.816-0.253-1.635-0.302-2.457l-0.403-4.937c-0.15-1.648-0.106-3.295-0.165-4.947l-0.049-2.48
					c-0.01-0.827,0.046-1.647,0.065-2.473c0.064-1.648,0.116-3.304,0.244-4.948l0.482-4.927c0.425-3.269,0.877-6.544,1.55-9.774
					l0.502-2.425l0.591-2.402l0.595-2.403l0.682-2.382l0.69-2.382l0.771-2.361c0.493-1.58,1.083-3.14,1.646-4.705
					c0.609-1.561,1.222-3.104,1.918-4.66c0.339-0.775,0.685-1.552,1.066-2.342c0.188-0.397,0.361-0.776,0.577-1.196
					c0.215-0.423,0.382-0.772,0.692-1.345l-0.677,1.479l0.521-1.415l0.488-1.263l1.002-2.455c0.684-1.616,1.386-3.21,2.123-4.782
					c1.473-3.147,3.094-6.212,4.803-9.233c1.712-3.021,3.535-5.987,5.484-8.892c1.936-2.913,4.048-5.726,6.27-8.473
					c2.214-2.752,4.605-5.398,7.119-7.953c1.244-1.287,2.57-2.514,3.888-3.746c1.371-1.187,2.73-2.379,4.182-3.494
					c1.41-1.148,2.921-2.204,4.412-3.27l2.309-1.524c0.743-0.505,1.667-1.019,2.496-1.52l1.278-0.751l1.092-0.582l1.074-0.566
					c0.368-0.185,0.67-0.374,1.194-0.604c0.945-0.441,1.901-0.864,2.858-1.277l1.438-0.615l1.386-0.453
					c1.84-0.571,3.716-1.233,5.495-1.577c1.796-0.4,3.612-0.865,5.365-1.099c3.547-0.636,7.032-0.977,10.506-1.223l5.179-0.249
					l5.141-0.042c1.713-0.024,3.412,0.07,5.116,0.129c1.704,0.046,3.399,0.172,5.093,0.307c3.391,0.217,6.764,0.621,10.13,1.035
					l5.037,0.787l5.024,0.976c1.672,0.336,3.347,0.777,5.014,1.162c1.664,0.379,3.339,0.961,4.998,1.436l1.245,0.378l1.253,0.452
					l2.496,0.906c0.824,0.273,1.67,0.683,2.505,1.049l2.493,1.132l-0.382-0.149l3.66,1.779c1.202,0.604,2.282,1.319,3.421,1.974
					c1.146,0.646,2.186,1.392,3.243,2.112c1.054,0.726,2.108,1.451,3.087,2.243l2.969,2.331l2.849,2.423
					c0.96,0.793,1.833,1.673,2.749,2.505c0.908,0.839,1.812,1.681,2.678,2.555c0.87,0.87,1.763,1.714,2.608,2.604l2.526,2.671
					c1.661,1.797,3.294,3.612,4.865,5.479c1.596,1.841,3.113,3.75,4.608,5.67C544.902,138.047,546.375,139.981,547.745,141.99z"/>
			</g>
			<g>
				<path fill="#1C4289" d="M408.844,292.865c0,0,0.732,1.201,2.041,3.479c0.349,0.557,0.64,1.235,0.979,1.983
					c0.342,0.755,0.715,1.579,1.116,2.47c0.44,0.898,0.717,1.884,1.114,2.936c0.344,1.057,0.803,2.177,1.094,3.39
					c1.468,4.82,2.506,10.871,3.189,17.793c0.7,6.914,0.859,14.721,1.331,22.838c0.282,4.021,0.583,8.17,1.43,11.916
					c0.242,0.9,0.486,1.811,0.732,2.729c0.326,1.088,0.655,2.186,0.986,3.291c0.679,2.188,1.366,4.408,2.064,6.658
					c2.819,8.982,5.969,18.359,9.575,27.793c1.84,4.701,3.75,9.43,5.855,14.068c2.117,4.631,4.422,9.18,6.936,13.447l0.953,1.592
					l0.993,1.535c0.649,1.045,1.357,1.988,2.043,2.967c1.417,1.867,2.856,3.693,4.347,5.178c1.479,1.502,3.002,2.814,4.42,3.598
					c0.355,0.27,0.697,0.363,1.032,0.543l0.499,0.254c0.161,0.045,0.319,0.092,0.477,0.146c0.155,0.053,0.311,0.109,0.464,0.172
					l0.058,0.023c-0.101-0.025,0.308,0.09-0.212-0.051l0.253,0.064l0.505,0.127c0.638,0.152,1.479,0.385,1.756,0.398
					c0.722,0.139,1.775,0.324,2.7,0.391c0.471,0.039,0.941,0.084,1.395,0.07l0.687,0.016l0.669-0.039
					c1.783-0.094,3.458-0.439,5.025-1.07c3.122-1.207,6.009-3.502,8.181-6.57c1.079-1.521,1.957-3.217,2.558-4.889
					c0.315-0.83,0.54-1.646,0.697-2.398c0.032-0.186,0.088-0.383,0.103-0.549l0.037-0.26l0.021-0.129
					c0.001,0.008,0.01-0.078,0.015-0.121l0.012-0.125l0.188-2.006c0.243-2.635,0.529-5.428,0.813-8.08
					c0.271-2.672,0.627-5.318,0.965-7.941c1.346-10.5,3.07-20.619,5.121-30.182c2.094-9.559,4.574-18.566,7.771-26.785
					c0.372-1.023,0.838-2.041,1.281-3.041c0.456-1.002,0.858-1.986,1.343-2.961c0.511-0.971,1.014-1.932,1.512-2.881l0.373-0.703
					l0.224-0.422l0.102-0.15l0.206-0.299l0.205-0.299l0.338-0.461l0.718-0.926c1.646-1.854,3.228-3.119,4.783-4.326
					c1.554-1.186,3.075-2.213,4.57-3.162c5.961-3.768,11.321-6.434,15.797-8.541c4.466-2.105,8.092-3.502,10.563-4.436
					c1.234-0.467,2.216-0.756,2.879-0.936c0.328-0.094,0.592-0.137,0.76-0.17c0.175-0.01,0.264-0.014,0.264-0.014
					c-0.036-0.084-1.249,0.611-3.367,2.137c-2.139,1.494-5.175,3.848-8.99,6.84c-3.779,3.023-8.394,6.719-13.164,11.223
					c-1.171,1.137-2.374,2.303-3.495,3.523c-1.104,1.209-2.194,2.529-2.871,3.688c-0.029,0.088-0.063,0.17-0.101,0.246l-0.069,0.129
					l-0.149,0.33l-0.148,0.33l-0.077,0.164c0.246-0.469,0.053-0.084,0.102-0.17l-0.025,0.08l-0.21,0.629
					c-0.282,0.836-0.568,1.684-0.857,2.539c-0.273,0.867-0.491,1.807-0.744,2.717c-0.245,0.92-0.506,1.834-0.694,2.818
					c-0.211,0.967-0.426,1.943-0.642,2.928c-0.229,0.977-0.384,2.016-0.582,3.031c-0.401,2.033-0.721,4.15-1.04,6.303
					c-0.341,2.137-0.6,4.365-0.917,6.592c-0.274,2.244-0.531,4.533-0.78,6.854c-0.978,9.295-1.72,19.18-2.325,29.428
					c-0.135,2.563-0.271,5.146-0.407,7.75c-0.139,2.621-0.263,5.145-0.368,7.857l-0.081,2.012l-0.038,0.631l-0.056,0.746
					c-0.032,0.506-0.105,0.971-0.166,1.453c-0.267,1.91-0.675,3.73-1.214,5.473c-1.105,3.477-2.661,6.711-4.631,9.729
					c-1.979,3.008-4.366,5.816-7.211,8.244c-1.403,1.229-2.952,2.33-4.56,3.342c-1.643,0.963-3.338,1.871-5.132,2.57
					c-3.56,1.467-7.377,2.301-11.132,2.545l-1.409,0.084l-1.396,0.004c-0.938,0.016-1.852-0.045-2.767-0.109
					c-1.844-0.137-3.544-0.359-5.544-0.783c-1.093-0.215-1.588-0.375-2.299-0.555l-0.504-0.131l-0.252-0.064
					c-0.603-0.166-0.275-0.082-0.458-0.137l-0.188-0.063l-1.499-0.525l-1.486-0.553l-1.371-0.662
					c-0.897-0.455-1.849-0.893-2.63-1.428c-3.391-2.02-6.047-4.438-8.421-6.891c-4.738-4.93-7.998-10.238-10.923-15.461
					c-1.452-2.623-2.75-5.246-3.974-7.877c-1.176-2.639-2.29-5.27-3.316-7.891c-2.062-5.242-3.855-10.443-5.396-15.598
					c-3.145-10.283-5.478-20.309-7.382-29.832c-0.447-2.385-0.888-4.736-1.322-7.055c-0.205-1.15-0.407-2.293-0.609-3.426
					c-0.207-1.26-0.357-2.656-0.518-3.953c-0.399-5.162-0.122-9.727,0.236-14.033c0.8-8.547,1.924-16.004,2.517-22.639
					c0.614-6.615,0.852-12.393,0.561-17.145c0-1.203-0.18-2.304-0.266-3.367c-0.119-1.051-0.127-2.09-0.312-2.978
					c-0.15-0.915-0.29-1.762-0.418-2.537c-0.129-0.781-0.231-1.505-0.427-2.136C409.164,294.235,408.844,292.865,408.844,292.865z"
					/>
			</g>
		</g>
	</g>
</g>
<g id="Capa_2_1_">
	<rect x="1" y="1" fill="#123156" width="792" height="612"/>
	<g display="none">
		<g display="inline">
			<path fill="#848484" d="M395.308,162.022c0.542-1.247,1.099-2.474,1.685-3.663c0.593-1.181,1.152-2.403,1.772-3.549
				c1.214-2.323,2.435-4.639,3.708-6.886c1.274-2.246,2.572-4.459,3.893-6.646l1.999-3.253l2.038-3.204
				c0.676-1.073,1.38-2.108,2.068-3.164c0.688-1.056,1.387-2.101,2.097-3.129c1.4-2.081,2.832-4.122,4.274-6.149
				c1.433-2.04,2.916-4.013,4.375-6.019c1.496-1.958,2.965-3.951,4.482-5.879l1.081-1.373l11.784-3.004l4.857-1.238l4.856-1.151
				c1.619-0.395,3.238-0.741,4.857-1.094c1.619-0.346,3.238-0.724,4.857-1.042l4.856-0.969c1.619-0.337,3.238-0.607,4.857-0.907
				l4.856-0.866l4.857-0.789c3.238-0.553,6.476-0.954,9.714-1.439c3.238-0.449,6.477-0.846,9.714-1.222
				c6.477-0.739,12.952-1.342,19.429-1.817l14.191-1.042l12.653,14.414c7.458,8.497,14.593,17.238,21.453,26.187
				c6.861,8.947,13.428,18.117,19.704,27.506l5.552,8.305l0.758,5.996c1.406,11.121,2.448,22.31,3.071,33.577
				c0.174,2.813,0.251,5.645,0.379,8.467c0.137,2.82,0.148,5.664,0.229,8.495c0.064,2.833,0.039,5.684,0.063,8.525l-0.049,4.278
				c-0.024,1.427-0.027,2.851-0.07,4.282l-0.442,14.476l-2.457,2.708c-2.136,2.353-4.238,4.726-6.44,7.041
				c-1.098,1.159-2.161,2.338-3.289,3.481l-3.345,3.45c-2.273,2.274-4.53,4.558-6.878,6.79c-1.16,1.125-2.327,2.244-3.525,3.347
				c-1.193,1.105-2.365,2.222-3.589,3.31c-1.222,1.089-2.408,2.198-3.658,3.271c-1.244,1.076-2.457,2.169-3.73,3.229
				c-2.518,2.135-5.065,4.253-7.702,6.32c-1.299,1.045-2.652,2.059-3.982,3.085c-1.355,1.012-2.705,2.028-4.111,3.011
				c-1.395,0.99-2.765,1.994-4.224,2.948c-1.428,0.971-2.891,1.922-4.414,2.838c0.016-1.777,0.091-3.521,0.201-5.244
				c0.08-1.741,0.249-3.431,0.393-5.135c0.133-1.711,0.321-3.39,0.504-5.072c0.209-1.667,0.395-3.348,0.634-4.997
				c0.44-3.321,0.97-6.592,1.529-9.845c0.266-1.635,0.591-3.236,0.885-4.854c0.289-1.622,0.641-3.207,0.958-4.813
				c0.314-1.607,0.682-3.184,1.027-4.773c0.34-1.592,0.711-3.167,1.09-4.736c0.729-3.157,1.549-6.261,2.353-9.375l1.271-4.634
				c0.411-1.551,0.887-3.066,1.327-4.602c0.875-3.073,1.85-6.089,2.791-9.125l-2.899,17.183c-0.557-1.319-1.072-2.646-1.61-3.968
				l-1.589-3.972c-1.003-2.659-2.055-5.308-3.018-7.974c-0.946-2.669-1.962-5.325-2.852-8.005c-0.899-2.678-1.849-5.346-2.701-8.033
				c-3.483-10.733-6.548-21.544-9.249-32.423l6.31,14.3c-7.308-8.611-14.324-17.441-21.047-26.494
				c-6.724-9.051-13.173-18.31-19.298-27.813l26.845,13.372c-6.477-0.475-12.952-1.079-19.429-1.817
				c-3.237-0.376-6.476-0.772-9.714-1.222c-3.238-0.485-6.476-0.886-9.714-1.439l-4.857-0.789l-4.856-0.866
				c-1.619-0.299-3.238-0.569-4.857-0.907l-4.856-0.969c-1.619-0.319-3.238-0.697-4.857-1.042c-1.619-0.353-3.238-0.699-4.857-1.094
				l-4.856-1.151l-4.857-1.238l12.865-4.377c-2.254,0.974-4.557,1.882-6.832,2.827c-2.313,0.896-4.601,1.824-6.939,2.687
				c-2.329,0.875-4.669,1.735-7.039,2.557c-1.176,0.423-2.364,0.83-3.562,1.225c-1.196,0.395-2.378,0.811-3.588,1.188l-3.619,1.149
				l-3.658,1.099c-2.451,0.715-4.924,1.403-7.421,2.06c-2.498,0.655-5.05,1.241-7.606,1.82c-1.267,0.305-2.592,0.533-3.885,0.804
				C397.981,161.594,396.652,161.818,395.308,162.022z"/>
		</g>
		<g display="inline">
			<path fill="#848484" d="M534.423,311.861c0.727,1.64,1.378,3.271,1.992,4.899c0.65,1.631,1.186,3.251,1.766,4.875
				c1.148,3.248,2.158,6.481,3.106,9.708c0.486,1.615,0.928,3.226,1.374,4.836c0.456,1.611,0.848,3.217,1.274,4.825
				c0.813,3.214,1.566,6.421,2.273,9.623l1.01,4.799c0.344,1.6,0.62,3.193,0.934,4.79c0.315,1.598,0.587,3.19,0.86,4.783
				c0.275,1.593,0.562,3.188,0.796,4.776l0.735,4.771l0.652,4.762c0.23,1.588,0.4,3.171,0.593,4.755
				c0.179,1.584,0.396,3.171,0.544,4.751l-2.981,9.638l-1.692,5.558l-1.783,5.507c-0.582,1.843-1.226,3.651-1.851,5.471
				c-0.634,1.814-1.239,3.645-1.914,5.437c-1.314,3.604-2.631,7.205-4.035,10.761c-1.387,3.563-2.835,7.094-4.307,10.612
				c-5.924,14.051-12.508,27.744-19.699,41.106l-17.003,31.592l-31.385-18.088c-2.863-1.649-5.708-3.329-8.532-5.044
				c-2.831-1.704-5.642-3.443-8.433-5.215c-5.588-3.534-11.107-7.186-16.556-10.96l-14.911-10.329l-1.235-12.926
				c-0.661-6.924-1.149-13.878-1.483-20.858c-0.178-3.489-0.282-6.99-0.356-10.496c-0.041-1.753-0.098-3.503-0.093-5.264
				l-0.028-5.273l0.059-5.29c0.015-1.762,0.05-3.527,0.118-5.299l0.182-5.311l0.267-5.325c0.091-1.775,0.234-3.561,0.35-5.34
				c0.107-1.778,0.27-3.566,0.424-5.353c0.147-1.785,0.307-3.572,0.505-5.366c0.188-1.793,0.358-3.582,0.591-5.382l8.578,12.665
				c-1.343-1.512-2.692-3.013-4.009-4.567c-1.33-1.533-2.646-3.088-3.945-4.671c-1.313-1.56-2.591-3.178-3.879-4.778
				c-0.647-0.796-1.271-1.628-1.908-2.439c-0.634-0.818-1.272-1.628-1.893-2.466c-1.256-1.653-2.495-3.334-3.72-5.037
				c-1.223-1.708-2.435-3.433-3.623-5.194c-0.604-0.867-1.175-1.786-1.762-2.678l-1.745-2.705c-1.136-1.849-2.272-3.695-3.334-5.664
				c2.236,0.061,4.396,0.244,6.559,0.425l3.201,0.341c1.061,0.122,2.139,0.218,3.184,0.366c2.109,0.268,4.194,0.573,6.27,0.896
				c2.073,0.326,4.131,0.676,6.173,1.052c1.028,0.177,2.038,0.383,3.054,0.579c1.012,0.203,2.036,0.386,3.038,0.604
				c2.009,0.43,4.029,0.841,6.014,1.312c1.998,0.446,3.979,0.922,5.946,1.419c1.981,0.475,3.93,1.003,5.884,1.521l2.451,0.649
				l6.127,12.016c0.824,1.617,1.587,3.244,2.368,4.868c0.79,1.623,1.542,3.252,2.281,4.884c0.747,1.63,1.501,3.259,2.201,4.897
				c0.707,1.637,1.443,3.27,2.127,4.91l2.043,4.925l1.959,4.939c0.66,1.646,1.288,3.296,1.895,4.951l1.836,4.96l1.749,4.977
				c0.597,1.656,1.133,3.322,1.684,4.986c1.11,3.327,2.19,6.659,3.198,10.004c2.035,6.686,3.916,13.398,5.624,20.142l-16.146-23.255
				c5.964,2.892,11.855,5.905,17.679,9.036c2.914,1.562,5.81,3.155,8.685,4.783c2.882,1.618,5.742,3.271,8.585,4.954l-48.388,13.504
				c7.301-13.303,15.209-26.275,23.778-38.89c2.151-3.147,4.326-6.283,6.563-9.387c2.219-3.111,4.525-6.176,6.834-9.238
				c1.137-1.541,2.344-3.044,3.521-4.563c1.187-1.515,2.354-3.039,3.584-4.529l3.651-4.492l3.742-4.442l-2.981,9.638
				c0.464-1.518,1-3.027,1.496-4.542c0.51-1.513,0.997-3.027,1.545-4.536l1.604-4.53l1.688-4.522
				c0.552-1.509,1.155-3.012,1.747-4.516c0.591-1.505,1.18-3.01,1.813-4.51c0.63-1.5,1.225-3.004,1.885-4.501l1.962-4.494
				c1.342-2.992,2.729-5.98,4.178-8.962c0.744-1.488,1.453-2.98,2.227-4.467c0.763-1.486,1.522-2.974,2.325-4.456
				c1.583-2.968,3.229-5.93,5.012-8.877c0.896-1.473,1.749-2.95,2.717-4.416C532.41,314.785,533.379,313.319,534.423,311.861z"/>
		</g>
		<g display="inline">
			<path fill="#0062FF" d="M395.308,161.99c0,0-0.332-0.201-0.976-0.589c-0.642-0.417-1.577-0.865-2.794-1.484
				c-1.229-0.593-2.747-1.253-4.521-1.965c-1.792-0.693-3.847-1.425-6.136-2.192c-4.582-1.526-10.159-3.157-16.449-4.794
				c-3.145-0.813-6.472-1.622-9.894-2.383c-3.409-0.728-6.994-1.46-10.255-1.803c-0.812-0.081-1.582-0.114-2.278-0.134l-0.067-0.002
				c0.405,0.174,0.055,0.04,0.119,0.076l-0.2-0.028l-0.401-0.056l-0.805-0.113l-0.404-0.057l-0.275,0.004l-0.545,0.008l-0.552,0.005
				l-0.648-0.017c-0.43-0.015-0.861-0.031-1.294-0.046c-0.867-0.031-1.748-0.042-2.634-0.045c-1.783,0.021-3.573,0.012-5.392,0.088
				c-1.824,0.101-3.646,0.179-5.479,0.334c-7.334,0.618-14.675,1.938-21.394,4.071c-3.37,1.036-6.575,2.303-9.625,3.703
				c-1.516,0.721-3.004,1.458-4.444,2.26c-0.367,0.186-0.713,0.414-1.072,0.611l-0.535,0.303l-0.268,0.149
				c-0.137,0.065,0.999-0.451,0.464-0.203l-0.11,0.061l-0.219,0.123l-1.748,0.977c-0.117,0.127-0.236,0.242-0.36,0.347
				c-4.118,2.978-7.892,6.627-12.001,12.169c-2.057,2.756-4.166,5.969-6.349,9.624c-1.106,1.82-2.21,3.76-3.367,5.797
				c-0.586,1.049-1.171,2.097-1.756,3.143l-0.9,1.634l-0.457,0.827c-0.107,0.227,0.731-1.614,0.349-0.781l-0.058,0.112l-0.115,0.225
				l-0.23,0.449l-0.919,1.794l-0.191,0.372c-0.033,0.062-0.073,0.122-0.117,0.181l-0.139,0.175
				c-0.053,0.079-0.091,0.054-0.178,0.279l-0.471,1.032c-0.347,0.649-0.637,1.456-0.96,2.209c-0.334,0.735-0.611,1.603-0.926,2.409
				c-1.207,3.325-2.264,6.99-3.162,10.725c-0.472,1.867-0.839,3.769-1.261,5.668c-0.334,1.909-0.679,3.818-0.969,5.732
				c-0.562,3.822-1.042,7.652-1.272,11.404c-0.206,1.9-0.193,3.733-0.318,5.604l-0.011,0.175c-0.058-0.205,0.122,0.582-0.13-0.438
				l0.003,0.109l0.013,0.436l0.026,0.869c0.005,0.269,0.025,0.624,0.017,0.82l-0.072,0.363l-0.08,0.372
				c-0.025,0.132-0.071,0.22-0.052,0.46c0.009,0.411,0.017,0.823,0.01,1.241c0.001,0.842,0.063,1.75,0.107,2.638
				c0.082,0.931,0.163,1.854,0.243,2.769c0.163,1.882,0.402,3.779,0.655,5.689c1.008,7.653,2.229,15.16,3.227,21.917
				c1.013,6.772,1.844,12.853,2.444,17.948c0.308,2.544,0.545,4.852,0.728,6.88c0.099,1.013,0.189,1.95,0.273,2.808
				c0.066,0.872,0.125,1.664,0.179,2.374c0.221,2.84,0.266,4.417,0.266,4.417s-1.394-0.74-3.81-2.284
				c-1.219-0.766-2.696-1.729-4.37-2.912c-1.7-1.166-3.614-2.539-5.689-4.132c-4.16-3.183-9.024-7.203-14.274-12.165
				c-5.249-4.982-10.886-10.833-16.559-18.126c-1.423-1.823-2.815-3.772-4.247-5.838c-1.412-2.073-2.793-4.308-4.194-6.779
				c-0.351-0.629-0.689-1.27-1.027-1.915c-0.162-0.286-0.357-0.735-0.541-1.139l-0.553-1.239l-0.546-1.254
				c-0.157-0.346-0.266-0.541-0.401-0.819l-0.389-0.778l-0.195-0.39l-0.049-0.098c-0.268-1.088-0.102-0.372-0.174-0.646
				l-0.097-0.243c-1.012-2.599-2.06-5.271-2.933-8.016c-1.828-5.491-3.27-11.265-4.321-17.275
				c-1.083-6.009-1.73-12.252-1.888-18.714c-0.152-6.465,0.162-13.136,1.173-20.105c0.506-3.49,1.189-7.042,2.137-10.74l0.745-2.776
				c0.102-0.415,0.32-1.057,0.496-1.606l0.563-1.702l0.587-1.699l0.54-1.499l0.694-1.893c0.668-1.612,1.337-3.228,2.008-4.846
				c0.568-1.353,1.166-2.736,1.802-4.134c1.253-2.804,2.644-5.683,4.16-8.624c3.058-5.866,6.709-11.953,11.183-17.943
				c4.465-5.983,9.798-11.853,15.958-17.106c3.074-2.628,6.37-5.077,9.801-7.314c0.847-0.573,1.731-1.097,2.605-1.629
				c0.872-0.537,1.756-1.051,2.652-1.544c0.893-0.499,1.78-1.004,2.694-1.455l1.363-0.689l1.453-0.712l3.222-1.488l1.889-0.727
				l0.235-0.09l0.117-0.045c-0.459,0.212,0.752-0.338,0.692-0.305l0.654-0.243l1.308-0.481c0.872-0.317,1.739-0.643,2.621-0.917
				c3.502-1.182,7.04-2.127,10.56-2.938c7.057-1.547,14.076-2.379,20.87-2.519c13.613-0.28,26.231,1.942,37.384,5.648
				c5.586,1.85,10.825,4.084,15.724,6.615c1.224,0.639,2.429,1.286,3.615,1.955c0.591,0.328,1.184,0.667,1.763,1.019
				c0.607,0.366,1.211,0.729,1.813,1.092l0.944,0.574l0.466,0.286l0.33,0.24l0.657,0.478l0.328,0.238l0.164,0.119
				c0.125,0.06-0.165-0.051,0.301,0.15l0.113,0.075c1.225,0.797,2.341,1.611,3.376,2.412c4.128,3.181,7.373,6.326,10.356,9.44
				c2.952,3.115,5.555,6.173,7.855,9.177c4.61,5.984,8.078,11.648,10.515,16.597c1.222,2.469,2.168,4.769,2.877,6.813
				c0.36,1.014,0.672,1.965,0.92,2.843c0.229,0.902,0.435,1.695,0.58,2.432c0.311,1.432,0.438,2.637,0.474,3.353
				C395.295,161.602,395.308,161.99,395.308,161.99z"/>
		</g>
		<g display="inline">
			<path fill="#0062FF" d="M256.194,311.828c0,0,0.788,1.324,2.071,3.802c0.671,1.227,1.474,2.704,2.365,4.443
				c0.937,1.749,1.961,3.74,3.091,5.969c2.248,4.45,4.862,9.818,7.7,15.927c2.837,6.102,5.872,12.963,9.019,20.284
				c1.546,3.581,3.156,7.312,4.823,11.173c0.411,0.921,0.825,1.85,1.243,2.786c0.408,0.919,0.812,1.872,1.24,2.725l0.635,1.316
				c0.218,0.459,0.411,0.825,0.643,1.396c0.229,0.549,0.447,1.029,0.663,1.498c0.221,0.487,0.443,0.978,0.666,1.469
				c3.587,7.936,7.3,16.167,11.188,24.11c1.931,3.969,3.913,7.86,5.905,11.497c1.985,3.634,4.021,7.022,5.922,9.728
				c0.944,1.321,1.853,2.514,2.609,3.335c0.743,0.849,1.376,1.354,1.511,1.364c0.157,0.051-0.24-0.55-1.771-1.437
				c-0.77-0.433-1.839-0.915-3.174-1.316c-1.324-0.404-2.898-0.664-4.438-0.718l-0.29-0.003c0.083,0.002-1.491-0.003-0.754-0.002
				l0.125-0.002l0.499-0.007l0.998-0.013c-0.13-0.015-0.285-0.023-0.426-0.015c-0.127,0.004-0.351,0.038-0.289,0.023
				c0.005,0-0.039,0.021-0.157,0.045c-0.201,0.09-0.656,0.227-1.048,0.523c-0.415,0.265-0.772,0.63-0.961,0.931
				c-0.097,0.143-0.147,0.281-0.162,0.395c-0.026,0.093,0.002,0.179,0.056,0.23c0.086,0.083,0.312,0.053,0.52-0.057
				c0.124-0.046,0.226-0.111,0.335-0.161l0.042-0.019l0.011-0.005c0.087-0.344-0.108,0.475-0.072,0.338l0.076-0.23l0.306-0.921
				l0.152-0.46l0.077-0.229l0.046-0.124l0.179-0.454l0.188-0.469l0.229-0.692c0.154-0.461,0.311-0.916,0.462-1.424
				c0.313-1.023,0.624-2.043,0.935-3.059c0.641-2.236,1.276-4.457,1.907-6.659c2.603-9.23,5.409-19.064,8.996-28.641
				c0.916-2.392,1.843-4.792,2.843-7.171c1.032-2.379,2.062-4.745,3.211-7.104c2.278-4.688,4.888-9.384,8.025-13.949
				c1.649-2.312,3.314-4.586,5.355-6.819l0.183-0.206l0.091-0.103c-0.208,0.351,0.388-0.596,0.351-0.517l0.281-0.244
				c0.055-0.052,0.077-0.056,0.157-0.146l0.396-0.492c0.267-0.325,0.539-0.646,0.814-0.958c0.852-0.889,1.68-1.648,2.483-2.298
				c1.605-1.313,3.124-2.237,4.527-2.985c2.809-1.473,5.209-2.284,7.439-2.882c2.218-0.597,4.222-0.977,6.12-1.242
				c1.888-0.279,3.649-0.46,5.323-0.578c1.665-0.137,3.243-0.213,4.738-0.265c2.984-0.119,5.655-0.137,8.041-0.186
				c2.383-0.05,4.491-0.099,6.321-0.213c1.81-0.142,3.371-0.315,4.628-0.57c1.248-0.264,2.24-0.56,2.89-0.833
				c0.658-0.266,1.002-0.45,1.002-0.45s-0.009,0.095-0.026,0.282c-0.017,0.19-0.046,0.477-0.124,0.846
				c-0.153,0.732-0.436,1.876-1.086,3.235c-0.625,1.383-1.567,3.018-2.844,4.762c-1.256,1.773-2.825,3.68-4.639,5.649
				c-1.81,1.973-3.855,4.045-6.018,6.165c-1.053,1.04-2.149,2.123-3.287,3.246c-1.097,1.108-2.198,2.219-3.237,3.339
				c-1.027,1.136-2.018,2.258-2.8,3.357c-0.766,1.103-1.386,2.168-1.438,2.947c-0.023,0.38,0.111,0.681,0.439,0.727
				c0.159,0.026,0.389-0.01,0.663-0.152c0.139-0.121,0.272-0.248,0.401-0.382l0.189-0.203c0.015,0.007-0.025,0.104-0.036,0.152
				l-0.104,0.356c-0.071,0.129,0.498-0.765,0.26-0.362l0.003,0.053l0.007,0.105c0.085,1.052,0.087,2.322,0.143,3.671
				c0.152,5.619,0.561,13.155,1.037,21.559c0.448,8.454,0.93,17.783,0.765,28.319c-0.051,2.656-0.15,5.395-0.337,8.264
				c-0.103,1.458-0.203,2.919-0.365,4.459c-0.067,0.748-0.16,1.547-0.252,2.343l-0.14,1.192l-0.213,1.414l-0.385,2.497l-0.14,0.961
				l-0.035,0.24l-0.183,0.801l-0.208,0.916c-0.571,2.441-1.255,4.849-2.09,7.216c-1.672,4.731-3.873,9.356-6.702,13.794
				c-2.822,4.441-6.303,8.682-10.401,12.528c-2.069,1.907-4.277,3.711-6.618,5.377c-2.352,1.654-4.83,3.161-7.402,4.49
				c-5.135,2.66-10.646,4.576-16.059,5.721c-2.718,0.579-5.404,0.955-8.047,1.195c-0.6,0.066-1.489,0.118-2.28,0.161
				c-0.805,0.045-1.624,0.072-2.418,0.093l-0.998,0.004l-0.499,0.002l-1.128-0.005l-0.789-0.025
				c-4.2-0.134-8.423-0.809-12.309-1.933c-3.9-1.114-7.438-2.633-10.554-4.312c-6.22-3.401-10.836-7.326-14.419-11.027
				c-3.628-3.728-6.338-7.35-8.646-10.803c-2.311-3.474-4.138-6.784-5.768-10.024c-3.196-6.455-5.473-12.549-7.318-18.444
				c-1.841-5.893-3.206-11.589-4.295-17.132c-2.137-11.089-3.177-21.58-3.538-31.508c-0.021-0.627-0.042-1.251-0.064-1.872
				c-0.024-0.642-0.044-1.268-0.047-1.822c-0.007-0.532-0.036-1.267-0.03-1.907c-0.004-0.658-0.008-1.314-0.011-1.968
				c-0.02-1.324,0.022-2.546,0.048-3.781c0.017-1.232,0.079-2.459,0.155-3.633c0.136-2.379,0.276-4.677,0.516-6.918
				c0.207-2.254,0.446-4.416,0.724-6.559c1.093-8.516,2.596-16.215,4.234-23.031c1.635-6.812,3.437-12.728,5.137-17.576
				c0.833-2.42,1.689-4.584,2.456-6.448c0.742-1.876,1.476-3.476,2.062-4.742C255.433,313.166,256.194,311.828,256.194,311.828z"/>
		</g>
	</g>
	<g>
		<g>
			<path fill="#004ECC" d="M395.308,162.022c0.599-1.172,1.211-2.328,1.848-3.451c0.643-1.116,1.258-2.268,1.924-3.354l1.972-3.289
				c0.661-1.091,1.354-2.143,2.028-3.217c1.348-2.15,2.729-4.257,4.131-6.336c1.405-2.076,2.827-4.129,4.269-6.157
				c0.714-1.023,1.452-2.014,2.178-3.023c0.725-1.009,1.457-2.007,2.2-2.993c1.471-1.991,2.967-3.948,4.473-5.893
				c1.497-1.955,3.038-3.854,4.558-5.781c1.552-1.885,3.08-3.801,4.65-5.662l1.391-1.646l9.637-2.106l4.857-1.061l4.856-0.987
				c1.619-0.338,3.238-0.635,4.857-0.938c1.619-0.296,3.238-0.62,4.857-0.893l4.856-0.832c1.619-0.289,3.238-0.521,4.857-0.777
				c3.238-0.522,6.476-0.976,9.714-1.418c3.238-0.474,6.476-0.818,9.714-1.233c1.619-0.199,3.238-0.354,4.857-0.532l4.856-0.513
				l4.857-0.44c1.619-0.139,3.238-0.312,4.857-0.419c3.237-0.227,6.476-0.512,9.714-0.692l12.692-0.706l10.312,12.165l5.477,6.461
				c1.807,2.168,3.595,4.35,5.372,6.54c3.546,4.387,7.03,8.82,10.456,13.297c6.852,8.955,13.451,18.101,19.801,27.434l4.734,6.959
				l0.674,5.299l1.06,8.339c0.188,1.388,0.318,2.787,0.479,4.179l0.461,4.183c0.32,2.786,0.541,5.591,0.816,8.385
				c0.284,2.793,0.455,5.607,0.687,8.409c0.239,2.801,0.368,5.623,0.554,8.434c0.191,2.811,0.273,5.641,0.416,8.46
				c0.129,2.822,0.18,5.658,0.274,8.486c0.052,2.836,0.094,5.674,0.117,8.516l0.094,11.707l-2.579,3.021
				c-2.051,2.402-4.072,4.82-6.18,7.189c-1.051,1.187-2.072,2.39-3.148,3.562l-3.196,3.534c-2.169,2.334-4.323,4.677-6.556,6.975
				c-1.104,1.156-2.215,2.308-3.352,3.446c-1.132,1.14-2.246,2.29-3.405,3.414c-1.157,1.126-2.284,2.269-3.465,3.381
				c-1.177,1.114-2.327,2.244-3.528,3.345c-2.378,2.215-4.781,4.415-7.261,6.572c-1.219,1.091-2.508,2.141-3.763,3.211
				c-1.261,1.066-2.515,2.137-3.834,3.169c-2.593,2.093-5.243,4.152-8.063,6.114c0.257-3.426,0.684-6.755,1.168-10.051
				c0.22-1.661,0.504-3.286,0.781-4.913c0.284-1.625,0.533-3.269,0.854-4.872c0.598-3.232,1.271-6.42,1.971-9.593
				c0.337-1.594,0.726-3.158,1.088-4.738c0.357-1.582,0.769-3.134,1.15-4.702c0.38-1.57,0.804-3.114,1.21-4.668
				c0.402-1.557,0.83-3.099,1.265-4.637c0.845-3.09,1.768-6.136,2.676-9.19l1.42-4.549c0.462-1.522,0.979-3.014,1.467-4.521
				c0.97-3.019,2.025-5.989,3.052-8.976l-2.485,14.728c-1.004-2.659-1.987-5.321-2.963-7.984c-0.933-2.672-1.907-5.335-2.806-8.014
				c-0.885-2.681-1.828-5.351-2.664-8.04c-0.841-2.689-1.739-5.367-2.526-8.066c-0.795-2.698-1.651-5.384-2.394-8.091
				c-0.751-2.706-1.557-5.401-2.264-8.115l-1.079-4.067c-0.353-1.357-0.735-2.708-1.061-4.071l-2.021-8.16l5.408,12.257
				c-7.233-8.667-14.218-17.521-20.95-26.566c-3.365-4.523-6.674-9.09-9.919-13.703c-1.619-2.31-3.227-4.627-4.815-6.96
				l-4.711-7.039l23.003,11.459c-3.238-0.18-6.477-0.465-9.714-0.692c-1.619-0.107-3.238-0.281-4.857-0.419l-4.857-0.44
				l-4.856-0.513c-1.619-0.179-3.238-0.333-4.857-0.532c-3.238-0.416-6.476-0.76-9.714-1.233c-3.238-0.443-6.476-0.896-9.714-1.418
				c-1.619-0.256-3.238-0.488-4.857-0.777l-4.856-0.832c-1.619-0.273-3.238-0.597-4.857-0.893c-1.619-0.302-3.238-0.599-4.857-0.938
				l-4.856-0.987l-4.857-1.061l11.027-3.751c-2.201,1.042-4.444,2.028-6.664,3.044c-2.252,0.976-4.482,1.978-6.756,2.925
				c-2.266,0.957-4.541,1.902-6.842,2.813c-1.143,0.466-2.296,0.918-3.457,1.36c-1.16,0.442-2.308,0.902-3.479,1.33
				c-2.33,0.874-4.68,1.722-7.046,2.549c-2.369,0.823-4.759,1.618-7.183,2.369c-1.211,0.377-2.405,0.776-3.63,1.136l-3.685,1.063
				c-1.22,0.365-2.491,0.665-3.733,1C397.868,161.448,396.595,161.744,395.308,162.022z"/>
		</g>
		<g>
			<path fill="#004ECC" d="M534.423,311.861c0.601,1.627,1.136,3.246,1.64,4.863c0.534,1.619,0.971,3.229,1.445,4.843
				c0.487,1.614,0.881,3.22,1.306,4.828c0.419,1.608,0.852,3.218,1.221,4.82c0.395,1.605,0.751,3.207,1.109,4.809
				c0.368,1.603,0.682,3.199,1.025,4.8c0.651,3.196,1.251,6.388,1.813,9.575l0.798,4.777c0.271,1.593,0.485,3.18,0.731,4.77
				c0.248,1.59,0.458,3.177,0.67,4.764c0.213,1.587,0.436,3.174,0.614,4.758l0.562,4.752l0.491,4.745
				c0.176,1.583,0.298,3.161,0.44,4.74c0.131,1.578,0.295,3.16,0.398,4.735l0.035,0.545l-2.591,7.717l-1.839,5.478l-1.917,5.435
				c-0.628,1.817-1.309,3.605-1.975,5.403c-0.672,1.793-1.32,3.6-2.028,5.374l-2.085,5.343l-2.161,5.303
				c-1.419,3.547-2.972,7.021-4.458,10.53l-2.33,5.21c-0.778,1.736-1.549,3.477-2.367,5.19l-2.42,5.161
				c-0.797,1.726-1.646,3.423-2.468,5.136c-3.333,6.823-6.809,13.57-10.404,20.252l-14.586,27.102l-26.89-15.526
				c-2.861-1.652-5.707-3.33-8.536-5.038c-2.833-1.699-5.649-3.428-8.45-5.184c-2.805-1.749-5.591-3.529-8.362-5.335
				c-2.776-1.798-5.513-3.663-8.271-5.491l-12.495-8.284l-1.342-11.646c-0.199-1.726-0.34-3.461-0.512-5.19l-0.486-5.195
				c-0.254-3.476-0.584-6.938-0.776-10.423c-0.225-3.48-0.433-6.964-0.569-10.46c-0.184-3.487-0.249-6.995-0.357-10.496
				l-0.076-5.266c-0.03-1.754-0.042-3.512-0.026-5.274c-0.01-3.518,0.054-7.048,0.131-10.581l0.172-5.309
				c0.051-1.769,0.146-3.545,0.237-5.32c0.084-1.773,0.178-3.55,0.306-5.332c0.119-1.78,0.223-3.558,0.379-5.345l7.353,10.855
				c-1.387-1.44-2.778-2.872-4.143-4.35c-1.375-1.459-2.739-2.937-4.088-4.438c-1.361-1.481-2.691-3.014-4.031-4.53l-1.989-2.309
				l-1.976-2.331c-1.312-1.563-2.609-3.148-3.895-4.753c-0.647-0.796-1.271-1.629-1.908-2.441l-1.9-2.451
				c-0.642-0.806-1.244-1.672-1.867-2.508l-1.849-2.535c-1.209-1.729-2.419-3.457-3.564-5.29c2.152,0.197,4.239,0.499,6.328,0.8
				l3.097,0.509c1.026,0.18,2.072,0.327,3.08,0.537l3.045,0.593c1.012,0.202,2.037,0.385,3.038,0.604
				c2.013,0.425,4.013,0.869,5.998,1.337l2.971,0.714l2.957,0.736c1.958,0.513,3.925,1.01,5.861,1.559
				c1.948,0.527,3.882,1.08,5.804,1.651c1.934,0.552,3.839,1.149,5.75,1.739l2.754,0.849l4.599,10.007
				c0.749,1.63,1.444,3.269,2.156,4.905c0.72,1.635,1.406,3.275,2.083,4.918c0.683,1.642,1.371,3.281,2.014,4.93l1.949,4.941
				c1.261,3.301,2.509,6.604,3.685,9.919c0.607,1.654,1.188,3.313,1.751,4.976l1.7,4.984c1.076,3.333,2.195,6.658,3.196,10.004
				c1.048,3.337,2.024,6.688,2.984,10.04c0.992,3.348,1.848,6.719,2.777,10.077l1.292,5.055c0.419,1.688,0.871,3.368,1.265,5.06
				l-13.837-19.929c2.947,1.504,5.916,2.971,8.847,4.506c2.934,1.527,5.854,3.079,8.754,4.663c2.905,1.577,5.795,3.181,8.667,4.814
				c2.877,1.625,5.736,3.279,8.581,4.96l-41.476,11.575c3.65-6.651,7.422-13.237,11.334-19.746c0.991-1.62,1.953-3.257,2.968-4.864
				l3.015-4.838c0.993-1.619,2.034-3.212,3.067-4.81l3.104-4.789c2.137-3.156,4.207-6.349,6.411-9.469l3.274-4.697l3.349-4.656
				c1.104-1.559,2.268-3.085,3.406-4.625c1.146-1.536,2.277-3.081,3.46-4.597l3.519-4.564l3.596-4.522l-2.556,8.261
				c0.421-1.521,0.902-3.037,1.351-4.556c0.459-1.519,0.899-3.038,1.393-4.553l1.442-4.547l1.515-4.54
				c0.495-1.514,1.035-3.023,1.565-4.534s1.057-3.021,1.622-4.528c0.563-1.508,1.096-3.019,1.684-4.522l1.75-4.516
				c1.195-3.008,2.431-6.011,3.717-9.01c0.661-1.497,1.291-2.997,1.977-4.492c0.677-1.495,1.351-2.991,2.062-4.483
				c0.688-1.494,1.437-2.982,2.173-4.473c0.742-1.488,1.453-2.98,2.259-4.463c0.791-1.484,1.545-2.972,2.396-4.449
				C532.653,314.809,533.505,313.332,534.423,311.861z"/>
		</g>
		<g>
			<path d="M395.308,161.99c0,0-0.31-0.214-0.909-0.629c-0.599-0.438-1.476-0.94-2.628-1.617c-1.163-0.655-2.604-1.396-4.305-2.202
				c-0.843-0.405-1.785-0.8-2.766-1.224c-0.971-0.434-2.019-0.87-3.125-1.313c-4.453-1.744-9.862-3.682-16.038-5.623
				c-3.084-0.97-6.36-1.939-9.749-2.869c-3.378-0.898-6.939-1.802-10.262-2.349c-0.828-0.132-1.623-0.221-2.357-0.297l-0.07-0.008
				c0.343,0.148,0.039,0.031,0.089,0.06l-0.197-0.035l-0.396-0.069l-0.794-0.139l-0.399-0.07l-0.289-0.017l-0.574-0.034
				c-0.413-0.029-0.827-0.059-1.243-0.089c-0.441-0.038-0.883-0.077-1.328-0.116c-0.889-0.076-1.793-0.133-2.704-0.182
				c-1.831-0.073-3.674-0.164-5.55-0.172c-1.88,0.013-3.766,0.015-5.668,0.092c-7.608,0.305-15.324,1.385-22.537,3.367
				c-3.612,0.984-7.098,2.192-10.428,3.627c-1.663,0.714-3.302,1.459-4.882,2.305c-0.403,0.195-0.785,0.433-1.183,0.634
				l-0.591,0.312l-0.296,0.154c-0.124,0.058,0.844-0.382,0.38-0.167l-0.11,0.06l-0.221,0.12l-1.761,0.951
				c-0.184,0.155-0.371,0.3-0.561,0.437c-4.883,3.285-9.303,7.478-13.748,13.485c-2.23,2.987-4.449,6.406-6.694,10.218
				c-1.135,1.9-2.26,3.907-3.424,5.999c-0.587,1.073-1.173,2.144-1.759,3.213l-0.896,1.661l-0.455,0.838
				c-0.095,0.2,0.622-1.373,0.291-0.653l-0.057,0.112L255,189.989l-0.228,0.45c-0.428,0.848-0.854,1.694-1.28,2.539l-0.166,0.286
				c-0.061,0.113-0.11,0.136-0.196,0.375l-0.483,1.159c-0.686,1.54-1.33,3.265-1.91,5.055c-1.208,3.584-2.182,7.467-3.028,11.395
				c-0.421,1.966-0.738,3.958-1.113,5.945c-0.285,1.995-0.581,3.987-0.808,5.979c-0.447,3.978-0.79,7.947-0.873,11.823
				c-0.128,1.96-0.042,3.854-0.086,5.776l-0.003,0.18c-0.048-0.17,0.106,0.509-0.109-0.36l0.006,0.108l0.026,0.433l0.052,0.863
				l0.045,0.82l-0.028,0.427l-0.035,0.434c-0.01,0.151-0.039,0.265-0.01,0.509c0.033,0.428,0.064,0.856,0.083,1.29
				c0.051,0.871,0.158,1.795,0.249,2.703c0.126,0.942,0.251,1.876,0.375,2.802c0.254,1.895,0.576,3.795,0.912,5.7
				c1.342,7.627,2.878,15.016,4.18,21.646c1.31,6.646,2.449,12.568,3.275,17.543c0.427,2.48,0.816,4.702,1.097,6.676
				c0.318,1.951,0.55,3.642,0.732,5.02c0.377,2.747,0.519,4.265,0.519,4.265s-1.298-0.801-3.557-2.437
				c-1.139-0.813-2.521-1.833-4.09-3.074c-1.603-1.221-3.363-2.68-5.321-4.336c-3.934-3.303-8.49-7.482-13.443-12.57
				c-4.945-5.109-10.267-11.079-15.607-18.397c-2.659-3.7-5.335-7.665-7.909-12.508c-0.317-0.62-0.635-1.242-0.955-1.867
				c-0.152-0.283-0.329-0.706-0.498-1.09l-0.507-1.177l-0.502-1.19l-0.374-0.819l-0.363-0.785l-0.182-0.394l-0.046-0.099
				c-0.231-0.938-0.089-0.328-0.153-0.568l-0.089-0.238c-0.931-2.546-1.905-5.159-2.7-7.843c-1.681-5.366-2.985-11.002-3.921-16.855
				c-0.959-5.853-1.528-11.926-1.579-18.191c-0.1-6.272,0.297-12.724,1.306-19.435c0.533-3.354,1.193-6.769,2.113-10.304
				l0.733-2.649c0.102-0.401,0.309-0.995,0.477-1.51l0.537-1.591l1.064-3.01l0.703-1.889l0.176-0.473l0.088-0.237l0.044-0.118
				c-0.296,0.643,0.452-1.008,0.394-0.883l0.411-0.983l0.847-1.983c0.571-1.333,1.167-2.692,1.799-4.063
				c1.246-2.75,2.616-5.561,4.103-8.422c2.995-5.708,6.537-11.589,10.837-17.349c4.293-5.753,9.386-11.369,15.246-16.388
				c2.924-2.511,6.055-4.849,9.313-6.988c0.804-0.548,1.643-1.049,2.473-1.558c0.827-0.514,1.667-1.006,2.518-1.478
				c0.848-0.477,1.689-0.962,2.56-1.391l1.296-0.658c0.434-0.218,0.842-0.428,1.374-0.676l3.02-1.399l1.875-0.751l0.233-0.093
				l0.116-0.046c-0.388,0.179,0.656-0.295,0.609-0.27l0.626-0.238l1.25-0.472c0.833-0.313,1.665-0.629,2.511-0.894
				c3.361-1.137,6.749-2.075,10.122-2.894c6.777-1.511,13.516-2.403,20.067-2.595c13.118-0.431,25.361,1.552,36.241,4.944
				c5.449,1.697,10.575,3.761,15.377,6.113c1.2,0.594,2.381,1.195,3.544,1.818c0.581,0.305,1.161,0.622,1.729,0.949
				c0.592,0.34,1.182,0.678,1.769,1.015l0.915,0.532l0.453,0.265l0.335,0.227l0.668,0.452l0.333,0.226l0.166,0.112
				c0.111,0.054-0.132-0.04,0.271,0.134l0.11,0.07c1.188,0.741,2.279,1.499,3.297,2.249c4.066,2.979,7.335,5.951,10.349,8.895
				c2.985,2.947,5.64,5.844,8.001,8.692c4.724,5.68,8.361,11.036,10.926,15.768c0.643,1.182,1.231,2.304,1.76,3.377
				c0.519,1.082,0.966,2.118,1.362,3.092c0.814,1.921,1.35,3.644,1.715,5.039c0.375,1.374,0.56,2.525,0.64,3.219
				C395.272,161.615,395.308,161.99,395.308,161.99z"/>
		</g>
		<g>
			<path d="M256.194,311.861c0,0,0.677,1.325,1.782,3.806c0.582,1.229,1.274,2.716,2.048,4.464c0.398,0.875,0.826,1.816,1.283,2.82
				c0.438,0.999,0.903,2.062,1.394,3.185c2.003,4.477,4.275,9.885,6.801,16.043c2.518,6.153,5.229,13.073,8.073,20.48
				c1.407,3.634,2.873,7.42,4.39,11.337c0.378,0.941,0.759,1.891,1.143,2.847c0.377,0.941,0.75,1.915,1.148,2.801
				c0.196,0.452,0.393,0.907,0.59,1.362c0.202,0.473,0.383,0.865,0.599,1.433c0.426,1.096,0.812,1.968,1.241,3.019
				c3.354,8.079,6.885,16.469,10.636,24.642c0.92,2.046,1.891,4.063,2.857,6.055c0.948,1.996,1.929,3.951,2.937,5.843
				c1.95,3.807,4.04,7.372,6.011,10.356c1.005,1.452,1.983,2.793,2.848,3.806c0.855,1.034,1.636,1.763,2.021,2.039
				c0.401,0.312,0.363,0.033-0.614-0.547c-0.492-0.281-1.232-0.621-2.194-0.914c-0.952-0.296-2.112-0.488-3.242-0.528l-0.213-0.001
				c0.078,0.001-1.266-0.003-0.628-0.002l0.125-0.002l0.499-0.006l0.998-0.013c-0.064-0.015-0.149-0.024-0.222-0.02
				c-0.062,0-0.206,0.028-0.106,0.01c0.194-0.017,0.344-0.024,0.429-0.044c0.2,0.003,0.171-0.008,0.173,0.077
				c-0.017,0.058-0.01,0.153,0.109,0.16c0.122,0.008,0.34-0.089,0.645-0.314c0.277-0.243,0.661-0.591,0.979-1.031
				c0.17-0.215,0.309-0.449,0.446-0.671l0.052-0.084l0.014-0.021c0.077-0.301-0.09,0.396-0.058,0.272l0.075-0.231l0.298-0.922
				l0.271-0.831l0.186-0.523l0.194-0.535l0.22-0.729c0.147-0.485,0.296-0.966,0.439-1.492c0.3-1.056,0.6-2.108,0.897-3.157
				c0.602-2.275,1.199-4.534,1.792-6.774c2.415-9.325,4.996-19.122,8.292-28.618c3.328-9.513,7.196-18.837,12.999-27.748
				c1.528-2.242,3.074-4.445,4.963-6.595l0.169-0.198l0.084-0.099c-0.176,0.296,0.337-0.519,0.307-0.455l0.269-0.251
				c0.051-0.052,0.075-0.063,0.148-0.147l0.354-0.442l0.728-0.862c0.772-0.815,1.524-1.519,2.259-2.122
				c1.467-1.224,2.868-2.104,4.172-2.824c2.612-1.424,4.886-2.254,7.011-2.887c2.115-0.633,4.047-1.065,5.882-1.394
				c1.827-0.339,3.542-0.586,5.174-0.775c1.625-0.205,3.169-0.353,4.634-0.478c2.926-0.262,5.549-0.432,7.905-0.597
				c1.174-0.088,2.274-0.187,3.3-0.3c1.031-0.103,2.003-0.192,2.893-0.317c1.771-0.257,3.289-0.534,4.501-0.87
				c1.205-0.342,2.146-0.698,2.76-1.005c0.622-0.299,0.942-0.498,0.942-0.498s-0.015,0.091-0.043,0.271
				c-0.027,0.183-0.073,0.456-0.168,0.809c-0.189,0.699-0.521,1.783-1.215,3.063c-0.67,1.303-1.656,2.833-2.971,4.463
				c-0.654,0.818-1.372,1.69-2.17,2.564c-0.804,0.864-1.673,1.758-2.597,2.681c-1.84,1.857-3.934,3.775-6.155,5.754
				c-2.211,1.99-4.569,4.053-6.776,6.176c-1.089,1.072-2.152,2.142-3.037,3.206c-0.871,1.066-1.618,2.113-1.867,2.941
				c-0.122,0.406-0.105,0.752,0.084,0.889c0.09,0.07,0.245,0.092,0.438,0.022c0.109-0.09,0.213-0.186,0.314-0.286l0.147-0.153
				c0.008,0.013-0.031,0.104-0.044,0.151l-0.116,0.35c-0.063,0.113,0.423-0.648,0.217-0.301l-0.003,0.057l-0.007,0.113
				c-0.066,1.136-0.183,2.479-0.25,3.896c-0.306,5.872-0.226,13.546-0.042,22.035c0.157,8.533,0.414,17.899,0.06,28.341
				c-0.069,2.633-0.26,5.327-0.452,8.148c-0.112,1.429-0.22,2.862-0.402,4.359l-0.275,2.275l-0.149,1.156l-0.208,1.348l-0.381,2.411
				l-0.147,0.958l-0.037,0.24l-0.167,0.719l-0.199,0.853c-0.542,2.269-1.189,4.506-1.979,6.705c-1.563,4.4-3.605,8.707-6.243,12.819
				c-2.628,4.117-5.858,8.039-9.651,11.589c-1.914,1.76-3.955,3.423-6.117,4.959c-2.172,1.523-4.458,2.913-6.833,4.137
				c-4.74,2.449-9.825,4.219-14.837,5.275c-2.516,0.535-5.006,0.883-7.461,1.106c-0.561,0.063-1.371,0.108-2.097,0.148l-2.215,0.087
				l-0.998,0.005l-0.499,0.002l-1.003-0.004l-0.711-0.024c-3.79-0.12-7.599-0.728-11.112-1.743
				c-3.527-1.006-6.735-2.382-9.574-3.909c-5.666-3.095-9.924-6.697-13.263-10.137c-3.378-3.463-5.94-6.862-8.136-10.13
				c-2.203-3.281-3.96-6.443-5.529-9.554c-3.126-6.175-5.35-12.092-7.229-17.814c-0.907-2.873-1.723-5.697-2.468-8.478
				c-0.726-2.787-1.349-5.543-1.938-8.254c-2.275-10.859-3.497-21.192-4.091-30.977c-0.063-1.184-0.159-2.531-0.198-3.643
				c-0.022-0.535-0.063-1.244-0.074-1.871c-0.019-0.643-0.037-1.282-0.056-1.921c-0.049-1.29-0.038-2.493-0.043-3.706
				c-0.013-1.21,0.013-2.413,0.055-3.571c0.103-4.687,0.431-9.083,0.807-13.313c0.79-8.43,1.969-16.069,3.287-22.835
				c1.324-6.762,2.783-12.637,4.238-17.46c0.362-1.202,0.705-2.341,1.028-3.411c0.36-1.068,0.699-2.069,1.013-3.001
				c0.625-1.867,1.25-3.457,1.746-4.722C255.543,313.198,256.194,311.861,256.194,311.861z"/>
		</g>
	</g>
	<path fill="#7BAEFF" d="M395.276,339.808c-6.393,9.699-33.573,14.408-39.569,24.357c-10.739,17.82-11.585,56.811-16.629,76.996
		c-3.081,12.328-13.358,25.25-31.821,25c-22.76-0.309-36.846-48.334-43.478-79.996c-3.83-18.283-7.616-55.656-7.616-74.338
		c0,0-27.48-44.332-32.418-66c-6-26.33-2.515-52.827,4.666-68c8.713-18.411,20-40,43.898-50.662c28.959-12.92,59.783-7.482,77.711,0
		c13.175,5.499,38.398,22.303,45.256,34.824l45.257-34.824h77.713l40.751,54l12.32,66l-36.926,64.662l-7.616,74.338l-43.478,79.996
		l-34.234-19.996l-14.216-82l-39.569-24.357"/>
</g>
</svg>
