<svg width="399" height="414" viewBox="0 0 399 414" fill="none" xmlns="http://www.w3.org/2000/svg">
<path d="M200.924 68.3764C201.523 67.2044 202.135 66.0483 202.772 64.9253C203.415 63.8093 204.03 62.6573 204.696 61.5713L206.668 58.2823C207.329 57.1913 208.022 56.1393 208.696 55.0653C210.044 52.9153 211.425 50.8083 212.827 48.7293C214.232 46.6533 215.654 44.6003 217.096 42.5723C217.81 41.5493 218.548 40.5584 219.274 39.5494C219.999 38.5404 220.731 37.5423 221.474 36.5563C222.945 34.5653 224.441 32.6083 225.947 30.6633C227.444 28.7083 228.985 26.8093 230.505 24.8823C232.057 22.9973 233.585 21.0813 235.155 19.2203L236.546 17.5743L246.183 15.4683L251.04 14.4073L255.896 13.4203C257.515 13.0823 259.134 12.7853 260.753 12.4823C262.372 12.1863 263.991 11.8623 265.61 11.5893L270.466 10.7573C272.085 10.4683 273.704 10.2363 275.323 9.98035C278.561 9.45835 281.799 9.00435 285.037 8.56235C288.275 8.08835 291.513 7.74435 294.751 7.32935C296.37 7.13035 297.989 6.97535 299.608 6.79735L304.464 6.28435L309.321 5.84435C310.94 5.70535 312.559 5.53235 314.178 5.42535C317.415 5.19835 320.654 4.91335 323.892 4.73335L336.584 4.02734L346.896 16.1923L352.373 22.6534C354.18 24.8214 355.968 27.0033 357.745 29.1933C361.291 33.5803 364.775 38.0133 368.201 42.4903C375.053 51.4453 381.652 60.5914 388.002 69.9244L392.736 76.8834L393.41 82.1824L394.47 90.5214C394.658 91.9094 394.788 93.3083 394.949 94.7003L395.41 98.8834C395.73 101.669 395.951 104.474 396.226 107.268C396.51 110.061 396.681 112.875 396.913 115.677C397.152 118.478 397.281 121.3 397.467 124.111C397.658 126.922 397.74 129.752 397.883 132.571C398.012 135.393 398.063 138.229 398.157 141.057C398.209 143.893 398.251 146.731 398.274 149.573L398.368 161.28L395.789 164.301C393.738 166.703 391.717 169.121 389.609 171.49C388.558 172.677 387.537 173.88 386.461 175.052L383.265 178.586C381.096 180.92 378.942 183.263 376.709 185.561C375.605 186.717 374.494 187.869 373.357 189.007C372.225 190.147 371.111 191.297 369.952 192.421C368.795 193.547 367.668 194.69 366.487 195.802C365.31 196.916 364.16 198.046 362.959 199.147C360.581 201.362 358.178 203.562 355.698 205.719C354.479 206.81 353.19 207.86 351.935 208.93C350.674 209.996 349.42 211.067 348.101 212.099C345.508 214.192 342.858 216.251 340.038 218.213C340.295 214.787 340.722 211.458 341.206 208.162C341.426 206.501 341.71 204.876 341.987 203.249C342.271 201.624 342.52 199.98 342.841 198.377C343.439 195.145 344.112 191.957 344.812 188.784C345.149 187.19 345.538 185.626 345.9 184.046C346.257 182.464 346.669 180.912 347.05 179.344C347.43 177.774 347.854 176.23 348.26 174.676C348.662 173.119 349.09 171.577 349.525 170.039C350.37 166.949 351.293 163.903 352.201 160.849L353.621 156.3C354.083 154.778 354.6 153.286 355.088 151.779C356.058 148.76 357.113 145.79 358.14 142.803L355.655 157.531C354.651 154.872 353.668 152.21 352.692 149.547C351.759 146.875 350.785 144.212 349.886 141.533C349.001 138.852 348.058 136.182 347.222 133.493C346.381 130.804 345.483 128.126 344.696 125.427C343.901 122.729 343.045 120.043 342.302 117.336C341.551 114.63 340.745 111.935 340.038 109.221L338.959 105.154C338.606 103.797 338.224 102.446 337.898 101.083L335.877 92.9233L341.285 105.18C334.052 96.5134 327.067 87.6593 320.335 78.6143C316.97 74.0913 313.661 69.5244 310.416 64.9114C308.797 62.6014 307.189 60.2843 305.601 57.9513L300.89 50.9123L323.893 62.3713C320.655 62.1913 317.416 61.9063 314.179 61.6793C312.56 61.5723 310.941 61.3984 309.322 61.2604L304.465 60.8204L299.609 60.3074C297.99 60.1284 296.371 59.9744 294.752 59.7754C291.514 59.3594 288.276 59.0154 285.038 58.5424C281.8 58.0994 278.562 57.6464 275.324 57.1244C273.705 56.8684 272.086 56.6363 270.467 56.3473L265.611 55.5153C263.992 55.2423 262.373 54.9184 260.754 54.6224C259.135 54.3204 257.516 54.0233 255.897 53.6843L251.041 52.6973L246.184 51.6363L257.211 47.8854C255.01 48.9274 252.767 49.9133 250.547 50.9293C248.295 51.9053 246.065 52.9073 243.791 53.8543C241.525 54.8113 239.25 55.7564 236.949 56.6674C235.806 57.1334 234.653 57.5854 233.492 58.0274C232.332 58.4694 231.184 58.9294 230.013 59.3574C227.683 60.2314 225.333 61.0793 222.967 61.9063C220.598 62.7293 218.208 63.5244 215.784 64.2754C214.573 64.6524 213.379 65.0514 212.154 65.4114L208.469 66.4743C207.249 66.8393 205.978 67.1393 204.736 67.4743C203.484 67.8023 202.211 68.0984 200.924 68.3764Z" fill="#004ECC"/>
<path d="M340.039 218.215C340.64 219.842 341.175 221.461 341.679 223.078C342.213 224.697 342.65 226.307 343.124 227.921C343.611 229.535 344.005 231.141 344.43 232.749C344.849 234.357 345.282 235.967 345.651 237.569C346.046 239.174 346.402 240.776 346.76 242.378C347.128 243.981 347.442 245.577 347.785 247.178C348.436 250.374 349.036 253.566 349.598 256.753L350.396 261.53C350.667 263.123 350.881 264.71 351.127 266.3C351.375 267.89 351.585 269.477 351.797 271.064C352.01 272.651 352.233 274.238 352.411 275.822L352.973 280.574L353.464 285.319C353.64 286.902 353.762 288.48 353.904 290.059C354.035 291.637 354.199 293.219 354.302 294.794L354.337 295.339L351.746 303.056L349.907 308.534L347.99 313.969C347.362 315.786 346.681 317.574 346.015 319.372C345.343 321.165 344.695 322.972 343.987 324.746L341.902 330.089L339.741 335.392C338.322 338.939 336.769 342.413 335.283 345.922L332.953 351.132C332.175 352.868 331.404 354.609 330.586 356.322L328.166 361.483C327.369 363.209 326.52 364.906 325.698 366.619C322.365 373.442 318.889 380.189 315.294 386.871L300.708 413.973L273.818 398.447C270.957 396.795 268.111 395.117 265.282 393.409C262.449 391.71 259.633 389.981 256.832 388.225C254.027 386.476 251.241 384.696 248.47 382.89C245.694 381.092 242.957 379.227 240.199 377.399L227.704 369.115L226.362 357.469C226.163 355.743 226.022 354.008 225.85 352.279L225.364 347.084C225.11 343.608 224.78 340.146 224.588 336.661C224.363 333.181 224.155 329.697 224.019 326.201C223.835 322.714 223.77 319.206 223.662 315.705L223.586 310.439C223.556 308.685 223.544 306.927 223.56 305.165C223.55 301.647 223.614 298.117 223.691 294.584L223.863 289.275C223.914 287.506 224.009 285.73 224.1 283.955C224.184 282.182 224.278 280.405 224.406 278.623C224.525 276.843 224.629 275.065 224.785 273.278L232.138 284.133C230.751 282.693 229.36 281.261 227.995 279.783C226.62 278.324 225.256 276.846 223.907 275.345C222.546 273.864 221.216 272.331 219.876 270.815L217.887 268.506L215.911 266.175C214.599 264.612 213.302 263.027 212.016 261.422C211.369 260.626 210.745 259.793 210.108 258.981L208.208 256.53C207.566 255.724 206.964 254.858 206.341 254.022L204.492 251.487C203.283 249.758 202.073 248.03 200.928 246.197C203.08 246.394 205.167 246.696 207.256 246.997L210.353 247.506C211.379 247.686 212.425 247.833 213.433 248.043L216.478 248.636C217.49 248.838 218.515 249.021 219.516 249.24C221.529 249.665 223.529 250.109 225.514 250.577L228.485 251.291L231.442 252.027C233.4 252.54 235.367 253.037 237.303 253.586C239.251 254.113 241.185 254.666 243.107 255.237C245.041 255.789 246.946 256.386 248.857 256.976L251.611 257.825L256.21 267.832C256.959 269.462 257.654 271.101 258.366 272.737C259.086 274.372 259.772 276.012 260.449 277.655C261.132 279.297 261.82 280.936 262.463 282.585L264.412 287.526C265.673 290.827 266.921 294.13 268.097 297.445C268.704 299.099 269.285 300.758 269.848 302.421L271.548 307.405C272.624 310.738 273.743 314.063 274.744 317.409C275.792 320.746 276.768 324.097 277.728 327.449C278.72 330.797 279.576 334.168 280.505 337.526L281.797 342.581C282.216 344.269 282.668 345.949 283.062 347.641L269.225 327.712C272.172 329.216 275.141 330.683 278.072 332.218C281.006 333.745 283.926 335.297 286.826 336.881C289.731 338.458 292.621 340.062 295.493 341.695C298.37 343.32 301.229 344.974 304.074 346.655L262.598 358.23C266.248 351.579 270.02 344.993 273.932 338.484C274.923 336.864 275.885 335.227 276.9 333.62L279.915 328.782C280.908 327.163 281.949 325.57 282.982 323.972L286.086 319.183C288.223 316.027 290.293 312.834 292.497 309.714L295.771 305.017L299.12 300.361C300.224 298.802 301.388 297.276 302.526 295.736C303.672 294.2 304.803 292.655 305.986 291.139L309.505 286.575L313.101 282.053L310.545 290.314C310.966 288.793 311.447 287.277 311.896 285.758C312.355 284.239 312.795 282.72 313.289 281.205L314.731 276.658L316.246 272.118C316.741 270.604 317.281 269.095 317.811 267.584C318.341 266.073 318.868 264.563 319.433 263.056C319.996 261.548 320.529 260.037 321.117 258.534L322.867 254.018C324.062 251.01 325.298 248.007 326.584 245.008C327.245 243.511 327.875 242.011 328.561 240.516C329.238 239.021 329.912 237.525 330.623 236.033C331.311 234.539 332.06 233.051 332.796 231.56C333.538 230.072 334.249 228.58 335.055 227.097C335.846 225.613 336.6 224.125 337.451 222.648C338.269 221.163 339.121 219.686 340.039 218.215Z" fill="#004ECC"/>
<path d="M200.924 68.3445C200.924 68.3445 200.614 68.1304 200.015 67.7154C199.416 67.2774 198.539 66.7754 197.387 66.0984C196.224 65.4434 194.783 64.7025 193.082 63.8965C192.239 63.4915 191.297 63.0964 190.316 62.6724C189.345 62.2384 188.297 61.8025 187.191 61.3595C182.738 59.6155 177.329 57.6775 171.153 55.7365C168.069 54.7665 164.793 53.7974 161.404 52.8674C158.026 51.9694 154.465 51.0654 151.142 50.5184C150.314 50.3864 149.519 50.2975 148.785 50.2215L148.715 50.2134C149.058 50.3614 148.754 50.2445 148.804 50.2735L148.607 50.2384L148.211 50.1694L147.417 50.0304L147.018 49.9604L146.729 49.9435L146.155 49.9094C145.742 49.8804 145.328 49.8504 144.912 49.8204C144.471 49.7824 144.029 49.7435 143.584 49.7045C142.695 49.6285 141.791 49.5714 140.88 49.5224C139.049 49.4494 137.206 49.3584 135.33 49.3504C133.45 49.3634 131.564 49.3654 129.662 49.4424C122.054 49.7474 114.338 50.8274 107.125 52.8094C103.513 53.7934 100.027 55.0014 96.697 56.4364C95.034 57.1504 93.395 57.8954 91.815 58.7414C91.412 58.9364 91.03 59.1744 90.632 59.3754L90.041 59.6874L89.745 59.8414C89.621 59.8994 90.589 59.4595 90.125 59.6745L90.015 59.7345L89.794 59.8544L88.033 60.8055C87.849 60.9605 87.662 61.1054 87.472 61.2424C82.589 64.5274 78.169 68.7204 73.724 74.7274C71.494 77.7144 69.275 81.1334 67.03 84.9454C65.895 86.8454 64.77 88.8524 63.606 90.9444C63.019 92.0174 62.433 93.0884 61.847 94.1574L60.951 95.8185L60.496 96.6564C60.401 96.8564 61.118 95.2834 60.787 96.0034L60.73 96.1154L60.616 96.3434L60.388 96.7934C59.96 97.6414 59.534 98.4874 59.108 99.3324L58.942 99.6185C58.881 99.7315 58.832 99.7545 58.746 99.9935L58.263 101.152C57.577 102.692 56.933 104.417 56.353 106.207C55.145 109.791 54.171 113.674 53.325 117.602C52.904 119.568 52.587 121.56 52.212 123.547C51.927 125.542 51.631 127.534 51.404 129.526C50.957 133.504 50.614 137.473 50.531 141.349C50.403 143.309 50.489 145.203 50.445 147.125L50.442 147.305C50.394 147.135 50.548 147.814 50.333 146.945L50.339 147.053L50.365 147.486L50.417 148.349L50.462 149.169L50.434 149.596L50.399 150.03C50.389 150.181 50.36 150.295 50.389 150.539C50.422 150.967 50.453 151.395 50.472 151.829C50.523 152.7 50.63 153.624 50.721 154.532C50.847 155.474 50.972 156.408 51.096 157.334C51.35 159.229 51.672 161.129 52.008 163.034C53.35 170.661 54.886 178.05 56.188 184.68C57.498 191.326 58.637 197.248 59.463 202.223C59.89 204.703 60.279 206.925 60.56 208.899C60.878 210.85 61.11 212.541 61.292 213.919C61.669 216.666 61.811 218.184 61.811 218.184C61.811 218.184 60.513 217.383 58.254 215.747C57.115 214.934 55.733 213.914 54.164 212.673C52.561 211.452 50.801 209.993 48.843 208.337C44.909 205.034 40.353 200.855 35.4 195.767C30.455 190.658 25.133 184.688 19.793 177.37C17.134 173.67 14.458 169.705 11.884 164.862C11.567 164.242 11.249 163.62 10.929 162.995C10.777 162.712 10.6 162.289 10.431 161.905L9.92397 160.728L9.42197 159.538L9.04798 158.719L8.68497 157.934L8.50297 157.54L8.45698 157.441C8.22598 156.503 8.36798 157.113 8.30398 156.873L8.21497 156.635C7.28397 154.089 6.30998 151.476 5.51498 148.792C3.83398 143.426 2.52997 137.79 1.59397 131.937C0.63497 126.084 0.0659755 120.011 0.0149755 113.746C-0.0850245 107.474 0.311975 101.022 1.32098 94.3114C1.85398 90.9574 2.51397 87.5424 3.43397 84.0074L4.16697 81.3584C4.26897 80.9574 4.47597 80.3634 4.64397 79.8484L5.18098 78.2574L6.24497 75.2475L6.94797 73.3584L7.12397 72.8855L7.21197 72.6485L7.25597 72.5304C6.95997 73.1734 7.70797 71.5224 7.64997 71.6474L8.06098 70.6644L8.90798 68.6814C9.47898 67.3484 10.075 65.9895 10.707 64.6185C11.953 61.8685 13.323 59.0574 14.81 56.1964C17.805 50.4884 21.347 44.6074 25.647 38.8474C29.94 33.0944 35.033 27.4784 40.893 22.4594C43.817 19.9484 46.948 17.6104 50.206 15.4714C51.01 14.9234 51.849 14.4224 52.679 13.9134C53.506 13.3994 54.346 12.9074 55.197 12.4354C56.045 11.9584 56.886 11.4734 57.757 11.0444L59.053 10.3864C59.487 10.1684 59.895 9.95845 60.427 9.71045L63.447 8.31145L65.322 7.56045L65.555 7.46745L65.671 7.42145C65.283 7.60045 66.327 7.12644 66.28 7.15144L66.906 6.91344L68.156 6.44144C68.989 6.12844 69.821 5.81245 70.667 5.54745C74.028 4.41045 77.416 3.47245 80.789 2.65345C87.566 1.14245 94.305 0.250449 100.856 0.0584493C113.974 -0.372551 126.217 1.61045 137.097 5.00245C142.546 6.69945 147.672 8.76345 152.474 11.1154C153.674 11.7094 154.855 12.3104 156.018 12.9334C156.599 13.2384 157.179 13.5554 157.747 13.8824C158.339 14.2224 158.929 14.5604 159.516 14.8974L160.431 15.4294L160.884 15.6944L161.219 15.9214L161.887 16.3734L162.22 16.5994L162.386 16.7114C162.497 16.7654 162.254 16.6714 162.657 16.8454L162.767 16.9154C163.955 17.6564 165.046 18.4144 166.064 19.1644C170.13 22.1434 173.399 25.1154 176.413 28.0594C179.398 31.0064 182.053 33.9034 184.414 36.7514C189.138 42.4314 192.775 47.7874 195.34 52.5194C195.983 53.7014 196.571 54.8235 197.1 55.8965C197.619 56.9785 198.066 58.0144 198.462 58.9884C199.276 60.9094 199.812 62.6325 200.177 64.0275C200.552 65.4015 200.737 66.5524 200.817 67.2464C200.888 67.9694 200.924 68.3445 200.924 68.3445Z" fill="black"/>
<path d="M61.8099 218.215C61.8099 218.215 62.4869 219.54 63.5919 222.021C64.1739 223.25 64.8659 224.737 65.6399 226.485C66.0379 227.36 66.4659 228.301 66.9229 229.305C67.3609 230.304 67.8259 231.367 68.3169 232.49C70.3199 236.967 72.5919 242.375 75.1179 248.533C77.6359 254.686 80.3469 261.606 83.1909 269.013C84.5979 272.647 86.0639 276.433 87.5809 280.35C87.9589 281.291 88.3399 282.241 88.7239 283.197C89.1009 284.138 89.4739 285.112 89.8719 285.998C90.0679 286.45 90.2649 286.905 90.4619 287.36C90.6639 287.833 90.8449 288.225 91.0609 288.793C91.4869 289.889 91.8729 290.761 92.3019 291.812C95.6559 299.891 99.1869 308.281 102.938 316.454C103.858 318.5 104.829 320.517 105.795 322.509C106.743 324.505 107.724 326.46 108.732 328.352C110.682 332.159 112.772 335.724 114.743 338.708C115.748 340.16 116.726 341.501 117.591 342.514C118.446 343.548 119.227 344.277 119.612 344.553C120.013 344.865 119.975 344.586 118.998 344.006C118.506 343.725 117.766 343.385 116.804 343.092C115.852 342.796 114.692 342.604 113.562 342.564L113.349 342.563C113.427 342.564 112.083 342.56 112.721 342.561L112.846 342.559L113.345 342.553L114.343 342.54C114.279 342.525 114.194 342.516 114.121 342.52C114.059 342.52 113.915 342.548 114.015 342.53C114.209 342.513 114.359 342.506 114.444 342.486C114.644 342.489 114.615 342.478 114.617 342.563C114.6 342.621 114.607 342.716 114.726 342.723C114.848 342.731 115.066 342.634 115.371 342.409C115.648 342.166 116.032 341.818 116.35 341.378C116.52 341.163 116.659 340.929 116.796 340.707L116.848 340.623L116.862 340.602C116.939 340.301 116.772 340.998 116.804 340.874L116.879 340.643L117.177 339.721L117.448 338.89L117.634 338.367L117.828 337.832L118.048 337.103C118.195 336.618 118.344 336.137 118.487 335.611C118.787 334.555 119.087 333.503 119.384 332.454C119.986 330.179 120.583 327.92 121.176 325.68C123.591 316.355 126.172 306.558 129.468 297.062C132.796 287.549 136.664 278.225 142.467 269.314C143.995 267.072 145.541 264.869 147.43 262.719L147.599 262.521L147.683 262.422C147.507 262.718 148.02 261.903 147.99 261.967L148.259 261.716C148.31 261.664 148.334 261.653 148.407 261.569L148.761 261.127L149.489 260.265C150.261 259.45 151.013 258.746 151.748 258.143C153.215 256.919 154.616 256.039 155.92 255.319C158.532 253.895 160.806 253.065 162.931 252.432C165.046 251.799 166.978 251.367 168.813 251.038C170.64 250.699 172.355 250.452 173.987 250.263C175.612 250.058 177.156 249.91 178.621 249.785C181.547 249.523 184.17 249.353 186.526 249.188C187.7 249.1 188.8 249.001 189.826 248.888C190.857 248.785 191.829 248.696 192.719 248.571C194.49 248.314 196.008 248.037 197.22 247.701C198.425 247.359 199.366 247.003 199.98 246.696C200.602 246.397 200.922 246.198 200.922 246.198C200.922 246.198 200.907 246.289 200.879 246.469C200.852 246.652 200.806 246.925 200.711 247.278C200.522 247.977 200.19 249.061 199.496 250.341C198.826 251.644 197.84 253.174 196.525 254.804C195.871 255.622 195.153 256.494 194.355 257.368C193.551 258.232 192.682 259.126 191.758 260.049C189.918 261.906 187.824 263.824 185.603 265.803C183.392 267.793 181.034 269.856 178.827 271.979C177.738 273.051 176.675 274.121 175.79 275.185C174.919 276.251 174.172 277.298 173.923 278.126C173.801 278.532 173.818 278.878 174.007 279.015C174.097 279.085 174.252 279.107 174.445 279.037C174.554 278.947 174.658 278.851 174.759 278.751L174.906 278.598C174.914 278.611 174.875 278.702 174.862 278.749L174.746 279.099C174.683 279.212 175.169 278.451 174.963 278.798L174.96 278.855L174.953 278.968C174.887 280.104 174.77 281.447 174.703 282.864C174.397 288.736 174.477 296.41 174.661 304.899C174.818 313.432 175.075 322.798 174.721 333.24C174.652 335.873 174.461 338.567 174.269 341.388C174.157 342.817 174.049 344.25 173.867 345.747L173.592 348.022L173.443 349.178L173.235 350.526L172.854 352.937L172.707 353.895L172.67 354.135L172.503 354.854L172.304 355.707C171.762 357.976 171.115 360.213 170.325 362.412C168.762 366.812 166.72 371.119 164.082 375.231C161.454 379.348 158.224 383.27 154.431 386.82C152.517 388.58 150.476 390.243 148.314 391.779C146.142 393.302 143.856 394.692 141.481 395.916C136.741 398.365 131.656 400.135 126.644 401.191C124.128 401.726 121.638 402.074 119.183 402.297C118.622 402.36 117.812 402.405 117.086 402.445L114.871 402.532L113.873 402.537L113.374 402.539L112.371 402.535L111.66 402.511C107.87 402.391 104.061 401.783 100.548 400.768C97.0209 399.762 93.8129 398.386 90.9739 396.859C85.3079 393.764 81.0499 390.162 77.7109 386.722C74.3329 383.259 71.7709 379.86 69.5749 376.592C67.3719 373.311 65.6149 370.149 64.0459 367.038C60.9199 360.863 58.6959 354.946 56.8169 349.224C55.9099 346.351 55.0939 343.527 54.3489 340.746C53.6229 337.959 52.9999 335.203 52.4109 332.492C50.1359 321.633 48.9139 311.3 48.3199 301.515C48.2569 300.331 48.1609 298.984 48.1219 297.872C48.0999 297.337 48.0589 296.628 48.0479 296.001C48.0289 295.358 48.0109 294.719 47.9919 294.08C47.9429 292.79 47.9539 291.587 47.9489 290.374C47.9359 289.164 47.9619 287.961 48.0039 286.803C48.1069 282.116 48.4349 277.72 48.8109 273.49C49.6009 265.06 50.7799 257.421 52.0979 250.655C53.4219 243.893 54.8809 238.018 56.3359 233.195C56.6979 231.993 57.0409 230.854 57.3639 229.784C57.7239 228.716 58.0629 227.715 58.3769 226.783C59.0019 224.916 59.6269 223.326 60.1229 222.061C61.1589 219.552 61.8099 218.215 61.8099 218.215Z" fill="black"/>
</svg>
