<?xml version="1.0" encoding="utf-8"?>
<!-- Generator: Adobe Illustrator 16.0.3, SVG Export Plug-In . SVG Version: 6.00 Build 0)  -->
<!DOCTYPE svg PUBLIC "-//W3C//DTD SVG 1.1//EN" "http://www.w3.org/Graphics/SVG/1.1/DTD/svg11.dtd">
<svg version="1.1" xmlns="http://www.w3.org/2000/svg" xmlns:xlink="http://www.w3.org/1999/xlink" x="0px" y="0px" width="792px"
	 height="612px" viewBox="0 0 792 612" enable-background="new 0 0 792 612" xml:space="preserve">
<g id="Capa_1" display="none">
	<path display="inline" fill="#FFFFFF" stroke="#000000" stroke-miterlimit="10" d="M400.541,175.617"/>
	<path display="inline" fill="#FFFFFF" stroke="#000000" stroke-miterlimit="10" d="M367.618,175.618"/>
	<g display="inline">
		<path fill="#FFFFFF" stroke="#000000" stroke-miterlimit="10" d="M356.167,136.589c-18.068-9.28-63.598-10.049-81.25,0
			c-15.445,8.793-38.392,38.627-44.791,55.209c-5.996,15.538-15.104,49.375-11.459,65.625c4.145,18.478,32.706,46.939,39.584,64.583
			c6.456,16.563,2.198,53.523,6.25,70.833c5.707,24.38,20.381,84.005,44.791,89.584c10.633,2.43,31.481-14.254,36.459-23.959
			c9.652-18.819,5.313-64.323,14.583-83.334c4.179-8.57,19.099-22.777,28.171-25.711c5.925-1.916,24.908-0.129,24.908-0.129
			l28.172,25.711l14.582,83.334l36.459,23.959l44.791-89.584l6.25-70.834l39.584-64.583l-11.459-65.625L527,136.459h-81.25
			l-45.209,34.791C400.541,171.25,373.266,145.372,356.167,136.589z"/>
	</g>
</g>
<g id="Capa_2">
	<g>
		<g display="none">
			<polyline display="inline" fill="#45B9D4" points="401.746,339.142 401.746,161.297 401.746,160.537 			"/>
			<path display="inline" fill="#163D77" d="M401.746,339.142c0,0-1.217-2.791-2.936-7.675c-0.87-2.441-1.849-5.406-2.914-8.808
				c-0.508-1.701-1.05-3.511-1.62-5.418c-0.321-0.954-0.268-1.933-0.117-2.934c0.134-1.002,0.071-2.026,0.086-3.073
				c0-16.744,0-39.07,0-61.396c0-22.325,0-44.651,0-61.395c-0.018-1.047,0.046-2.071-0.067-3.073
				c-0.056-0.501-0.139-0.996-0.109-1.485c0.018-0.489,0.153-0.972,0.303-1.449c0.574-1.908,1.119-3.717,1.63-5.418
				c1.062-3.401,2.034-6.366,2.888-8.808c0.831-2.442,1.593-4.36,2.066-5.668c0.493-1.308,0.788-2.006,0.788-2.006
				s0.295,0.698,0.788,2.006c0.474,1.308,1.235,3.227,2.066,5.668c0.854,2.442,1.826,5.407,2.889,8.808
				c0.512,1.701,1.056,3.51,1.63,5.418c0.149,0.477,0.285,0.96,0.303,1.449c0.03,0.489-0.054,0.984-0.109,1.485
				c-0.113,1.001-0.049,2.026-0.066,3.073c0,16.744,0,39.07,0,61.395c0,22.326,0,44.651,0,61.396
				c0.016,1.047-0.048,2.071,0.087,3.073c0.15,1.001,0.203,1.979-0.118,2.934c-0.57,1.907-1.111,3.717-1.619,5.418
				c-1.065,3.401-2.044,6.366-2.914,8.808C402.963,336.351,401.746,339.142,401.746,339.142z"/>
		</g>
		<g>
			<path fill="#163D77" d="M401.746,160.537c1.736-1.872,3.45-3.775,5.205-5.62c1.749-1.854,3.487-3.722,5.255-5.55l5.284-5.51
				l5.324-5.452c3.536-3.653,7.136-7.219,10.708-10.821c3.565-3.614,7.194-7.137,10.796-10.699l1.22-1.206l5.088-0.81
				c3.386-0.539,6.771-1.106,10.156-1.6l10.156-1.528l5.078-0.764c1.692-0.263,3.385-0.508,5.078-0.59
				c3.385-0.209,6.771,0.2,10.155,0.311c3.386,0.098,6.771,0.027,10.156,0.049h10.156h20.313h7.146l4.502,5.55l44.791,55.208
				l2.457,3.029l0.671,3.842L602.901,244l0.976,5.585l-2.963,4.834l-39.584,64.583l2.153-6.521l-6.25,70.836l-0.251,2.84
				l-1.275,2.55l-44.789,89.584l-7.549,15.098l-14.105-9.271l-36.459-23.959l-5.42-3.562l-1.118-6.389l-3.646-20.833l-1.823-10.417
				c-0.308-1.735-0.595-3.474-1.003-5.192c-0.385-1.722-0.837-3.432-1.174-5.162c-0.332-1.731-0.52-3.487-0.573-5.268l-0.126-5.346
				l-0.248-10.692c-0.183-7.125-0.23-14.273-0.353-21.409l4.591,6.486l-10.123-8.163c-3.382-2.708-6.72-5.494-10.08-8.24
				c-3.362-2.741-6.683-5.559-10.026-8.335c-3.325-2.809-6.643-5.631-9.937-8.495c4.158,1.326,8.293,2.696,12.42,4.079
				c4.109,1.415,8.241,2.788,12.331,4.238c4.092,1.445,8.206,2.85,12.277,4.333l12.233,4.411l2.707,0.976l1.884,5.512
				c2.309,6.753,4.69,13.493,6.938,20.257l3.397,10.141l1.697,5.071c0.554,1.692,0.974,3.408,1.249,5.149
				c0.271,1.742,0.426,3.504,0.648,5.254c0.2,1.755,0.521,3.488,0.82,5.225l1.822,10.417l3.646,20.833l-6.538-9.949l36.459,23.959
				l-21.653,5.827l44.789-89.584l-1.525,5.39l6.25-70.836l0.311-3.513l1.843-3.007l39.584-64.582l-1.987,10.418l-11.459-65.625
				l3.128,6.87l-44.791-55.208l11.648,5.549h-20.313h-10.156c-3.385,0.022-6.771-0.049-10.156,0.049
				c-3.385,0.11-6.771,0.52-10.155,0.311c-1.693-0.083-3.386-0.327-5.078-0.59l-5.078-0.764l-10.156-1.528
				c-3.386-0.494-6.771-1.062-10.156-1.6l6.308-2.016c-4.546,2.237-9.063,4.512-13.645,6.697c-4.574,2.196-9.121,4.429-13.731,6.574
				l-6.896,3.246l-6.936,3.188c-2.307,1.071-4.642,2.102-6.966,3.147C406.442,158.513,404.083,159.509,401.746,160.537z"/>
		</g>
		<g>
			<path d="M401.746,161.323l-6.085-4.099c-1.007-0.68-2.013-1.356-3.033-2.013l-3.029-1.987c-1.014-0.653-2.015-1.316-3.042-1.942
				l-3.029-1.923c-2.033-1.253-4.072-2.474-6.101-3.671c-1.006-0.614-2.034-1.184-3.059-1.747c-1.027-0.558-2.035-1.155-3.068-1.671
				l-3.054-1.609l-3.071-1.46c-1.012-0.512-2.049-0.896-3.06-1.326c-1.01-0.427-2.013-0.887-3.014-1.195
				c-0.997-0.323-1.995-0.739-2.964-0.987l-2.86-0.718l-0.574-0.224c-0.658-0.136-1.299-0.296-1.939-0.451
				c-0.648-0.151-1.244-0.333-1.971-0.433l-2.081-0.357l-1.033-0.182l-1.087-0.128c-2.869-0.362-5.83-0.613-8.799-0.827
				l-4.493-0.206l-4.528-0.04c-3.02,0.003-6.04,0.032-9.05,0.19c-1.505,0.055-3.007,0.114-4.501,0.252
				c-1.492,0.138-2.995,0.177-4.469,0.352l-4.42,0.472l-4.334,0.611c-2.836,0.488-5.651,0.986-8.265,1.657
				c-1.376,0.272-2.543,0.719-3.781,1.071c-1.3,0.323-2.265,0.816-3.351,1.214l-0.792,0.305l-0.603,0.348
				c-0.402,0.226-0.808,0.438-1.223,0.63c-0.146,0.049-0.551,0.312-0.895,0.504l-1.049,0.613l-1.017,0.601l-0.667,0.464
				l-0.671,0.454c-0.218,0.141-0.45,0.296-0.72,0.503l-1.555,1.129c-1.019,0.804-2.056,1.569-3.042,2.448
				c-1.997,1.7-3.939,3.542-5.81,5.519c-1.863,1.979-3.683,4.047-5.421,6.24c-1.74,2.188-3.395,4.48-5.015,6.826
				c-1.618,2.348-3.127,4.797-4.604,7.278c-1.477,2.481-2.851,5.038-4.162,7.608c-0.663,1.282-1.289,2.576-1.89,3.86l-0.865,1.908
				l-0.708,1.633l-1.014,2.34l-0.004-0.116c-0.001-0.021-0.184,0.309-0.307,0.522c-0.129,0.215-0.28,0.514-0.422,0.777
				c-0.29,0.526-0.577,1.101-0.864,1.682c-0.583,1.137-1.125,2.368-1.675,3.571c-0.532,1.229-1.093,2.444-1.575,3.709l-0.754,1.882
				l-0.689,1.914l-0.707,1.912l-0.63,1.939l-0.636,1.942l-0.556,1.963c-0.807,2.608-1.41,5.262-2.022,7.921l-0.806,4.009
				c-0.25,1.34-0.395,2.688-0.624,4.036c-0.098,0.674-0.231,1.35-0.302,2.026l-0.196,2.03l-0.202,2.037
				c-0.074,0.68-0.158,1.362-0.167,2.04l-0.188,4.09c-0.091,1.372-0.001,2.726-0.017,4.099l0.01,2.06l0.002,0.517l0.001,0.259
				c-0.059-0.328,0.131,0.779-0.131-0.727l0.004,0.036l0.009,0.072l0.017,0.143l0.138,1.146l0.276,2.293l0.138,1.146l0.069,0.573
				l0.035,0.287l0.044,0.197c0.245,1.033,0.437,2.091,0.598,3.188c0.258,1.126,0.679,2.325,0.999,3.515
				c0.139,0.612,0.422,1.165,0.651,1.745l0.712,1.743c0.206,0.598,0.536,1.151,0.825,1.729l0.877,1.742
				c0.267,0.593,0.638,1.16,0.992,1.734l1.063,1.735c0.707,1.166,1.599,2.304,2.394,3.471c0.809,1.178,1.747,2.354,2.62,3.538
				c0.897,1.186,1.875,2.39,2.811,3.586c1.922,2.419,3.837,4.942,5.742,7.514c1.883,2.598,3.671,5.298,5.304,8.092
				c0.85,1.362,1.552,2.841,2.275,4.279l1.07,2.152l0.895,2.244c1.277,2.922,2.076,6.038,2.871,9.048
				c-1.01-1.22-2.021-2.414-2.979-3.613l-0.725-0.893c-0.247-0.293-0.531-0.563-0.786-0.848l-1.561-1.68l-1.548-1.655l-1.645-1.563
				c-1.09-1.037-2.145-2.076-3.324-3.019c-2.217-1.985-4.604-3.785-6.976-5.606l-3.638-2.693c-1.248-0.904-2.483-1.771-3.727-2.712
				c-1.257-0.949-2.506-1.854-3.774-2.842c-1.268-1.012-2.547-1.959-3.815-3.039c-1.244-1.124-2.525-2.16-3.747-3.38l-1.836-1.837
				c-0.613-0.616-1.236-1.219-1.801-1.917l-1.739-2.043c-0.584-0.682-1.158-1.372-1.656-2.141l-1.547-2.265
				c-0.506-0.765-1.06-1.507-1.473-2.331c-0.875-1.634-1.796-3.203-2.611-4.946c-0.768-1.826-1.505-3.691-2.189-5.581l-0.128-0.352
				l-0.083-0.276l-0.166-0.553l-0.331-1.105l-0.663-2.212l-0.332-1.105l-0.042-0.138l-0.021-0.069l-0.01-0.035l-0.139-0.798
				l-0.058-0.313l-0.116-0.628l-0.462-2.517l-0.457-2.526l-0.226-1.267c-0.063-0.423-0.096-0.847-0.146-1.271l-0.537-5.105
				c-0.198-1.708-0.186-3.411-0.271-5.123l-0.091-2.57c-0.022-0.857,0.019-1.708,0.026-2.563c0.039-1.708,0.059-3.425,0.161-5.131
				l0.403-5.114c0.393-3.39,0.827-6.789,1.481-10.141l0.484-2.519l0.575-2.497l0.581-2.5l0.669-2.479l0.698-2.474l0.779-2.457
				c0.5-1.642,1.099-3.267,1.675-4.898c0.62-1.631,1.238-3.242,1.956-4.883c0.347-0.815,0.702-1.634,1.1-2.478
				c0.198-0.424,0.373-0.82,0.605-1.282c0.232-0.466,0.396-0.821,0.768-1.512l-1.018,2.223l0.56-1.556l0.511-1.331l1.038-2.562
				c0.704-1.68,1.425-3.333,2.184-4.96c1.51-3.26,3.16-6.436,4.91-9.571c1.746-3.138,3.658-6.193,5.676-9.206
				c2.014-3.016,4.201-5.944,6.512-8.81c2.296-2.875,4.81-5.634,7.462-8.295c1.313-1.34,2.712-2.625,4.105-3.91
				c1.448-1.247,2.883-2.498,4.419-3.672c1.492-1.207,3.095-2.323,4.678-3.447l2.462-1.602c0.392-0.26,0.846-0.534,1.323-0.811
				l1.399-0.816l1.403-0.806l1.108-0.574l1.082-0.554c0.373-0.182,0.655-0.355,1.255-0.623c1.055-0.486,2.119-0.954,3.187-1.407
				l1.602-0.672l1.504-0.485c1.99-0.612,4.047-1.312,5.921-1.666c1.908-0.415,3.857-0.871,5.687-1.094
				c3.737-0.615,7.355-0.918,10.956-1.134l5.348-0.188l5.287,0.06c1.761,0.01,3.499,0.142,5.245,0.231
				c1.746,0.078,3.48,0.237,5.212,0.404c3.466,0.279,6.91,0.797,10.346,1.299l5.139,0.937l5.13,1.13
				c1.707,0.386,3.426,0.883,5.129,1.322c0.848,0.214,1.704,0.493,2.563,0.781l2.562,0.847l1.277,0.428l1.296,0.506l2.579,1.017
				c0.844,0.308,1.74,0.763,2.612,1.171c0.875,0.418,1.747,0.831,2.604,1.268l-0.574-0.224l3.82,1.992
				c1.248,0.675,2.346,1.45,3.512,2.172c1.177,0.713,2.222,1.515,3.289,2.295c1.063,0.785,2.122,1.579,3.093,2.427
				c0.987,0.837,1.984,1.661,2.949,2.504l2.808,2.585c0.945,0.85,1.791,1.786,2.685,2.672c0.885,0.895,1.763,1.79,2.601,2.716
				c0.842,0.924,1.71,1.815,2.521,2.763l2.421,2.833c1.592,1.9,3.143,3.824,4.624,5.802c1.509,1.948,2.934,3.965,4.333,5.988
				C399.158,157.13,400.5,159.197,401.746,161.323z"/>
		</g>
		<g>
			<path d="M262.844,312.198c0,0,0.828,1.162,2.313,3.368c0.755,1.087,1.473,2.612,2.415,4.398c0.245,0.45,0.463,0.92,0.658,1.407
				c0.207,0.49,0.42,0.997,0.641,1.521c0.409,1.055,0.937,2.18,1.301,3.395c1.762,4.839,3.119,10.958,4.126,17.955
				c0.522,3.496,0.86,7.203,1.24,11.059c0.375,3.835,0.614,7.851,1.053,11.831c0.443,3.948,0.889,7.994,1.846,11.385
				c0.612,1.863,1.235,3.757,1.867,5.681c0.739,2.154,1.489,4.342,2.25,6.559c3.088,8.838,6.396,18.063,10.146,27.275
				c1.879,4.6,3.847,9.201,5.981,13.681c2.107,4.487,4.392,8.859,6.84,12.867l0.924,1.493l0.943,1.43
				c0.616,0.98,1.274,1.839,1.912,2.739c1.305,1.694,2.622,3.338,3.896,4.564c1.26,1.261,2.516,2.271,3.425,2.756
				c0.247,0.203,0.434,0.213,0.627,0.325l0.278,0.157c0.077,0.009,0.15,0.023,0.22,0.046s0.138,0.052,0.204,0.088l0.025,0.015
				c-0.172-0.045,0.42,0.119-0.38-0.096l0.252,0.063l0.505,0.127c0.618,0.151,1.544,0.402,1.618,0.369
				c0.4,0.071,1.295,0.235,1.99,0.279c0.359,0.028,0.718,0.068,1.05,0.055l0.509,0.015l0.482-0.032
				c1.285-0.076,2.42-0.278,3.493-0.689c2.12-0.752,4.244-2.352,5.98-4.676c0.863-1.14,1.582-2.442,2.066-3.658
				c0.256-0.604,0.427-1.172,0.554-1.635c0.023-0.108,0.074-0.239,0.081-0.32l0.031-0.137l0.019-0.069
				c0,0.033,0.011-0.074,0.015-0.117l0.013-0.126l0.207-2.004l0.213-1.998l0.242-2.058c0.165-1.364,0.328-2.724,0.492-4.078
				c0.322-2.688,0.712-5.352,1.092-7.992c1.555-10.56,3.482-20.743,5.842-30.367c1.233-4.811,2.449-9.493,3.912-14.01
				c0.734-2.256,1.462-4.468,2.285-6.649c0.763-2.165,1.622-4.323,2.529-6.397c0.418-1.032,0.934-2.075,1.428-3.096
				c0.506-1.024,0.955-2.021,1.493-3.021c0.564-1,1.123-1.989,1.674-2.966l0.413-0.723l0.051-0.09l0.248-0.46l0.107-0.147
				l0.22-0.291l0.624-0.835c0.284-0.375,0.575-0.74,0.872-1.095c1.888-2.025,3.592-3.278,5.262-4.486
				c1.661-1.176,3.263-2.169,4.838-3.071c6.258-3.584,11.805-5.993,16.456-7.87c4.639-1.865,8.372-3.097,10.953-3.843
				c1.284-0.383,2.301-0.607,2.986-0.743c0.34-0.071,0.612-0.097,0.785-0.118c0.178,0.004,0.269,0.006,0.269,0.006
				c-0.043-0.082-1.21,0.708-3.23,2.399c-2.028,1.681-4.957,4.2-8.6,7.432c-3.604,3.253-8.033,7.205-12.505,11.893
				c-1.09,1.184-2.213,2.383-3.227,3.615c-0.99,1.21-1.958,2.542-2.393,3.527l0.053,0.077c0,0.02,0.019-0.01-0.001,0.046
				l-0.135,0.337l-0.136,0.338l-0.07,0.168c0.377-0.718,0.092-0.155,0.171-0.295l-0.021,0.076l-0.17,0.61
				c-0.229,0.809-0.46,1.626-0.694,2.453c-0.221,0.842-0.392,1.77-0.594,2.657c-0.195,0.898-0.405,1.787-0.548,2.763
				c-0.157,0.957-0.321,1.919-0.505,2.881c-0.187,0.956-0.301,1.989-0.457,2.991c-0.317,2.003-0.555,4.102-0.79,6.233
				c-0.252,2.111-0.451,4.327-0.691,6.529c-0.204,2.228-0.388,4.498-0.564,6.8c-0.668,9.236-1.208,19.056-1.604,29.242
				c-0.093,2.546-0.186,5.114-0.28,7.7c-0.077,2.584-0.155,5.186-0.234,7.804l-0.062,2.015l-0.038,0.692l-0.063,0.868
				c-0.038,0.591-0.118,1.123-0.186,1.683c-0.299,2.198-0.759,4.268-1.359,6.236c-1.222,3.931-2.937,7.556-5.123,10.957
				c-2.192,3.392-4.887,6.542-8.099,9.299c-1.586,1.393-3.343,2.646-5.168,3.801c-1.863,1.107-3.793,2.144-5.836,2.953
				c-4.055,1.686-8.411,2.664-12.665,2.926l-1.596,0.091l-1.574,0.003c-1.058,0.014-2.083-0.051-3.11-0.126
				c-1.039-0.054-2.028-0.197-3.031-0.326c-0.95-0.106-2.136-0.345-3.223-0.569c-1.297-0.262-1.708-0.402-2.438-0.584l-0.504-0.131
				l-0.252-0.065c-0.883-0.24-0.372-0.107-0.625-0.181l-0.221-0.072l-1.759-0.609l-1.743-0.651c-0.54-0.244-1.063-0.502-1.592-0.761
				c-1.04-0.523-2.145-1.044-3.036-1.644c-3.897-2.316-6.822-5.039-9.415-7.731c-2.624-2.709-4.669-5.475-6.589-8.238
				c-0.908-1.379-1.846-2.761-2.644-4.136c-0.409-0.688-0.836-1.374-1.226-2.065l-1.125-2.065
				c-2.975-5.497-5.328-10.959-7.386-16.35c-2.033-5.4-3.77-10.729-5.272-15.984c-3-10.506-5.175-20.681-6.81-30.349
				c-0.385-2.419-0.764-4.805-1.138-7.154c-0.173-1.162-0.345-2.315-0.515-3.46l-0.135-1.026l-0.117-1.085
				c-0.071-0.719-0.142-1.434-0.212-2.146c-0.092-1.39-0.068-2.675-0.097-3.989c-0.032-1.318,0.087-2.49,0.127-3.718
				c0.042-1.229,0.148-2.377,0.257-3.511c0.103-1.131,0.21-2.281,0.366-3.345c1.118-8.655,2.563-16.026,3.479-22.589
				c0.938-6.541,1.494-12.249,1.497-16.981c0.072-1.202-0.038-2.298-0.058-3.363c-0.054-1.048-0.001-2.1-0.127-2.983
				c-0.091-0.919-0.176-1.769-0.253-2.548c-0.07-0.793-0.12-1.528-0.271-2.181C263.068,313.607,262.844,312.198,262.844,312.198z"/>
		</g>
	</g>
</g>
<g id="Capa_3">
</g>
</svg>
