<svg width="8691" height="9360" viewBox="0 0 8691 9360" fill="none" xmlns="http://www.w3.org/2000/svg">
<path d="M8690.15 2752.1C8693.14 2606.43 8656.4 2462.7 8583.87 2336.34C8507.56 2212.34 8399.58 2110.93 8271.04 2042.56C7113.75 1403.53 5955.91 764.839 4797.5 126.481C4657.86 42.385 4497.65 -1.38259 4334.65 0.0332952C4171.64 1.44918 4012.22 47.9933 3874.06 134.502C3413.5 394.859 1108.4 1660.21 421.243 2041.55C290.559 2107.34 181.468 2209.2 106.892 2335.07C32.3165 2460.94 -4.6188 2605.55 0.46172 2751.77V6608.32C-2.91471 6750.73 31.6929 6891.46 100.727 7016.07C177.431 7143.66 287.73 7247.72 419.572 7316.86C1106.73 7698.21 3412.17 8963.56 3872.72 9223.92C4010.82 9310.53 4170.21 9357.19 4333.22 9358.72C4496.22 9360.25 4656.46 9316.6 4796.17 9232.6C5952.56 8592.91 7109.63 7954.22 8267.36 7316.53C8399.23 7247.29 8509.61 7143.26 8586.54 7015.73C8655.58 6891.13 8690.18 6750.39 8686.81 6607.98V2752.1" fill="#659AD2"/>
<path d="M8539.42 7076.56C8556.97 7057.26 8573.37 7036.95 8588.55 7015.73C8657.58 6891.13 8692.19 6750.4 8688.81 6607.99V2752.11C8691.8 2606.44 8655.06 2462.7 8582.53 2336.34C8570.5 2316.62 8552.78 2301.25 8539.08 2282.86L4345.3 4679.88L8539.42 7076.56Z" fill="#00599C"/>
<path d="M8539.42 7076.56L4345.31 4679.88L151.195 7076.56C221.812 7176.33 314.294 7258.64 421.578 7317.2C1108.73 7698.54 3414.17 8963.9 3874.73 9224.25C4012.83 9310.86 4172.22 9357.52 4335.22 9359.06C4498.23 9360.59 4658.47 9316.94 4798.17 9232.94C5954.57 8593.25 7111.63 7954.55 8269.37 7316.86C8376.5 7258.35 8468.86 7176.17 8539.42 7076.56Z" fill="#004482"/>
<path d="M5548.49 5355C5399.61 5619.77 5167.38 5827.89 4887.95 5946.98C4608.51 6066.07 4297.54 6089.44 4003.45 6013.46C3709.35 5937.48 3448.62 5766.41 3261.83 5526.87C3075.05 5287.34 2972.68 4992.77 2970.68 4689.03C2968.67 4385.28 3067.13 4089.39 3250.74 3847.41C3434.34 3605.42 3692.79 3430.92 3985.86 3351.06C4278.93 3271.21 4590.17 3290.47 4871.16 3405.85C5152.14 3521.24 5387.1 3726.27 5539.47 3989.05L6747.67 3296.21C6441 2769.92 5969.79 2359.05 5406.63 2126.91C4843.47 1894.76 4219.61 1854.21 3631.14 2011.51C3042.68 2168.81 2522.25 2515.23 2150.04 2997.41C1777.82 3479.58 1574.46 4070.76 1571.29 4679.88C1570.43 5162.92 1697.26 5637.61 1938.93 6055.86C2183.41 6478.4 2534.83 6829.13 2957.86 7072.77C3380.89 7316.41 3860.61 7444.38 4348.78 7443.8C4836.96 7443.23 5316.37 7314.13 5738.83 7069.49C6161.28 6824.85 6511.87 6473.3 6755.36 6050.18L5548.49 5355Z" fill="white"/>
<path d="M7044.46 4525.47H6734.97V4217.65H6425.82V4525.47H6116.33V4833.95H6425.82V5141.43H6734.97V4833.95H7044.46V4525.47ZM8205.2 4525.47H7895.71V4217.65H7586.22V4525.47H7276.74V4833.95H7586.22V5141.43H7895.71V4833.95H8205.2V4525.47Z" fill="white"/>
</svg>
