<svg width="1000" height="1003" viewBox="0 0 1000 1003" xmlns="http://www.w3.org/2000/svg">
<path fill="black" stroke="none" d="M241.0 114.5 L242.0 114.5 L243.0 114.5 L244.0 114.5 L245.0 114.5 L245.5 115.0 L246.0 115.5 L247.0 115.5 L248.0 115.5 L248.5 116.0 L249.0 116.5 L250.0 116.5 L250.5 117.0 L251.0 117.5 L252.0 117.5 L253.0 117.5 L254.0 117.5 L255.0 117.5 L256.0 117.5 L257.0 117.5 L258.0 117.5 L259.0 117.5 L260.0 117.5 L260.5 118.0 L261.0 118.5 L262.0 118.5 L263.0 118.5 L264.0 118.5 L265.0 118.5 L265.5 119.0 L266.0 119.5 L267.0 119.5 L268.0 119.5 L269.0 119.5 L270.0 119.5 L270.5 120.0 L271.0 120.5 L272.0 120.5 L273.0 120.5 L274.0 120.5 L274.5 121.0 L275.0 121.5 L276.0 121.5 L277.0 121.5 L278.0 121.5 L278.5 122.0 L279.0 122.5 L280.0 122.5 L281.0 122.5 L282.0 122.5 L282.5 123.0 L283.0 123.5 L284.0 123.5 L284.5 124.0 L285.0 124.5 L286.0 124.5 L287.0 124.5 L287.5 125.0 L288.0 125.5 L289.0 125.5 L290.0 125.5 L290.5 126.0 L291.0 126.5 L292.0 126.5 L292.5 127.0 L293.0 127.5 L294.0 127.5 L295.0 127.5 L295.5 128.0 L296.0 128.5 L297.0 128.5 L298.0 128.5 L298.5 129.0 L299.0 129.5 L300.0 129.5 L300.5 130.0 L301.0 130.5 L302.0 130.5 L302.5 131.0 L303.0 131.5 L304.0 131.5 L305.0 131.5 L305.5 132.0 L306.0 132.5 L307.0 132.5 L307.5 133.0 L308.0 133.5 L309.0 133.5 L309.5 134.0 L310.0 134.5 L311.0 134.5 L312.0 134.5 L312.5 135.0 L313.0 135.5 L314.0 135.5 L315.0 135.5 L316.0 135.5 L316.5 136.0 L317.0 136.5 L318.0 136.5 L318.5 137.0 L319.0 137.5 L320.0 137.5 L321.0 137.5 L321.5 138.0 L322.0 138.5 L323.0 138.5 L324.0 138.5 L325.0 138.5 L325.5 139.0 L326.0 139.5 L327.0 139.5 L328.0 139.5 L328.5 140.0 L329.0 140.5 L330.0 140.5 L331.0 140.5 L332.0 140.5 L332.5 141.0 L333.0 141.5 L334.0 141.5 L335.0 141.5 L336.0 141.5 L337.0 141.5 L337.5 142.0 L338.0 142.5 L339.0 142.5 L340.0 142.5 L341.0 142.5 L342.0 142.5 L343.0 142.5 L343.5 143.0 L344.0 143.5 L345.0 143.5 L346.0 143.5 L347.0 143.5 L348.0 143.5 L349.0 143.5 L349.5 144.0 L350.0 144.5 L351.0 144.5 L352.0 144.5 L353.0 144.5 L354.0 144.5 L355.0 144.5 L356.0 144.5 L357.0 144.5 L358.0 144.5 L358.5 145.0 L359.0 145.5 L360.0 145.5 L361.0 145.5 L362.0 145.5 L363.0 145.5 L364.0 145.5 L365.0 145.5 L366.0 145.5 L367.0 145.5 L368.0 145.5 L369.0 145.5 L370.0 145.5 L371.0 145.5 L371.5 146.0 L372.0 146.5 L373.0 146.5 L374.0 146.5 L375.0 146.5 L376.0 146.5 L377.0 146.5 L377.5 147.0 L378.0 147.5 L379.0 147.5 L380.0 147.5 L381.0 147.5 L382.0 147.5 L383.0 147.5 L383.5 148.0 L384.0 148.5 L385.0 148.5 L386.0 148.5 L387.0 148.5 L388.0 148.5 L389.0 148.5 L390.0 148.5 L391.0 148.5 L392.0 148.5 L393.0 148.5 L393.5 149.0 L394.0 149.5 L395.0 149.5 L396.0 149.5 L397.0 149.5 L398.0 149.5 L399.0 149.5 L399.5 150.0 L400.0 150.5 L401.0 150.5 L402.0 150.5 L403.0 150.5 L404.0 150.5 L404.5 151.0 L405.0 151.5 L406.0 151.5 L407.0 151.5 L408.0 151.5 L409.0 151.5 L409.5 152.0 L410.0 152.5 L411.0 152.5 L412.0 152.5 L413.0 152.5 L413.5 153.0 L414.0 153.5 L415.0 153.5 L416.0 153.5 L417.0 153.5 L417.5 154.0 L418.0 154.5 L419.0 154.5 L420.0 154.5 L421.0 154.5 L421.5 155.0 L422.0 155.5 L423.0 155.5 L424.0 155.5 L425.0 155.5 L425.5 156.0 L426.0 156.5 L427.0 156.5 L428.0 156.5 L428.5 157.0 L429.0 157.5 L430.0 157.5 L431.0 157.5 L432.0 157.5 L432.5 158.0 L433.0 158.5 L434.0 158.5 L435.0 158.5 L435.5 159.0 L436.0 159.5 L437.0 159.5 L437.5 160.0 L438.0 160.5 L439.0 160.5 L439.5 161.0 L440.0 161.5 L440.5 162.0 L441.0 162.5 L442.0 162.5 L442.5 163.0 L443.0 163.5 L443.5 164.0 L444.0 164.5 L445.0 164.5 L445.5 165.0 L446.0 165.5 L447.0 165.5 L448.0 165.5 L449.0 165.5 L449.5 165.0 L449.5 164.0 L450.0 163.5 L450.5 163.0 L451.0 162.5 L451.5 162.0 L452.0 161.5 L453.0 161.5 L454.0 161.5 L454.5 162.0 L455.0 162.5 L455.5 163.0 L455.5 164.0 L456.0 164.5 L456.5 165.0 L456.5 166.0 L457.0 166.5 L457.5 167.0 L457.5 168.0 L457.5 169.0 L458.0 169.5 L458.5 170.0 L458.5 171.0 L459.0 171.5 L459.5 172.0 L459.5 173.0 L460.0 173.5 L460.5 174.0 L460.5 175.0 L461.0 175.5 L461.5 176.0 L461.5 177.0 L462.0 177.5 L462.5 178.0 L462.5 179.0 L463.0 179.5 L463.5 180.0 L464.0 180.5 L465.0 180.5 L465.5 181.0 L466.0 181.5 L466.5 182.0 L467.0 182.5 L468.0 182.5 L468.5 183.0 L469.0 183.5 L469.5 184.0 L470.0 184.5 L470.5 185.0 L471.0 185.5 L471.5 186.0 L472.0 186.5 L472.5 187.0 L472.5 188.0 L472.5 189.0 L472.5 190.0 L472.5 191.0 L473.0 191.5 L473.5 192.0 L474.0 192.5 L474.5 193.0 L475.0 193.5 L475.5 194.0 L476.0 194.5 L476.5 195.0 L477.0 195.5 L477.5 196.0 L478.0 196.5 L478.5 197.0 L479.0 197.5 L480.0 197.5 L480.5 198.0 L481.0 198.5 L481.5 199.0 L482.0 199.5 L482.5 200.0 L483.0 200.5 L483.5 201.0 L484.0 201.5 L485.0 201.5 L485.5 202.0 L486.0 202.5 L486.5 203.0 L486.5 204.0 L486.0 204.5 L485.0 204.5 L484.0 204.5 L483.5 204.0 L483.0 203.5 L482.5 203.0 L482.0 202.5 L481.0 202.5 L480.5 202.0 L480.0 201.5 L479.5 201.0 L479.0 200.5 L478.0 200.5 L477.5 200.0 L477.5 199.0 L477.0 198.5 L476.5 198.0 L476.0 197.5 L475.0 197.5 L474.5 197.0 L474.0 196.5 L473.5 196.0 L473.0 195.5 L472.5 195.0 L472.0 194.5 L471.5 194.0 L471.0 193.5 L470.5 193.0 L470.0 192.5 L469.5 192.0 L469.0 191.5 L468.5 191.0 L468.0 190.5 L467.5 190.0 L467.0 189.5 L466.5 189.0 L466.0 188.5 L465.5 188.0 L465.0 187.5 L464.5 187.0 L464.0 186.5 L463.5 186.0 L463.0 185.5 L462.5 185.0 L462.0 184.5 L461.5 184.0 L461.5 183.0 L461.0 182.5 L460.5 182.0 L460.0 181.5 L459.0 181.5 L458.5 181.0 L458.0 180.5 L457.0 180.5 L456.0 180.5 L455.0 180.5 L454.5 181.0 L454.0 181.5 L453.0 181.5 L452.0 181.5 L451.0 181.5 L450.5 182.0 L450.0 182.5 L449.0 182.5 L448.0 182.5 L447.5 183.0 L447.0 183.5 L446.0 183.5 L445.5 184.0 L445.0 184.5 L444.0 184.5 L443.0 184.5 L442.0 184.5 L441.5 185.0 L441.0 185.5 L440.0 185.5 L439.0 185.5 L438.5 186.0 L438.0 186.5 L437.0 186.5 L436.0 186.5 L435.0 186.5 L434.5 187.0 L434.0 187.5 L433.0 187.5 L432.0 187.5 L431.5 188.0 L431.0 188.5 L430.0 188.5 L429.0 188.5 L428.0 188.5 L427.0 188.5 L426.5 189.0 L426.0 189.5 L425.0 189.5 L424.0 189.5 L423.5 190.0 L423.0 190.5 L422.0 190.5 L421.0 190.5 L420.5 191.0 L420.0 191.5 L419.0 191.5 L418.0 191.5 L417.0 191.5 L416.5 192.0 L416.0 192.5 L415.0 192.5 L414.0 192.5 L413.0 192.5 L412.5 193.0 L412.0 193.5 L411.0 193.5 L410.0 193.5 L409.5 194.0 L409.0 194.5 L408.0 194.5 L407.0 194.5 L406.0 194.5 L405.5 195.0 L405.0 195.5 L404.0 195.5 L403.0 195.5 L402.0 195.5 L401.5 196.0 L401.0 196.5 L400.0 196.5 L399.0 196.5 L398.5 197.0 L398.0 197.5 L397.0 197.5 L396.0 197.5 L395.0 197.5 L394.0 197.5 L393.5 198.0 L393.0 198.5 L392.0 198.5 L391.0 198.5 L390.0 198.5 L389.5 199.0 L389.0 199.5 L388.0 199.5 L387.5 200.0 L387.0 200.5 L386.0 200.5 L385.0 200.5 L384.5 201.0 L384.0 201.5 L383.0 201.5 L382.0 201.5 L381.0 201.5 L380.0 201.5 L379.5 202.0 L379.0 202.5 L378.0 202.5 L377.0 202.5 L376.5 203.0 L376.0 203.5 L375.0 203.5 L374.0 203.5 L373.0 203.5 L372.5 204.0 L372.0 204.5 L371.0 204.5 L370.0 204.5 L369.0 204.5 L368.5 205.0 L368.0 205.5 L367.0 205.5 L366.0 205.5 L365.0 205.5 L364.5 206.0 L364.0 206.5 L363.0 206.5 L362.0 206.5 L361.5 207.0 L361.0 207.5 L360.0 207.5 L359.0 207.5 L358.0 207.5 L357.0 207.5 L356.5 208.0 L356.0 208.5 L355.0 208.5 L354.0 208.5 L353.0 208.5 L352.5 209.0 L352.0 209.5 L351.0 209.5 L350.0 209.5 L349.5 210.0 L349.0 210.5 L348.0 210.5 L347.0 210.5 L346.5 211.0 L346.0 211.5 L345.0 211.5 L344.0 211.5 L343.0 211.5 L342.5 212.0 L342.0 212.5 L341.0 212.5 L340.0 212.5 L339.5 213.0 L339.0 213.5 L338.0 213.5 L337.0 213.5 L336.5 214.0 L336.0 214.5 L335.0 214.5 L334.0 214.5 L333.0 214.5 L332.5 215.0 L332.0 215.5 L331.0 215.5 L330.5 216.0 L330.0 216.5 L329.0 216.5 L328.5 217.0 L328.0 217.5 L327.0 217.5 L326.5 218.0 L326.0 218.5 L325.5 219.0 L325.0 219.5 L324.0 219.5 L323.5 220.0 L323.0 220.5 L322.5 221.0 L322.0 221.5 L321.5 222.0 L321.0 222.5 L320.5 223.0 L320.0 223.5 L319.5 224.0 L319.0 224.5 L318.5 225.0 L318.0 225.5 L317.5 226.0 L317.0 226.5 L316.5 227.0 L316.0 227.5 L315.5 228.0 L315.0 228.5 L314.5 229.0 L314.0 229.5 L313.5 230.0 L313.0 230.5 L312.5 231.0 L312.5 232.0 L312.0 232.5 L311.5 233.0 L311.0 233.5 L310.5 234.0 L310.5 235.0 L310.0 235.5 L309.5 236.0 L309.0 236.5 L308.5 237.0 L308.0 237.5 L307.5 238.0 L307.5 239.0 L307.0 239.5 L306.5 240.0 L306.0 240.5 L305.5 241.0 L305.5 242.0 L305.5 243.0 L305.0 243.5 L304.5 244.0 L304.5 245.0 L304.0 245.5 L303.5 246.0 L303.0 246.5 L302.5 247.0 L302.5 248.0 L302.0 248.5 L301.5 249.0 L301.5 250.0 L301.0 250.5 L300.5 251.0 L300.5 252.0 L300.0 252.5 L299.5 253.0 L299.5 254.0 L299.5 255.0 L299.5 256.0 L299.0 256.5 L298.5 257.0 L298.5 258.0 L298.5 259.0 L298.5 260.0 L298.5 261.0 L298.5 262.0 L298.5 263.0 L298.0 263.5 L297.5 264.0 L297.5 265.0 L297.5 266.0 L297.5 267.0 L298.0 267.5 L298.5 268.0 L298.5 269.0 L298.5 270.0 L298.5 271.0 L298.5 272.0 L299.0 272.5 L299.5 273.0 L299.5 274.0 L300.0 274.5 L300.5 275.0 L300.5 276.0 L301.0 276.5 L301.5 277.0 L302.0 277.5 L302.5 278.0 L302.5 279.0 L303.0 279.5 L303.5 280.0 L304.0 280.5 L304.5 281.0 L305.0 281.5 L305.5 282.0 L306.0 282.5 L306.5 283.0 L307.0 283.5 L307.5 284.0 L308.0 284.5 L308.5 285.0 L309.0 285.5 L309.5 286.0 L310.0 286.5 L310.5 287.0 L311.0 287.5 L312.0 287.5 L312.5 288.0 L313.0 288.5 L313.5 289.0 L314.0 289.5 L314.5 290.0 L315.0 290.5 L315.5 291.0 L316.0 291.5 L317.0 291.5 L317.5 292.0 L318.0 292.5 L318.5 293.0 L319.0 293.5 L319.5 294.0 L320.0 294.5 L321.0 294.5 L321.5 295.0 L322.0 295.5 L322.5 296.0 L323.0 296.5 L323.5 297.0 L324.0 297.5 L324.5 298.0 L325.0 298.5 L325.5 299.0 L326.0 299.5 L327.0 299.5 L327.5 300.0 L328.0 300.5 L328.5 301.0 L329.0 301.5 L330.0 301.5 L330.5 302.0 L331.0 302.5 L331.5 303.0 L332.0 303.5 L332.5 304.0 L333.0 304.5 L334.0 304.5 L334.5 305.0 L335.0 305.5 L335.5 306.0 L336.0 306.5 L337.0 306.5 L337.5 307.0 L338.0 307.5 L338.5 308.0 L339.0 308.5 L339.5 309.0 L340.0 309.5 L341.0 309.5 L341.5 310.0 L342.0 310.5 L342.5 311.0 L343.0 311.5 L344.0 311.5 L344.5 312.0 L345.0 312.5 L346.0 312.5 L346.5 313.0 L347.0 313.5 L348.0 313.5 L348.5 314.0 L349.0 314.5 L349.5 315.0 L350.0 315.5 L351.0 315.5 L351.5 316.0 L352.0 316.5 L352.5 317.0 L353.0 317.5 L353.5 318.0 L354.0 318.5 L354.5 319.0 L355.0 319.5 L355.5 320.0 L356.0 320.5 L357.0 320.5 L357.5 321.0 L358.0 321.5 L358.5 322.0 L359.0 322.5 L360.0 322.5 L360.5 323.0 L361.0 323.5 L361.5 324.0 L362.0 324.5 L362.5 325.0 L363.0 325.5 L364.0 325.5 L364.5 326.0 L365.0 326.5 L365.5 327.0 L366.0 327.5 L367.0 327.5 L367.5 328.0 L368.0 328.5 L368.5 329.0 L369.0 329.5 L370.0 329.5 L370.5 330.0 L371.0 330.5 L371.5 331.0 L372.0 331.5 L372.5 332.0 L373.0 332.5 L374.0 332.5 L374.5 333.0 L375.0 333.5 L375.5 334.0 L376.0 334.5 L376.5 335.0 L377.0 335.5 L378.0 335.5 L378.5 336.0 L379.0 336.5 L379.5 337.0 L380.0 337.5 L381.0 337.5 L381.5 338.0 L382.0 338.5 L382.5 339.0 L383.0 339.5 L383.5 340.0 L384.0 340.5 L384.5 341.0 L385.0 341.5 L385.5 342.0 L386.0 342.5 L387.0 342.5 L387.5 343.0 L388.0 343.5 L388.5 344.0 L389.0 344.5 L390.0 344.5 L390.5 345.0 L391.0 345.5 L392.0 345.5 L392.5 346.0 L393.0 346.5 L393.5 347.0 L394.0 347.5 L395.0 347.5 L395.5 348.0 L396.0 348.5 L396.5 349.0 L397.0 349.5 L398.0 349.5 L398.5 350.0 L399.0 350.5 L399.5 351.0 L400.0 351.5 L400.5 352.0 L401.0 352.5 L402.0 352.5 L402.5 353.0 L403.0 353.5 L403.5 354.0 L404.0 354.5 L404.5 355.0 L405.0 355.5 L406.0 355.5 L406.5 356.0 L407.0 356.5 L407.5 357.0 L408.0 357.5 L408.5 358.0 L409.0 358.5 L410.0 358.5 L410.5 359.0 L411.0 359.5 L411.5 360.0 L412.0 360.5 L413.0 360.5 L413.5 361.0 L414.0 361.5 L414.5 362.0 L415.0 362.5 L416.0 362.5 L416.5 363.0 L417.0 363.5 L417.5 364.0 L418.0 364.5 L418.5 365.0 L419.0 365.5 L419.5 366.0 L420.0 366.5 L420.5 367.0 L421.0 367.5 L422.0 367.5 L422.5 368.0 L423.0 368.5 L423.5 369.0 L424.0 369.5 L424.5 370.0 L425.0 370.5 L425.5 371.0 L426.0 371.5 L427.0 371.5 L427.5 372.0 L428.0 372.5 L428.5 373.0 L429.0 373.5 L429.5 374.0 L430.0 374.5 L431.0 374.5 L431.5 375.0 L432.0 375.5 L432.5 376.0 L433.0 376.5 L434.0 376.5 L434.5 377.0 L435.0 377.5 L435.5 378.0 L436.0 378.5 L437.0 378.5 L437.5 379.0 L438.0 379.5 L439.0 379.5 L439.5 380.0 L440.0 380.5 L440.5 381.0 L441.0 381.5 L441.5 382.0 L442.0 382.5 L443.0 382.5 L443.5 383.0 L444.0 383.5 L444.5 384.0 L445.0 384.5 L445.5 385.0 L446.0 385.5 L447.0 385.5 L447.5 386.0 L448.0 386.5 L448.5 387.0 L449.0 387.5 L449.5 388.0 L450.0 388.5 L451.0 388.5 L451.5 389.0 L452.0 389.5 L452.5 390.0 L453.0 390.5 L453.5 391.0 L454.0 391.5 L454.5 392.0 L455.0 392.5 L455.5 393.0 L456.0 393.5 L456.5 394.0 L457.0 394.5 L457.5 395.0 L458.0 395.5 L459.0 395.5 L459.5 396.0 L460.0 396.5 L460.5 397.0 L461.0 397.5 L461.5 398.0 L462.0 398.5 L462.5 399.0 L463.0 399.5 L464.0 399.5 L464.5 400.0 L465.0 400.5 L465.5 401.0 L466.0 401.5 L466.5 402.0 L467.0 402.5 L467.5 403.0 L468.0 403.5 L468.5 404.0 L469.0 404.5 L470.0 404.5 L470.5 405.0 L471.0 405.5 L471.5 406.0 L472.0 406.5 L472.5 407.0 L473.0 407.5 L473.5 408.0 L474.0 408.5 L474.5 409.0 L475.0 409.5 L475.5 410.0 L476.0 410.5 L477.0 410.5 L477.5 411.0 L478.0 411.5 L479.0 411.5 L479.5 412.0 L480.0 412.5 L480.5 413.0 L481.0 413.5 L481.5 414.0 L482.0 414.5 L482.5 415.0 L483.0 415.5 L483.5 416.0 L484.0 416.5 L484.5 417.0 L485.0 417.5 L485.5 418.0 L485.5 419.0 L486.0 419.5 L486.5 420.0 L487.0 420.5 L487.5 421.0 L488.0 421.5 L488.5 422.0 L489.0 422.5 L489.5 423.0 L490.0 423.5 L490.5 424.0 L491.0 424.5 L491.5 425.0 L492.0 425.5 L492.5 426.0 L493.0 426.5 L494.0 426.5 L494.5 427.0 L495.0 427.5 L495.5 428.0 L496.0 428.5 L496.5 429.0 L497.0 429.5 L497.5 430.0 L498.0 430.5 L498.5 431.0 L499.0 431.5 L499.5 432.0 L500.0 432.5 L500.5 433.0 L501.0 433.5 L501.5 434.0 L502.0 434.5 L502.5 435.0 L503.0 435.5 L503.5 436.0 L504.0 436.5 L504.5 437.0 L505.0 437.5 L505.5 438.0 L506.0 438.5 L506.5 439.0 L507.0 439.5 L507.5 440.0 L508.0 440.5 L508.5 441.0 L509.0 441.5 L509.5 442.0 L510.0 442.5 L510.5 443.0 L511.0 443.5 L512.0 443.5 L512.5 444.0 L513.0 444.5 L513.5 445.0 L514.0 445.5 L514.5 446.0 L515.0 446.5 L515.5 447.0 L516.0 447.5 L516.5 448.0 L517.0 448.5 L517.5 449.0 L518.0 449.5 L518.5 450.0 L518.5 451.0 L519.0 451.5 L519.5 452.0 L520.0 452.5 L520.5 453.0 L520.5 454.0 L521.0 454.5 L522.0 454.5 L522.5 455.0 L523.0 455.5 L523.5 456.0 L524.0 456.5 L524.5 457.0 L525.0 457.5 L525.5 458.0 L526.0 458.5 L526.5 459.0 L527.0 459.5 L527.5 460.0 L528.0 460.5 L528.5 461.0 L529.0 461.5 L529.5 462.0 L530.0 462.5 L530.5 463.0 L531.0 463.5 L531.5 464.0 L532.0 464.5 L532.5 465.0 L533.0 465.5 L533.5 466.0 L534.0 466.5 L534.5 467.0 L535.0 467.5 L535.5 468.0 L536.0 468.5 L536.5 469.0 L537.0 469.5 L538.0 469.5 L538.5 470.0 L539.0 470.5 L539.5 471.0 L540.0 471.5 L540.5 472.0 L541.0 472.5 L541.5 473.0 L542.0 473.5 L542.5 474.0 L543.0 474.5 L544.0 474.5 L544.5 475.0 L545.0 475.5 L545.5 476.0 L546.0 476.5 L547.0 476.5 L547.5 477.0 L548.0 477.5 L548.5 478.0 L549.0 478.5 L549.5 479.0 L550.0 479.5 L550.5 480.0 L551.0 480.5 L551.5 481.0 L552.0 481.5 L552.5 482.0 L553.0 482.5 L554.0 482.5 L554.5 483.0 L555.0 483.5 L555.5 484.0 L556.0 484.5 L556.5 485.0 L557.0 485.5 L558.0 485.5 L558.5 486.0 L559.0 486.5 L559.5 487.0 L560.0 487.5 L560.5 488.0 L561.0 488.5 L562.0 488.5 L562.5 489.0 L563.0 489.5 L563.5 490.0 L564.0 490.5 L565.0 490.5 L565.5 491.0 L566.0 491.5 L566.5 492.0 L567.0 492.5 L568.0 492.5 L568.5 493.0 L569.0 493.5 L569.5 494.0 L570.0 494.5 L571.0 494.5 L571.5 495.0 L572.0 495.5 L572.5 496.0 L573.0 496.5 L574.0 496.5 L574.5 497.0 L575.0 497.5 L576.0 497.5 L576.5 498.0 L577.0 498.5 L578.0 498.5 L578.5 499.0 L579.0 499.5 L579.5 500.0 L580.0 500.5 L581.0 500.5 L581.5 501.0 L582.0 501.5 L582.5 502.0 L583.0 502.5 L584.0 502.5 L584.5 503.0 L585.0 503.5 L585.5 504.0 L586.0 504.5 L587.0 504.5 L587.5 505.0 L588.0 505.5 L588.5 506.0 L589.0 506.5 L589.5 507.0 L590.0 507.5 L591.0 507.5 L591.5 508.0 L592.0 508.5 L593.0 508.5 L593.5 509.0 L594.0 509.5 L594.5 510.0 L595.0 510.5 L596.0 510.5 L596.5 511.0 L597.0 511.5 L597.5 512.0 L598.0 512.5 L599.0 512.5 L599.5 513.0 L600.0 513.5 L600.5 514.0 L601.0 514.5 L601.5 515.0 L602.0 515.5 L602.5 516.0 L603.0 516.5 L604.0 516.5 L604.5 517.0 L605.0 517.5 L605.5 518.0 L606.0 518.5 L607.0 518.5 L607.5 519.0 L608.0 519.5 L608.5 520.0 L609.0 520.5 L609.5 521.0 L610.0 521.5 L611.0 521.5 L611.5 522.0 L612.0 522.5 L612.5 523.0 L613.0 523.5 L613.5 524.0 L614.0 524.5 L614.5 525.0 L615.0 525.5 L616.0 525.5 L616.5 526.0 L617.0 526.5 L617.5 527.0 L618.0 527.5 L618.5 528.0 L619.0 528.5 L619.5 529.0 L620.0 529.5 L620.5 530.0 L621.0 530.5 L621.5 531.0 L622.0 531.5 L623.0 531.5 L623.5 532.0 L624.0 532.5 L624.5 533.0 L625.0 533.5 L626.0 533.5 L626.5 534.0 L627.0 534.5 L627.5 535.0 L628.0 535.5 L628.5 536.0 L629.0 536.5 L629.5 537.0 L630.0 537.5 L631.0 537.5 L631.5 538.0 L632.0 538.5 L632.5 539.0 L633.0 539.5 L633.5 540.0 L634.0 540.5 L635.0 540.5 L635.5 541.0 L636.0 541.5 L636.5 542.0 L637.0 542.5 L638.0 542.5 L638.5 543.0 L639.0 543.5 L640.0 543.5 L640.5 544.0 L641.0 544.5 L641.5 545.0 L642.0 545.5 L643.0 545.5 L643.5 546.0 L644.0 546.5 L644.5 547.0 L645.0 547.5 L645.5 548.0 L646.0 548.5 L646.5 549.0 L647.0 549.5 L647.5 550.0 L648.0 550.5 L649.0 550.5 L649.5 551.0 L650.0 551.5 L650.5 552.0 L651.0 552.5 L651.5 553.0 L652.0 553.5 L652.5 554.0 L653.0 554.5 L653.5 555.0 L654.0 555.5 L655.0 555.5 L655.5 556.0 L656.0 556.5 L656.5 557.0 L657.0 557.5 L657.5 558.0 L658.0 558.5 L659.0 558.5 L659.5 559.0 L660.0 559.5 L660.5 560.0 L661.0 560.5 L661.5 561.0 L662.0 561.5 L663.0 561.5 L663.5 562.0 L664.0 562.5 L664.5 563.0 L665.0 563.5 L665.5 564.0 L666.0 564.5 L666.5 565.0 L667.0 565.5 L668.0 565.5 L668.5 566.0 L669.0 566.5 L669.5 567.0 L670.0 567.5 L670.5 568.0 L671.0 568.5 L672.0 568.5 L672.5 569.0 L673.0 569.5 L673.5 570.0 L674.0 570.5 L674.5 571.0 L675.0 571.5 L676.0 571.5 L676.5 572.0 L677.0 572.5 L677.5 573.0 L678.0 573.5 L679.0 573.5 L679.5 574.0 L680.0 574.5 L680.5 575.0 L681.0 575.5 L682.0 575.5 L682.5 576.0 L683.0 576.5 L683.5 577.0 L684.0 577.5 L684.5 578.0 L685.0 578.5 L686.0 578.5 L686.5 579.0 L687.0 579.5 L687.5 580.0 L688.0 580.5 L689.0 580.5 L689.5 581.0 L690.0 581.5 L690.5 582.0 L691.0 582.5 L691.5 583.0 L692.0 583.5 L692.5 584.0 L693.0 584.5 L694.0 584.5 L694.5 585.0 L695.0 585.5 L695.5 586.0 L696.0 586.5 L696.5 587.0 L697.0 587.5 L698.0 587.5 L698.5 588.0 L699.0 588.5 L699.5 589.0 L700.0 589.5 L701.0 589.5 L701.5 590.0 L702.0 590.5 L702.5 591.0 L703.0 591.5 L704.0 591.5 L704.5 592.0 L705.0 592.5 L705.5 593.0 L706.0 593.5 L707.0 593.5 L707.5 594.0 L708.0 594.5 L708.5 595.0 L709.0 595.5 L710.0 595.5 L710.5 596.0 L711.0 596.5 L711.5 597.0 L712.0 597.5 L712.5 598.0 L713.0 598.5 L714.0 598.5 L714.5 599.0 L715.0 599.5 L715.5 600.0 L716.0 600.5 L716.5 601.0 L717.0 601.5 L717.5 602.0 L718.0 602.5 L719.0 602.5 L719.5 603.0 L720.0 603.5 L720.5 604.0 L721.0 604.5 L722.0 604.5 L722.5 605.0 L723.0 605.5 L723.5 606.0 L724.0 606.5 L724.5 607.0 L725.0 607.5 L726.0 607.5 L727.0 607.5 L727.5 608.0 L728.0 608.5 L729.0 608.5 L729.5 609.0 L730.0 609.5 L731.0 609.5 L731.5 610.0 L732.0 610.5 L732.5 611.0 L733.0 611.5 L734.0 611.5 L734.5 612.0 L735.0 612.5 L736.0 612.5 L736.5 613.0 L737.0 613.5 L737.5 614.0 L738.0 614.5 L739.0 614.5 L739.5 615.0 L740.0 615.5 L740.5 616.0 L741.0 616.5 L742.0 616.5 L742.5 617.0 L743.0 617.5 L744.0 617.5 L744.5 618.0 L745.0 618.5 L745.5 619.0 L746.0 619.5 L747.0 619.5 L747.5 620.0 L748.0 620.5 L748.5 621.0 L749.0 621.5 L749.5 622.0 L750.0 622.5 L751.0 622.5 L751.5 623.0 L752.0 623.5 L752.5 624.0 L753.0 624.5 L754.0 624.5 L754.5 625.0 L755.0 625.5 L755.5 626.0 L756.0 626.5 L757.0 626.5 L757.5 627.0 L758.0 627.5 L758.5 628.0 L759.0 628.5 L760.0 628.5 L760.5 629.0 L761.0 629.5 L762.0 629.5 L762.5 630.0 L763.0 630.5 L763.5 631.0 L764.0 631.5 L765.0 631.5 L765.5 632.0 L766.0 632.5 L766.5 633.0 L767.0 633.5 L768.0 633.5 L768.5 634.0 L769.0 634.5 L770.0 634.5 L770.5 635.0 L771.0 635.5 L772.0 635.5 L772.5 636.0 L773.0 636.5 L773.5 637.0 L774.0 637.5 L775.0 637.5 L775.5 638.0 L776.0 638.5 L777.0 638.5 L777.5 639.0 L778.0 639.5 L779.0 639.5 L779.5 640.0 L780.0 640.5 L781.0 640.5 L781.5 641.0 L782.0 641.5 L783.0 641.5 L784.0 641.5 L784.5 642.0 L785.0 642.5 L786.0 642.5 L787.0 642.5 L787.5 643.0 L788.0 643.5 L789.0 643.5 L789.5 644.0 L790.0 644.5 L791.0 644.5 L791.5 645.0 L792.0 645.5 L793.0 645.5 L794.0 645.5 L795.0 645.5 L795.5 646.0 L796.0 646.5 L797.0 646.5 L797.5 647.0 L798.0 647.5 L799.0 647.5 L799.5 648.0 L800.0 648.5 L801.0 648.5 L802.0 648.5 L803.0 648.5 L803.5 649.0 L804.0 649.5 L805.0 649.5 L805.5 650.0 L806.0 650.5 L807.0 650.5 L807.5 651.0 L808.0 651.5 L809.0 651.5 L810.0 651.5 L810.5 652.0 L811.0 652.5 L812.0 652.5 L812.5 653.0 L813.0 653.5 L814.0 653.5 L814.5 654.0 L815.0 654.5 L816.0 654.5 L817.0 654.5 L817.5 655.0 L818.0 655.5 L819.0 655.5 L819.5 656.0 L820.0 656.5 L820.5 657.0 L821.0 657.5 L822.0 657.5 L823.0 657.5 L823.5 658.0 L824.0 658.5 L825.0 658.5 L826.0 658.5 L826.5 659.0 L827.0 659.5 L828.0 659.5 L828.5 660.0 L829.0 660.5 L830.0 660.5 L830.5 661.0 L831.0 661.5 L832.0 661.5 L832.5 662.0 L833.0 662.5 L834.0 662.5 L834.5 663.0 L835.0 663.5 L836.0 663.5 L836.5 664.0 L837.0 664.5 L838.0 664.5 L838.5 665.0 L839.0 665.5 L840.0 665.5 L840.5 666.0 L841.0 666.5 L842.0 666.5 L842.5 667.0 L843.0 667.5 L844.0 667.5 L844.5 668.0 L845.0 668.5 L846.0 668.5 L846.5 669.0 L847.0 669.5 L847.5 670.0 L848.0 670.5 L849.0 670.5 L849.5 671.0 L850.0 671.5 L851.0 671.5 L851.5 672.0 L852.0 672.5 L853.0 672.5 L854.0 672.5 L854.5 673.0 L855.0 673.5 L855.5 674.0 L856.0 674.5 L857.0 674.5 L857.5 675.0 L858.0 675.5 L859.0 675.5 L859.5 676.0 L860.0 676.5 L861.0 676.5 L861.5 677.0 L862.0 677.5 L862.5 678.0 L863.0 678.5 L864.0 678.5 L864.5 679.0 L865.0 679.5 L866.0 679.5 L866.5 680.0 L867.0 680.5 L867.5 681.0 L868.0 681.5 L869.0 681.5 L869.5 682.0 L870.0 682.5 L870.5 683.0 L871.0 683.5 L872.0 683.5 L872.5 684.0 L873.0 684.5 L873.5 685.0 L874.0 685.5 L874.5 686.0 L875.0 686.5 L876.0 686.5 L876.5 687.0 L877.0 687.5 L877.5 688.0 L878.0 688.5 L878.5 689.0 L879.0 689.5 L879.5 690.0 L880.0 690.5 L880.5 691.0 L881.0 691.5 L882.0 691.5 L882.5 692.0 L883.0 692.5 L883.5 693.0 L884.0 693.5 L884.5 694.0 L885.0 694.5 L885.5 695.0 L886.0 695.5 L887.0 695.5 L887.5 696.0 L888.0 696.5 L888.5 697.0 L889.0 697.5 L889.5 698.0 L890.0 698.5 L890.5 699.0 L891.0 699.5 L891.5 700.0 L892.0 700.5 L893.0 700.5 L893.5 701.0 L894.0 701.5 L894.5 702.0 L895.0 702.5 L895.5 703.0 L896.0 703.5 L896.5 704.0 L897.0 704.5 L897.5 705.0 L898.0 705.5 L898.5 706.0 L899.0 706.5 L900.0 706.5 L900.5 707.0 L901.0 707.5 L901.5 708.0 L902.0 708.5 L902.5 709.0 L903.0 709.5 L903.5 710.0 L904.0 710.5 L904.5 711.0 L905.0 711.5 L905.5 712.0 L906.0 712.5 L906.5 713.0 L907.0 713.5 L907.5 714.0 L908.0 714.5 L908.5 715.0 L908.5 716.0 L909.0 716.5 L909.5 717.0 L910.0 717.5 L910.5 718.0 L911.0 718.5 L911.5 719.0 L911.5 720.0 L912.0 720.5 L912.5 721.0 L913.0 721.5 L913.5 722.0 L913.5 723.0 L914.0 723.5 L914.5 724.0 L915.0 724.5 L915.5 725.0 L915.5 726.0 L916.0 726.5 L916.5 727.0 L917.0 727.5 L917.5 728.0 L918.0 728.5 L918.5 729.0 L918.5 730.0 L919.0 730.5 L919.5 731.0 L920.0 731.5 L920.5 732.0 L921.0 732.5 L921.5 733.0 L922.0 733.5 L922.5 734.0 L922.5 735.0 L923.0 735.5 L923.5 736.0 L924.0 736.5 L924.5 737.0 L924.5 738.0 L925.0 738.5 L925.5 739.0 L926.0 739.5 L926.5 740.0 L927.0 740.5 L927.5 741.0 L927.5 742.0 L928.0 742.5 L928.5 743.0 L928.5 744.0 L928.5 745.0 L928.5 746.0 L928.5 747.0 L928.5 748.0 L929.0 748.5 L929.5 749.0 L929.5 750.0 L929.5 751.0 L929.5 752.0 L929.5 753.0 L929.5 754.0 L930.0 754.5 L930.5 755.0 L930.5 756.0 L930.0 756.5 L929.5 757.0 L929.5 758.0 L929.0 758.5 L928.0 758.5 L927.0 758.5 L926.0 758.5 L925.0 758.5 L924.0 758.5 L923.0 758.5 L922.0 758.5 L921.5 758.0 L921.0 757.5 L920.0 757.5 L919.0 757.5 L918.0 757.5 L917.0 757.5 L916.0 757.5 L915.0 757.5 L914.0 757.5 L913.0 757.5 L912.0 757.5 L911.5 757.0 L911.0 756.5 L910.0 756.5 L909.0 756.5 L908.0 756.5 L907.0 756.5 L906.0 756.5 L905.5 756.0 L905.0 755.5 L904.0 755.5 L903.0 755.5 L902.0 755.5 L901.0 755.5 L900.0 755.5 L899.0 755.5 L898.0 755.5 L897.0 755.5 L896.0 755.5 L895.0 755.5 L894.5 755.0 L894.0 754.5 L893.0 754.5 L892.0 754.5 L891.0 754.5 L890.0 754.5 L889.0 754.5 L888.0 754.5 L887.0 754.5 L886.0 754.5 L885.0 754.5 L884.0 754.5 L883.5 754.0 L883.0 753.5 L882.0 753.5 L881.0 753.5 L880.0 753.5 L879.0 753.5 L878.0 753.5 L877.0 753.5 L876.0 753.5 L875.5 753.0 L875.0 752.5 L874.0 752.5 L873.0 752.5 L872.0 752.5 L871.0 752.5 L870.0 752.5 L869.0 752.5 L868.5 752.0 L868.0 751.5 L867.0 751.5 L866.5 752.0 L866.0 752.5 L865.0 752.5 L864.5 753.0 L864.5 754.0 L865.0 754.5 L866.0 754.5 L866.5 755.0 L867.0 755.5 L867.5 756.0 L868.0 756.5 L869.0 756.5 L869.5 757.0 L870.0 757.5 L870.5 758.0 L871.0 758.5 L872.0 758.5 L872.5 759.0 L873.0 759.5 L874.0 759.5 L874.5 760.0 L875.0 760.5 L875.5 761.0 L876.0 761.5 L877.0 761.5 L877.5 762.0 L878.0 762.5 L878.5 763.0 L879.0 763.5 L880.0 763.5 L880.5 764.0 L881.0 764.5 L881.5 765.0 L882.0 765.5 L883.0 765.5 L883.5 766.0 L884.0 766.5 L884.5 767.0 L885.0 767.5 L886.0 767.5 L886.5 768.0 L887.0 768.5 L888.0 768.5 L888.5 769.0 L889.0 769.5 L889.5 770.0 L890.0 770.5 L891.0 770.5 L891.5 771.0 L892.0 771.5 L893.0 771.5 L894.0 771.5 L894.5 772.0 L895.0 772.5 L896.0 772.5 L896.5 773.0 L897.0 773.5 L898.0 773.5 L898.5 774.0 L899.0 774.5 L899.5 775.0 L900.0 775.5 L901.0 775.5 L901.5 776.0 L902.0 776.5 L903.0 776.5 L903.5 777.0 L904.0 777.5 L904.5 778.0 L905.0 778.5 L906.0 778.5 L906.5 779.0 L907.0 779.5 L908.0 779.5 L908.5 780.0 L909.0 780.5 L909.5 781.0 L910.0 781.5 L911.0 781.5 L911.5 782.0 L912.0 782.5 L912.5 783.0 L913.0 783.5 L914.0 783.5 L914.5 784.0 L915.0 784.5 L915.5 785.0 L916.0 785.5 L917.0 785.5 L917.5 786.0 L918.0 786.5 L918.5 787.0 L919.0 787.5 L920.0 787.5 L920.5 788.0 L921.0 788.5 L921.5 789.0 L922.0 789.5 L923.0 789.5 L923.5 790.0 L924.0 790.5 L925.0 790.5 L925.5 791.0 L926.0 791.5 L926.5 792.0 L927.0 792.5 L928.0 792.5 L928.5 793.0 L929.0 793.5 L929.5 794.0 L930.0 794.5 L931.0 794.5 L931.5 795.0 L932.0 795.5 L933.0 795.5 L933.5 796.0 L934.0 796.5 L935.0 796.5 L935.5 797.0 L936.0 797.5 L936.5 798.0 L937.0 798.5 L938.0 798.5 L938.5 799.0 L939.0 799.5 L940.0 799.5 L940.5 800.0 L941.0 800.5 L941.5 801.0 L942.0 801.5 L943.0 801.5 L943.5 802.0 L944.0 802.5 L944.5 803.0 L945.0 803.5 L946.0 803.5 L946.5 804.0 L947.0 804.5 L948.0 804.5 L949.0 804.5 L949.5 805.0 L950.0 805.5 L951.0 805.5 L951.5 806.0 L952.0 806.5 L953.0 806.5 L953.5 807.0 L954.0 807.5 L954.5 808.0 L955.0 808.5 L956.0 808.5 L957.0 808.5 L957.5 809.0 L958.0 809.5 L959.0 809.5 L959.5 810.0 L960.0 810.5 L960.5 811.0 L961.0 811.5 L962.0 811.5 L963.0 811.5 L963.5 812.0 L964.0 812.5 L965.0 812.5 L965.5 813.0 L966.0 813.5 L967.0 813.5 L967.5 814.0 L968.0 814.5 L969.0 814.5 L969.5 815.0 L970.0 815.5 L971.0 815.5 L972.0 815.5 L973.0 815.5 L973.5 816.0 L974.0 816.5 L974.5 817.0 L975.0 817.5 L976.0 817.5 L976.5 818.0 L977.0 818.5 L977.5 819.0 L978.0 819.5 L978.5 820.0 L978.5 821.0 L978.5 822.0 L978.5 823.0 L978.5 824.0 L978.5 825.0 L978.5 826.0 L978.5 827.0 L978.0 827.5 L977.5 828.0 L977.5 829.0 L977.0 829.5 L976.5 830.0 L976.5 831.0 L976.0 831.5 L975.5 832.0 L975.5 833.0 L975.0 833.5 L974.5 834.0 L974.5 835.0 L974.0 835.5 L973.5 836.0 L973.0 836.5 L972.5 837.0 L972.0 837.5 L971.5 838.0 L971.0 838.5 L970.5 839.0 L970.0 839.5 L969.0 839.5 L968.5 840.0 L968.0 840.5 L967.5 841.0 L967.0 841.5 L966.0 841.5 L965.0 841.5 L964.5 842.0 L964.0 842.5 L963.0 842.5 L962.5 843.0 L962.0 843.5 L961.0 843.5 L960.0 843.5 L959.5 844.0 L959.0 844.5 L958.0 844.5 L957.0 844.5 L956.0 844.5 L955.0 844.5 L954.5 845.0 L954.0 845.5 L953.0 845.5 L952.0 845.5 L951.0 845.5 L950.0 845.5 L949.0 845.5 L948.0 845.5 L947.0 845.5 L946.0 845.5 L945.0 845.5 L944.0 845.5 L943.5 846.0 L943.0 846.5 L942.0 846.5 L941.0 846.5 L940.0 846.5 L939.0 846.5 L938.5 847.0 L938.0 847.5 L937.0 847.5 L936.5 848.0 L936.0 848.5 L935.5 849.0 L935.5 850.0 L935.5 851.0 L936.0 851.5 L936.5 852.0 L936.5 853.0 L937.0 853.5 L937.5 854.0 L937.5 855.0 L937.5 856.0 L938.0 856.5 L938.5 857.0 L938.5 858.0 L939.0 858.5 L939.5 859.0 L939.5 860.0 L940.0 860.5 L940.5 861.0 L940.5 862.0 L941.0 862.5 L941.5 863.0 L941.5 864.0 L941.5 865.0 L941.5 866.0 L941.5 867.0 L941.0 867.5 L940.0 867.5 L939.0 867.5 L938.0 867.5 L937.0 867.5 L936.5 867.0 L936.0 866.5 L935.0 866.5 L934.0 866.5 L933.0 866.5 L932.5 866.0 L932.0 865.5 L931.0 865.5 L930.0 865.5 L929.0 865.5 L928.0 865.5 L927.5 865.0 L927.0 864.5 L926.0 864.5 L925.0 864.5 L924.5 864.0 L924.0 863.5 L923.0 863.5 L922.0 863.5 L921.5 863.0 L921.0 862.5 L920.0 862.5 L919.0 862.5 L918.5 862.0 L918.0 861.5 L917.0 861.5 L916.0 861.5 L915.0 861.5 L914.5 861.0 L914.0 860.5 L913.0 860.5 L912.0 860.5 L911.5 860.0 L911.0 859.5 L910.0 859.5 L909.5 859.0 L909.0 858.5 L908.0 858.5 L907.0 858.5 L906.5 858.0 L906.0 857.5 L905.0 857.5 L904.0 857.5 L903.0 857.5 L902.5 857.0 L902.0 856.5 L901.0 856.5 L900.0 856.5 L899.5 856.0 L899.0 855.5 L898.0 855.5 L897.0 855.5 L896.5 855.0 L896.0 854.5 L895.0 854.5 L894.0 854.5 L893.5 854.0 L893.0 853.5 L892.0 853.5 L891.0 853.5 L890.5 853.0 L890.0 852.5 L889.0 852.5 L888.0 852.5 L887.5 852.0 L887.0 851.5 L886.0 851.5 L885.0 851.5 L884.0 851.5 L883.5 851.0 L883.0 850.5 L882.0 850.5 L881.0 850.5 L880.5 850.0 L880.0 849.5 L879.0 849.5 L878.0 849.5 L877.5 849.0 L877.0 848.5 L876.0 848.5 L875.0 848.5 L874.5 848.0 L874.0 847.5 L873.0 847.5 L872.0 847.5 L871.5 847.0 L871.0 846.5 L870.0 846.5 L869.0 846.5 L868.5 846.0 L868.0 845.5 L867.0 845.5 L866.0 845.5 L865.0 845.5 L864.5 845.0 L864.0 844.5 L863.0 844.5 L862.0 844.5 L861.0 844.5 L860.0 844.5 L859.5 844.0 L859.0 843.5 L858.0 843.5 L857.0 843.5 L856.5 843.0 L856.0 842.5 L855.0 842.5 L854.0 842.5 L853.0 842.5 L852.5 842.0 L852.0 841.5 L851.0 841.5 L850.0 841.5 L849.5 841.0 L849.0 840.5 L848.0 840.5 L847.5 840.0 L847.0 839.5 L846.0 839.5 L845.5 839.0 L845.0 838.5 L844.0 838.5 L843.5 838.0 L843.0 837.5 L842.0 837.5 L841.0 837.5 L840.5 837.0 L840.0 836.5 L839.0 836.5 L838.5 836.0 L838.0 835.5 L837.0 835.5 L836.0 835.5 L835.5 835.0 L835.0 834.5 L834.0 834.5 L833.0 834.5 L832.5 834.0 L832.0 833.5 L831.0 833.5 L830.5 833.0 L830.0 832.5 L829.5 832.0 L829.0 831.5 L828.0 831.5 L827.5 831.0 L827.0 830.5 L826.0 830.5 L825.5 830.0 L825.0 829.5 L824.0 829.5 L823.5 829.0 L823.0 828.5 L822.0 828.5 L821.0 828.5 L820.5 828.0 L820.0 827.5 L819.5 827.0 L819.0 826.5 L818.0 826.5 L817.5 826.0 L817.0 825.5 L816.0 825.5 L815.5 825.0 L815.0 824.5 L814.5 824.0 L814.0 823.5 L813.0 823.5 L812.5 823.0 L812.0 822.5 L811.0 822.5 L810.5 822.0 L810.0 821.5 L809.0 821.5 L808.5 821.0 L808.0 820.5 L807.5 820.0 L807.0 819.5 L806.0 819.5 L805.5 819.0 L805.0 818.5 L804.0 818.5 L803.5 818.0 L803.0 817.5 L802.0 817.5 L801.0 817.5 L800.5 817.0 L800.0 816.5 L799.5 816.0 L799.0 815.5 L798.0 815.5 L797.5 815.0 L797.0 814.5 L796.0 814.5 L795.0 814.5 L794.5 814.0 L794.0 813.5 L793.0 813.5 L792.5 813.0 L792.0 812.5 L791.5 812.0 L791.0 811.5 L790.0 811.5 L789.5 811.0 L789.0 810.5 L788.0 810.5 L787.5 810.0 L787.0 809.5 L786.0 809.5 L785.5 809.0 L785.0 808.5 L784.0 808.5 L783.5 808.0 L783.0 807.5 L782.0 807.5 L781.5 807.0 L781.0 806.5 L780.0 806.5 L779.5 806.0 L779.0 805.5 L778.0 805.5 L777.5 805.0 L777.0 804.5 L776.0 804.5 L775.0 804.5 L774.5 804.0 L774.0 803.5 L773.0 803.5 L772.5 803.0 L772.0 802.5 L771.0 802.5 L770.5 802.0 L770.0 801.5 L769.0 801.5 L768.0 801.5 L767.5 801.0 L767.0 800.5 L766.5 800.0 L766.0 799.5 L765.0 799.5 L764.5 799.0 L764.0 798.5 L763.0 798.5 L762.0 798.5 L761.5 798.0 L761.0 797.5 L760.0 797.5 L759.5 797.0 L759.0 796.5 L758.0 796.5 L757.5 796.0 L757.0 795.5 L756.0 795.5 L755.5 795.0 L755.0 794.5 L754.0 794.5 L753.0 794.5 L752.5 794.0 L752.0 793.5 L751.0 793.5 L750.5 793.0 L750.0 792.5 L749.5 792.0 L749.0 791.5 L748.0 791.5 L747.5 791.0 L747.0 790.5 L746.0 790.5 L745.5 790.0 L745.0 789.5 L744.0 789.5 L743.5 789.0 L743.0 788.5 L742.0 788.5 L741.5 788.0 L741.0 787.5 L740.0 787.5 L739.5 787.0 L739.0 786.5 L738.0 786.5 L737.5 786.0 L737.0 785.5 L736.0 785.5 L735.5 785.0 L735.0 784.5 L734.0 784.5 L733.0 784.5 L732.5 784.0 L732.0 783.5 L731.5 783.0 L731.0 782.5 L730.0 782.5 L729.5 782.0 L729.0 781.5 L728.0 781.5 L727.0 781.5 L726.5 781.0 L726.0 780.5 L725.5 780.0 L725.0 779.5 L724.0 779.5 L723.5 779.0 L723.0 778.5 L722.0 778.5 L721.5 778.0 L721.0 777.5 L720.0 777.5 L719.5 777.0 L719.0 776.5 L718.0 776.5 L717.5 776.0 L717.0 775.5 L716.5 775.0 L716.0 774.5 L715.0 774.5 L714.5 774.0 L714.0 773.5 L713.5 773.0 L713.0 772.5 L712.0 772.5 L711.0 772.5 L710.5 772.0 L710.0 771.5 L709.0 771.5 L708.0 771.5 L707.5 771.0 L707.0 770.5 L706.0 770.5 L705.5 770.0 L705.0 769.5 L704.5 769.0 L704.0 768.5 L703.0 768.5 L702.5 768.0 L702.0 767.5 L701.0 767.5 L700.5 767.0 L700.0 766.5 L699.0 766.5 L698.5 766.0 L698.0 765.5 L697.0 765.5 L696.5 765.0 L696.0 764.5 L695.0 764.5 L694.0 764.5 L693.5 764.0 L693.0 763.5 L692.5 763.0 L692.0 762.5 L691.0 762.5 L690.5 762.0 L690.0 761.5 L689.0 761.5 L688.0 761.5 L687.5 761.0 L687.0 760.5 L686.5 760.0 L686.0 759.5 L685.0 759.5 L684.5 759.0 L684.0 758.5 L683.0 758.5 L682.0 758.5 L681.5 758.0 L681.0 757.5 L680.0 757.5 L679.5 757.0 L679.0 756.5 L678.0 756.5 L677.5 756.0 L677.0 755.5 L676.0 755.5 L675.0 755.5 L674.5 755.0 L674.0 754.5 L673.0 754.5 L672.0 754.5 L671.5 754.0 L671.0 753.5 L670.0 753.5 L669.5 753.0 L669.0 752.5 L668.0 752.5 L667.0 752.5 L666.0 752.5 L665.5 752.0 L665.0 751.5 L664.0 751.5 L663.0 751.5 L662.0 751.5 L661.0 751.5 L660.5 751.0 L660.0 750.5 L659.0 750.5 L658.0 750.5 L657.5 750.0 L657.0 749.5 L656.0 749.5 L655.0 749.5 L654.0 749.5 L653.0 749.5 L652.5 749.0 L652.0 748.5 L651.0 748.5 L650.0 748.5 L649.0 748.5 L648.0 748.5 L647.0 748.5 L646.0 748.5 L645.0 748.5 L644.0 748.5 L643.5 748.0 L643.0 747.5 L642.0 747.5 L641.0 747.5 L640.0 747.5 L639.0 747.5 L638.0 747.5 L637.0 747.5 L636.0 747.5 L635.0 747.5 L634.0 747.5 L633.0 747.5 L632.0 747.5 L631.0 747.5 L630.0 747.5 L629.0 747.5 L628.0 747.5 L627.0 747.5 L626.0 747.5 L625.0 747.5 L624.0 747.5 L623.5 747.0 L623.0 746.5 L622.0 746.5 L621.0 746.5 L620.0 746.5 L619.0 746.5 L618.0 746.5 L617.5 746.0 L617.0 745.5 L616.0 745.5 L615.0 745.5 L614.0 745.5 L613.0 745.5 L612.0 745.5 L611.0 745.5 L610.5 745.0 L610.0 744.5 L609.0 744.5 L608.0 744.5 L607.0 744.5 L606.0 744.5 L605.0 744.5 L604.0 744.5 L603.0 744.5 L602.5 744.0 L602.0 743.5 L601.0 743.5 L600.0 743.5 L599.0 743.5 L598.5 743.0 L598.0 742.5 L597.0 742.5 L596.0 742.5 L595.0 742.5 L594.0 742.5 L593.5 742.0 L593.0 741.5 L592.0 741.5 L591.0 741.5 L590.0 741.5 L589.0 741.5 L588.0 741.5 L587.5 741.0 L587.0 740.5 L586.0 740.5 L585.0 740.5 L584.5 740.0 L584.0 739.5 L583.0 739.5 L582.0 739.5 L581.0 739.5 L580.0 739.5 L579.0 739.5 L578.0 739.5 L577.5 739.0 L577.0 738.5 L576.0 738.5 L575.0 738.5 L574.0 738.5 L573.0 738.5 L572.0 738.5 L571.0 738.5 L570.0 738.5 L569.0 738.5 L568.5 738.0 L568.0 737.5 L567.0 737.5 L566.0 737.5 L565.0 737.5 L564.0 737.5 L563.5 737.0 L563.0 736.5 L562.0 736.5 L561.0 736.5 L560.0 736.5 L559.0 736.5 L558.5 736.0 L558.0 735.5 L557.0 735.5 L556.0 735.5 L555.0 735.5 L554.0 735.5 L553.0 735.5 L552.5 735.0 L552.0 734.5 L551.0 734.5 L550.0 734.5 L549.0 734.5 L548.0 734.5 L547.0 734.5 L546.0 734.5 L545.0 734.5 L544.0 734.5 L543.0 734.5 L542.0 734.5 L541.0 734.5 L540.0 734.5 L539.0 734.5 L538.0 734.5 L537.5 735.0 L537.0 735.5 L536.0 735.5 L535.0 735.5 L534.0 735.5 L533.5 736.0 L533.0 736.5 L532.0 736.5 L531.5 737.0 L531.0 737.5 L530.0 737.5 L529.5 738.0 L529.0 738.5 L528.0 738.5 L527.0 738.5 L526.5 739.0 L526.0 739.5 L525.5 740.0 L525.0 740.5 L524.5 741.0 L524.0 741.5 L523.5 742.0 L523.0 742.5 L522.5 743.0 L522.0 743.5 L521.5 744.0 L521.0 744.5 L520.5 745.0 L520.0 745.5 L519.5 746.0 L519.5 747.0 L519.0 747.5 L518.5 748.0 L518.5 749.0 L518.5 750.0 L518.0 750.5 L517.5 751.0 L517.5 752.0 L517.5 753.0 L517.0 753.5 L516.5 754.0 L516.5 755.0 L516.0 755.5 L515.5 756.0 L515.5 757.0 L515.0 757.5 L514.5 758.0 L514.5 759.0 L514.5 760.0 L514.0 760.5 L513.5 761.0 L513.5 762.0 L513.0 762.5 L512.5 763.0 L512.5 764.0 L512.5 765.0 L512.5 766.0 L512.0 766.5 L511.5 767.0 L511.5 768.0 L511.5 769.0 L511.5 770.0 L511.5 771.0 L511.0 771.5 L510.5 772.0 L510.5 773.0 L510.5 774.0 L510.0 774.5 L509.5 775.0 L509.5 776.0 L509.5 777.0 L509.0 777.5 L508.5 778.0 L508.5 779.0 L508.5 780.0 L508.5 781.0 L508.5 782.0 L508.0 782.5 L507.5 783.0 L507.5 784.0 L507.5 785.0 L507.0 785.5 L506.5 786.0 L506.5 787.0 L506.5 788.0 L506.0 788.5 L505.5 789.0 L505.5 790.0 L505.5 791.0 L505.0 791.5 L504.5 792.0 L504.5 793.0 L504.0 793.5 L503.5 794.0 L503.5 795.0 L503.0 795.5 L502.5 796.0 L502.5 797.0 L502.0 797.5 L501.5 798.0 L501.5 799.0 L501.0 799.5 L500.5 800.0 L500.0 800.5 L499.5 801.0 L499.5 802.0 L499.0 802.5 L498.5 803.0 L498.0 803.5 L497.5 804.0 L497.0 804.5 L496.5 805.0 L496.0 805.5 L495.5 806.0 L495.0 806.5 L494.5 807.0 L494.0 807.5 L493.5 808.0 L493.0 808.5 L492.5 809.0 L492.0 809.5 L491.5 810.0 L491.0 810.5 L490.5 811.0 L490.0 811.5 L489.5 812.0 L489.0 812.5 L488.5 813.0 L488.0 813.5 L487.5 814.0 L487.0 814.5 L486.5 815.0 L486.0 815.5 L485.5 816.0 L485.5 817.0 L485.0 817.5 L484.5 818.0 L484.0 818.5 L483.5 819.0 L483.0 819.5 L482.5 820.0 L482.0 820.5 L481.5 821.0 L481.0 821.5 L480.5 822.0 L480.0 822.5 L479.5 823.0 L479.0 823.5 L478.5 824.0 L478.0 824.5 L477.5 825.0 L477.0 825.5 L476.5 826.0 L476.0 826.5 L475.5 827.0 L475.0 827.5 L474.5 828.0 L474.5 829.0 L474.0 829.5 L473.5 830.0 L473.0 830.5 L472.5 831.0 L472.0 831.5 L471.5 832.0 L471.0 832.5 L470.5 833.0 L470.0 833.5 L469.5 834.0 L469.5 835.0 L469.0 835.5 L468.5 836.0 L468.0 836.5 L467.0 836.5 L466.5 837.0 L466.0 837.5 L465.5 838.0 L465.5 839.0 L465.0 839.5 L464.5 840.0 L464.0 840.5 L463.5 841.0 L463.0 841.5 L462.5 842.0 L462.0 842.5 L461.5 843.0 L461.0 843.5 L460.5 844.0 L460.5 845.0 L460.0 845.5 L459.5 846.0 L459.0 846.5 L458.5 847.0 L458.0 847.5 L457.5 848.0 L457.0 848.5 L456.5 849.0 L456.0 849.5 L455.5 850.0 L455.5 851.0 L455.0 851.5 L454.5 852.0 L454.0 852.5 L453.5 853.0 L453.5 854.0 L453.0 854.5 L452.5 855.0 L452.5 856.0 L452.0 856.5 L451.5 857.0 L451.0 857.5 L450.5 858.0 L450.0 858.5 L449.5 859.0 L449.5 860.0 L449.0 860.5 L448.5 861.0 L448.0 861.5 L447.5 862.0 L447.0 862.5 L446.5 863.0 L446.5 864.0 L446.0 864.5 L445.5 865.0 L445.0 865.5 L444.5 866.0 L444.0 866.5 L443.5 867.0 L443.0 867.5 L442.5 868.0 L442.5 869.0 L442.0 869.5 L441.5 870.0 L441.0 870.5 L440.5 871.0 L440.0 871.5 L439.5 872.0 L439.5 873.0 L439.0 873.5 L438.5 874.0 L438.0 874.5 L437.5 875.0 L437.0 875.5 L436.5 876.0 L436.0 876.5 L435.5 877.0 L435.5 878.0 L435.0 878.5 L434.5 879.0 L434.5 880.0 L434.0 880.5 L433.5 881.0 L433.5 882.0 L433.0 882.5 L432.5 883.0 L432.5 884.0 L432.0 884.5 L431.5 885.0 L431.0 885.5 L430.5 886.0 L430.5 887.0 L430.0 887.5 L429.5 888.0 L429.5 889.0 L429.0 889.5 L428.5 890.0 L428.5 891.0 L428.0 891.5 L427.5 892.0 L427.5 893.0 L427.0 893.5 L426.5 894.0 L426.5 895.0 L426.0 895.5 L425.5 896.0 L425.5 897.0 L425.0 897.5 L424.5 898.0 L424.5 899.0 L424.5 900.0 L424.0 900.5 L423.5 901.0 L423.5 902.0 L423.0 902.5 L422.5 903.0 L422.5 904.0 L422.0 904.5 L421.5 905.0 L422.0 905.5 L423.0 905.5 L424.0 905.5 L425.0 905.5 L426.0 905.5 L427.0 905.5 L428.0 905.5 L429.0 905.5 L430.0 905.5 L431.0 905.5 L432.0 905.5 L433.0 905.5 L434.0 905.5 L435.0 905.5 L436.0 905.5 L437.0 905.5 L438.0 905.5 L439.0 905.5 L440.0 905.5 L441.0 905.5 L442.0 905.5 L443.0 905.5 L444.0 905.5 L445.0 905.5 L446.0 905.5 L447.0 905.5 L448.0 905.5 L449.0 905.5 L450.0 905.5 L451.0 905.5 L452.0 905.5 L453.0 905.5 L454.0 905.5 L455.0 905.5 L456.0 905.5 L457.0 905.5 L458.0 905.5 L459.0 905.5 L460.0 905.5 L461.0 905.5 L462.0 905.5 L463.0 905.5 L464.0 905.5 L465.0 905.5 L466.0 905.5 L467.0 905.5 L468.0 905.5 L469.0 905.5 L470.0 905.5 L471.0 905.5 L472.0 905.5 L473.0 905.5 L474.0 905.5 L475.0 905.5 L476.0 905.5 L477.0 905.5 L478.0 905.5 L479.0 905.5 L480.0 905.5 L481.0 905.5 L482.0 905.5 L483.0 905.5 L484.0 905.5 L485.0 905.5 L486.0 905.5 L487.0 905.5 L488.0 905.5 L489.0 905.5 L490.0 905.5 L491.0 905.5 L492.0 905.5 L493.0 905.5 L494.0 905.5 L495.0 905.5 L496.0 905.5 L497.0 905.5 L498.0 905.5 L499.0 905.5 L500.0 905.5 L501.0 905.5 L502.0 905.5 L503.0 905.5 L504.0 905.5 L505.0 905.5 L506.0 905.5 L507.0 905.5 L508.0 905.5 L509.0 905.5 L510.0 905.5 L511.0 905.5 L512.0 905.5 L513.0 905.5 L514.0 905.5 L515.0 905.5 L516.0 905.5 L517.0 905.5 L518.0 905.5 L519.0 905.5 L520.0 905.5 L521.0 905.5 L522.0 905.5 L523.0 905.5 L524.0 905.5 L525.0 905.5 L526.0 905.5 L527.0 905.5 L528.0 905.5 L529.0 905.5 L530.0 905.5 L531.0 905.5 L532.0 905.5 L533.0 905.5 L534.0 905.5 L535.0 905.5 L536.0 905.5 L537.0 905.5 L538.0 905.5 L539.0 905.5 L540.0 905.5 L541.0 905.5 L542.0 905.5 L543.0 905.5 L544.0 905.5 L545.0 905.5 L546.0 905.5 L547.0 905.5 L548.0 905.5 L549.0 905.5 L550.0 905.5 L551.0 905.5 L552.0 905.5 L553.0 905.5 L554.0 905.5 L555.0 905.5 L555.5 906.0 L556.0 906.5 L556.5 907.0 L556.5 908.0 L556.5 909.0 L556.5 910.0 L556.5 911.0 L556.5 912.0 L556.5 913.0 L556.5 914.0 L556.5 915.0 L556.5 916.0 L556.5 917.0 L556.5 918.0 L556.5 919.0 L556.5 920.0 L556.5 921.0 L556.5 922.0 L556.5 923.0 L556.5 924.0 L556.5 925.0 L556.5 926.0 L556.5 927.0 L556.5 928.0 L556.5 929.0 L556.5 930.0 L556.5 931.0 L556.5 932.0 L556.5 933.0 L556.5 934.0 L556.5 935.0 L556.5 936.0 L556.5 937.0 L556.5 938.0 L556.5 939.0 L556.5 940.0 L556.5 941.0 L556.5 942.0 L556.5 943.0 L556.5 944.0 L556.5 945.0 L556.5 946.0 L556.5 947.0 L556.0 947.5 L555.5 948.0 L555.0 948.5 L554.0 948.5 L553.0 948.5 L552.0 948.5 L551.0 948.5 L550.0 948.5 L549.0 948.5 L548.0 948.5 L547.0 948.5 L546.0 948.5 L545.0 948.5 L544.0 948.5 L543.0 948.5 L542.0 948.5 L541.0 948.5 L540.0 948.5 L539.0 948.5 L538.0 948.5 L537.0 948.5 L536.0 948.5 L535.0 948.5 L534.0 948.5 L533.0 948.5 L532.0 948.5 L531.0 948.5 L530.0 948.5 L529.0 948.5 L528.0 948.5 L527.0 948.5 L526.0 948.5 L525.0 948.5 L524.0 948.5 L523.0 948.5 L522.0 948.5 L521.0 948.5 L520.0 948.5 L519.0 948.5 L518.0 948.5 L517.0 948.5 L516.0 948.5 L515.0 948.5 L514.0 948.5 L513.0 948.5 L512.0 948.5 L511.0 948.5 L510.0 948.5 L509.0 948.5 L508.0 948.5 L507.0 948.5 L506.0 948.5 L505.0 948.5 L504.0 948.5 L503.0 948.5 L502.0 948.5 L501.0 948.5 L500.0 948.5 L499.0 948.5 L498.0 948.5 L497.0 948.5 L496.0 948.5 L495.0 948.5 L494.0 948.5 L493.0 948.5 L492.0 948.5 L491.0 948.5 L490.0 948.5 L489.0 948.5 L488.0 948.5 L487.0 948.5 L486.0 948.5 L485.0 948.5 L484.0 948.5 L483.0 948.5 L482.0 948.5 L481.0 948.5 L480.0 948.5 L479.0 948.5 L478.0 948.5 L477.0 948.5 L476.0 948.5 L475.0 948.5 L474.0 948.5 L473.0 948.5 L472.0 948.5 L471.0 948.5 L470.0 948.5 L469.0 948.5 L468.0 948.5 L467.0 948.5 L466.0 948.5 L465.0 948.5 L464.0 948.5 L463.0 948.5 L462.0 948.5 L461.0 948.5 L460.0 948.5 L459.0 948.5 L458.0 948.5 L457.0 948.5 L456.0 948.5 L455.0 948.5 L454.0 948.5 L453.0 948.5 L452.0 948.5 L451.0 948.5 L450.0 948.5 L449.0 948.5 L448.0 948.5 L447.0 948.5 L446.0 948.5 L445.0 948.5 L444.0 948.5 L443.0 948.5 L442.0 948.5 L441.0 948.5 L440.0 948.5 L439.0 948.5 L438.0 948.5 L437.0 948.5 L436.0 948.5 L435.0 948.5 L434.0 948.5 L433.0 948.5 L432.0 948.5 L431.0 948.5 L430.0 948.5 L429.0 948.5 L428.0 948.5 L427.0 948.5 L426.0 948.5 L425.0 948.5 L424.0 948.5 L423.0 948.5 L422.0 948.5 L421.0 948.5 L420.0 948.5 L419.0 948.5 L418.0 948.5 L417.0 948.5 L416.0 948.5 L415.0 948.5 L414.0 948.5 L413.0 948.5 L412.0 948.5 L411.0 948.5 L410.0 948.5 L409.0 948.5 L408.0 948.5 L407.0 948.5 L406.0 948.5 L405.0 948.5 L404.0 948.5 L403.0 948.5 L402.0 948.5 L401.0 948.5 L400.0 948.5 L399.0 948.5 L398.0 948.5 L397.0 948.5 L396.0 948.5 L395.0 948.5 L394.0 948.5 L393.0 948.5 L392.0 948.5 L391.0 948.5 L390.0 948.5 L389.0 948.5 L388.0 948.5 L387.0 948.5 L386.0 948.5 L385.0 948.5 L384.0 948.5 L383.0 948.5 L382.0 948.5 L381.0 948.5 L380.0 948.5 L379.0 948.5 L378.0 948.5 L377.0 948.5 L376.0 948.5 L375.0 948.5 L374.0 948.5 L373.0 948.5 L372.0 948.5 L371.0 948.5 L370.0 948.5 L369.0 948.5 L368.0 948.5 L367.0 948.5 L366.0 948.5 L365.0 948.5 L364.0 948.5 L363.0 948.5 L362.0 948.5 L361.0 948.5 L360.0 948.5 L359.0 948.5 L358.0 948.5 L357.0 948.5 L356.0 948.5 L355.0 948.5 L354.0 948.5 L353.0 948.5 L352.0 948.5 L351.0 948.5 L350.0 948.5 L349.0 948.5 L348.0 948.5 L347.0 948.5 L346.0 948.5 L345.0 948.5 L344.0 948.5 L343.0 948.5 L342.0 948.5 L341.0 948.5 L340.0 948.5 L339.0 948.5 L338.0 948.5 L337.0 948.5 L336.0 948.5 L335.0 948.5 L334.0 948.5 L333.0 948.5 L332.0 948.5 L331.0 948.5 L330.0 948.5 L329.0 948.5 L328.0 948.5 L327.0 948.5 L326.0 948.5 L325.0 948.5 L324.0 948.5 L323.0 948.5 L322.0 948.5 L321.0 948.5 L320.0 948.5 L319.0 948.5 L318.0 948.5 L317.0 948.5 L316.0 948.5 L315.0 948.5 L314.0 948.5 L313.0 948.5 L312.0 948.5 L311.0 948.5 L310.0 948.5 L309.0 948.5 L308.0 948.5 L307.0 948.5 L306.0 948.5 L305.0 948.5 L304.0 948.5 L303.0 948.5 L302.0 948.5 L301.0 948.5 L300.0 948.5 L299.0 948.5 L298.0 948.5 L297.0 948.5 L296.0 948.5 L295.0 948.5 L294.0 948.5 L293.0 948.5 L292.0 948.5 L291.0 948.5 L290.0 948.5 L289.0 948.5 L288.0 948.5 L287.0 948.5 L286.0 948.5 L285.0 948.5 L284.0 948.5 L283.0 948.5 L282.0 948.5 L281.0 948.5 L280.0 948.5 L279.0 948.5 L278.0 948.5 L277.0 948.5 L276.0 948.5 L275.0 948.5 L274.0 948.5 L273.0 948.5 L272.0 948.5 L271.0 948.5 L270.0 948.5 L269.0 948.5 L268.0 948.5 L267.0 948.5 L266.0 948.5 L265.0 948.5 L264.0 948.5 L263.0 948.5 L262.0 948.5 L261.0 948.5 L260.0 948.5 L259.0 948.5 L258.0 948.5 L257.0 948.5 L256.0 948.5 L255.0 948.5 L254.0 948.5 L253.0 948.5 L252.0 948.5 L251.0 948.5 L250.0 948.5 L249.0 948.5 L248.0 948.5 L247.0 948.5 L246.0 948.5 L245.0 948.5 L244.0 948.5 L243.0 948.5 L242.0 948.5 L241.0 948.5 L240.0 948.5 L239.0 948.5 L238.0 948.5 L237.0 948.5 L236.0 948.5 L235.0 948.5 L234.0 948.5 L233.0 948.5 L232.0 948.5 L231.0 948.5 L230.0 948.5 L229.0 948.5 L228.0 948.5 L227.0 948.5 L226.0 948.5 L225.0 948.5 L224.0 948.5 L223.0 948.5 L222.0 948.5 L221.0 948.5 L220.0 948.5 L219.5 948.0 L219.0 947.5 L218.5 947.0 L218.5 946.0 L218.5 945.0 L218.5 944.0 L218.5 943.0 L218.5 942.0 L218.5 941.0 L218.5 940.0 L218.5 939.0 L218.5 938.0 L218.5 937.0 L218.5 936.0 L218.5 935.0 L218.5 934.0 L218.5 933.0 L218.5 932.0 L218.5 931.0 L218.5 930.0 L218.5 929.0 L218.5 928.0 L218.5 927.0 L218.5 926.0 L218.5 925.0 L218.5 924.0 L218.5 923.0 L218.5 922.0 L218.5 921.0 L218.5 920.0 L218.5 919.0 L218.5 918.0 L218.5 917.0 L218.5 916.0 L218.5 915.0 L218.5 914.0 L218.5 913.0 L218.5 912.0 L218.5 911.0 L218.5 910.0 L218.5 909.0 L218.5 908.0 L218.5 907.0 L219.0 906.5 L219.5 906.0 L220.0 905.5 L221.0 905.5 L222.0 905.5 L223.0 905.5 L224.0 905.5 L225.0 905.5 L226.0 905.5 L227.0 905.5 L228.0 905.5 L229.0 905.5 L230.0 905.5 L231.0 905.5 L232.0 905.5 L233.0 905.5 L234.0 905.5 L235.0 905.5 L236.0 905.5 L237.0 905.5 L238.0 905.5 L239.0 905.5 L240.0 905.5 L241.0 905.5 L242.0 905.5 L243.0 905.5 L244.0 905.5 L245.0 905.5 L246.0 905.5 L247.0 905.5 L248.0 905.5 L249.0 905.5 L250.0 905.5 L251.0 905.5 L252.0 905.5 L253.0 905.5 L254.0 905.5 L255.0 905.5 L256.0 905.5 L257.0 905.5 L258.0 905.5 L259.0 905.5 L260.0 905.5 L261.0 905.5 L262.0 905.5 L263.0 905.5 L264.0 905.5 L265.0 905.5 L266.0 905.5 L267.0 905.5 L268.0 905.5 L269.0 905.5 L270.0 905.5 L271.0 905.5 L272.0 905.5 L273.0 905.5 L274.0 905.5 L275.0 905.5 L276.0 905.5 L277.0 905.5 L278.0 905.5 L279.0 905.5 L280.0 905.5 L281.0 905.5 L282.0 905.5 L283.0 905.5 L284.0 905.5 L285.0 905.5 L286.0 905.5 L287.0 905.5 L288.0 905.5 L289.0 905.5 L290.0 905.5 L291.0 905.5 L292.0 905.5 L293.0 905.5 L294.0 905.5 L295.0 905.5 L296.0 905.5 L297.0 905.5 L298.0 905.5 L299.0 905.5 L300.0 905.5 L301.0 905.5 L302.0 905.5 L303.0 905.5 L304.0 905.5 L305.0 905.5 L306.0 905.5 L307.0 905.5 L308.0 905.5 L309.0 905.5 L310.0 905.5 L311.0 905.5 L312.0 905.5 L313.0 905.5 L314.0 905.5 L315.0 905.5 L316.0 905.5 L317.0 905.5 L318.0 905.5 L319.0 905.5 L320.0 905.5 L321.0 905.5 L322.0 905.5 L323.0 905.5 L324.0 905.5 L325.0 905.5 L326.0 905.5 L327.0 905.5 L328.0 905.5 L329.0 905.5 L330.0 905.5 L331.0 905.5 L332.0 905.5 L333.0 905.5 L334.0 905.5 L335.0 905.5 L335.5 905.0 L336.0 904.5 L336.5 904.0 L337.0 903.5 L337.5 903.0 L337.5 902.0 L338.0 901.5 L338.5 901.0 L339.0 900.5 L339.5 900.0 L340.0 899.5 L340.5 899.0 L341.0 898.5 L341.5 898.0 L342.0 897.5 L342.5 897.0 L343.0 896.5 L343.5 896.0 L344.0 895.5 L344.5 895.0 L344.5 894.0 L345.0 893.5 L345.5 893.0 L346.0 892.5 L346.5 892.0 L347.0 891.5 L347.5 891.0 L348.0 890.5 L348.5 890.0 L349.0 889.5 L349.5 889.0 L349.5 888.0 L350.0 887.5 L350.5 887.0 L351.0 886.5 L351.5 886.0 L352.0 885.5 L352.5 885.0 L352.5 884.0 L353.0 883.5 L353.5 883.0 L354.0 882.5 L354.5 882.0 L354.5 881.0 L355.0 880.5 L355.5 880.0 L356.0 879.5 L356.5 879.0 L356.5 878.0 L357.0 877.5 L357.5 877.0 L358.0 876.5 L358.5 876.0 L359.0 875.5 L359.5 875.0 L360.0 874.5 L360.5 874.0 L361.0 873.5 L361.5 873.0 L361.5 872.0 L362.0 871.5 L362.5 871.0 L363.0 870.5 L363.5 870.0 L364.0 869.5 L364.5 869.0 L365.0 868.5 L365.5 868.0 L366.0 867.5 L366.5 867.0 L367.0 866.5 L367.5 866.0 L368.0 865.5 L368.5 865.0 L369.0 864.5 L369.5 864.0 L369.5 863.0 L370.0 862.5 L370.5 862.0 L371.0 861.5 L371.5 861.0 L372.0 860.5 L372.5 860.0 L373.0 859.5 L373.5 859.0 L373.5 858.0 L374.0 857.5 L374.5 857.0 L375.0 856.5 L375.5 856.0 L375.5 855.0 L376.0 854.5 L376.5 854.0 L377.0 853.5 L377.5 853.0 L378.0 852.5 L378.5 852.0 L379.0 851.5 L379.5 851.0 L380.0 850.5 L380.5 850.0 L380.5 849.0 L381.0 848.5 L381.5 848.0 L382.0 847.5 L382.5 847.0 L383.0 846.5 L383.5 846.0 L384.0 845.5 L384.5 845.0 L384.5 844.0 L385.0 843.5 L385.5 843.0 L385.5 842.0 L386.0 841.5 L386.5 841.0 L387.0 840.5 L387.5 840.0 L387.5 839.0 L388.0 838.5 L388.5 838.0 L389.0 837.5 L389.5 837.0 L390.0 836.5 L390.5 836.0 L391.0 835.5 L391.5 835.0 L391.5 834.0 L392.0 833.5 L392.5 833.0 L393.0 832.5 L393.5 832.0 L393.5 831.0 L394.0 830.5 L394.5 830.0 L394.5 829.0 L395.0 828.5 L395.5 828.0 L395.5 827.0 L395.5 826.0 L396.0 825.5 L396.5 825.0 L396.5 824.0 L396.5 823.0 L397.0 822.5 L397.5 822.0 L397.5 821.0 L397.5 820.0 L397.5 819.0 L397.5 818.0 L397.5 817.0 L397.5 816.0 L397.5 815.0 L397.5 814.0 L397.5 813.0 L397.5 812.0 L397.5 811.0 L397.0 810.5 L396.5 810.0 L396.5 809.0 L396.5 808.0 L396.5 807.0 L396.0 806.5 L395.5 806.0 L395.5 805.0 L395.5 804.0 L395.0 803.5 L394.5 803.0 L394.5 802.0 L394.5 801.0 L394.5 800.0 L394.0 799.5 L393.5 799.0 L393.5 798.0 L393.0 797.5 L392.5 797.0 L392.5 796.0 L392.0 795.5 L391.5 795.0 L391.5 794.0 L391.0 793.5 L390.5 793.0 L390.0 792.5 L389.5 792.0 L389.5 791.0 L389.0 790.5 L388.5 790.0 L388.0 789.5 L387.5 789.0 L387.5 788.0 L387.0 787.5 L386.5 787.0 L386.5 786.0 L386.0 785.5 L385.5 785.0 L385.0 784.5 L384.5 784.0 L384.0 783.5 L383.5 783.0 L383.0 782.5 L382.5 782.0 L382.0 781.5 L381.0 781.5 L380.5 781.0 L380.0 780.5 L379.5 780.0 L379.0 779.5 L378.0 779.5 L377.5 779.0 L377.0 778.5 L376.5 778.0 L376.0 777.5 L375.0 777.5 L374.5 777.0 L374.0 776.5 L373.0 776.5 L372.5 776.0 L372.0 775.5 L371.5 775.0 L371.0 774.5 L370.0 774.5 L369.0 774.5 L368.5 774.0 L368.0 773.5 L367.5 773.0 L367.0 772.5 L366.0 772.5 L365.0 772.5 L364.5 772.0 L364.0 771.5 L363.0 771.5 L362.5 771.0 L362.0 770.5 L361.0 770.5 L360.5 770.0 L360.0 769.5 L359.0 769.5 L358.5 769.0 L358.0 768.5 L357.0 768.5 L356.5 768.0 L356.0 767.5 L355.0 767.5 L354.5 767.0 L354.0 766.5 L353.0 766.5 L352.5 766.0 L352.0 765.5 L351.5 765.0 L351.0 764.5 L350.0 764.5 L349.5 764.0 L349.0 763.5 L348.5 763.0 L348.0 762.5 L347.0 762.5 L346.0 762.5 L345.5 762.0 L345.0 761.5 L344.0 761.5 L343.5 761.0 L343.0 760.5 L342.0 760.5 L341.5 760.0 L341.0 759.5 L340.0 759.5 L339.5 759.0 L339.0 758.5 L338.0 758.5 L337.5 758.0 L337.0 757.5 L336.5 757.0 L336.0 756.5 L335.0 756.5 L334.5 756.0 L334.0 755.5 L333.0 755.5 L332.5 755.0 L332.0 754.5 L331.0 754.5 L330.5 754.0 L330.0 753.5 L329.5 753.0 L329.0 752.5 L328.0 752.5 L327.5 752.0 L327.0 751.5 L326.0 751.5 L325.0 751.5 L324.5 751.0 L324.0 750.5 L323.5 750.0 L323.0 749.5 L322.5 749.0 L322.0 748.5 L321.0 748.5 L320.5 748.0 L320.0 747.5 L319.0 747.5 L318.5 747.0 L318.0 746.5 L317.5 746.0 L317.0 745.5 L316.0 745.5 L315.5 745.0 L315.0 744.5 L314.0 744.5 L313.5 744.0 L313.0 743.5 L312.0 743.5 L311.5 743.0 L311.0 742.5 L310.5 742.0 L310.0 741.5 L309.0 741.5 L308.5 741.0 L308.0 740.5 L307.0 740.5 L306.5 740.0 L306.0 739.5 L305.0 739.5 L304.5 739.0 L304.0 738.5 L303.0 738.5 L302.5 738.0 L302.0 737.5 L301.0 737.5 L300.5 737.0 L300.0 736.5 L299.5 736.0 L299.0 735.5 L298.0 735.5 L297.5 735.0 L297.0 734.5 L296.0 734.5 L295.5 734.0 L295.0 733.5 L294.5 733.0 L294.0 732.5 L293.0 732.5 L292.5 732.0 L292.0 731.5 L291.5 731.0 L291.0 730.5 L290.0 730.5 L289.5 730.0 L289.0 729.5 L288.5 729.0 L288.0 728.5 L287.5 728.0 L287.0 727.5 L286.5 727.0 L286.0 726.5 L285.0 726.5 L284.5 726.0 L284.0 725.5 L283.5 725.0 L283.0 724.5 L282.5 724.0 L282.0 723.5 L281.0 723.5 L280.5 723.0 L280.0 722.5 L279.5 722.0 L279.0 721.5 L278.0 721.5 L277.5 721.0 L277.0 720.5 L276.5 720.0 L276.0 719.5 L275.5 719.0 L275.0 718.5 L274.5 718.0 L274.0 717.5 L273.0 717.5 L272.5 717.0 L272.0 716.5 L271.5 716.0 L271.0 715.5 L270.5 715.0 L270.0 714.5 L269.0 714.5 L268.5 714.0 L268.0 713.5 L267.5 713.0 L267.0 712.5 L266.5 712.0 L266.0 711.5 L265.0 711.5 L264.5 711.0 L264.0 710.5 L263.5 710.0 L263.0 709.5 L262.5 709.0 L262.0 708.5 L261.0 708.5 L260.5 708.0 L260.0 707.5 L259.5 707.0 L259.0 706.5 L258.5 706.0 L258.0 705.5 L257.0 705.5 L256.5 705.0 L256.0 704.5 L255.5 704.0 L255.0 703.5 L254.5 703.0 L254.0 702.5 L253.5 702.0 L253.0 701.5 L252.5 701.0 L252.0 700.5 L251.0 700.5 L250.5 700.0 L250.0 699.5 L249.5 699.0 L249.0 698.5 L248.5 698.0 L248.0 697.5 L247.5 697.0 L247.0 696.5 L246.5 696.0 L246.0 695.5 L245.5 695.0 L245.0 694.5 L244.5 694.0 L244.0 693.5 L243.0 693.5 L242.5 693.0 L242.0 692.5 L241.5 692.0 L241.0 691.5 L240.5 691.0 L240.0 690.5 L239.5 690.0 L239.0 689.5 L238.5 689.0 L238.0 688.5 L237.5 688.0 L237.0 687.5 L236.5 687.0 L236.0 686.5 L235.5 686.0 L235.0 685.5 L234.5 685.0 L234.0 684.5 L233.0 684.5 L232.5 684.0 L232.0 683.5 L231.5 683.0 L231.0 682.5 L230.5 682.0 L230.0 681.5 L229.5 681.0 L229.0 680.5 L228.5 680.0 L228.0 679.5 L227.5 679.0 L227.0 678.5 L226.5 678.0 L226.0 677.5 L225.5 677.0 L225.0 676.5 L224.5 676.0 L224.0 675.5 L223.5 675.0 L223.0 674.5 L222.5 674.0 L222.0 673.5 L221.5 673.0 L221.0 672.5 L220.5 672.0 L220.0 671.5 L219.5 671.0 L219.0 670.5 L218.5 670.0 L218.0 669.5 L217.5 669.0 L217.0 668.5 L216.5 668.0 L216.0 667.5 L215.5 667.0 L215.0 666.5 L214.5 666.0 L214.0 665.5 L213.5 665.0 L213.0 664.5 L212.5 664.0 L212.0 663.5 L211.5 663.0 L211.5 662.0 L211.0 661.5 L210.5 661.0 L210.0 660.5 L209.5 660.0 L209.0 659.5 L208.5 659.0 L208.0 658.5 L207.5 658.0 L207.0 657.5 L206.5 657.0 L206.0 656.5 L205.5 656.0 L205.0 655.5 L204.5 655.0 L204.0 654.5 L203.5 654.0 L203.0 653.5 L202.5 653.0 L202.5 652.0 L202.0 651.5 L201.5 651.0 L201.0 650.5 L200.5 650.0 L200.0 649.5 L199.5 649.0 L199.0 648.5 L198.5 648.0 L198.0 647.5 L197.5 647.0 L197.0 646.5 L196.5 646.0 L196.5 645.0 L196.0 644.5 L195.5 644.0 L195.0 643.5 L194.5 643.0 L194.0 642.5 L193.5 642.0 L193.0 641.5 L192.5 641.0 L192.0 640.5 L191.5 640.0 L191.0 639.5 L190.5 639.0 L190.0 638.5 L189.5 638.0 L189.5 637.0 L189.0 636.5 L188.5 636.0 L188.0 635.5 L187.5 635.0 L187.5 634.0 L187.0 633.5 L186.5 633.0 L186.0 632.5 L185.5 632.0 L185.0 631.5 L184.5 631.0 L184.5 630.0 L184.0 629.5 L183.5 629.0 L183.0 628.5 L182.5 628.0 L182.0 627.5 L181.5 627.0 L181.5 626.0 L181.0 625.5 L180.5 625.0 L180.0 624.5 L179.5 624.0 L179.0 623.5 L178.5 623.0 L178.5 622.0 L178.0 621.5 L177.5 621.0 L177.0 620.5 L176.5 620.0 L176.0 619.5 L175.5 619.0 L175.5 618.0 L175.0 617.5 L174.5 617.0 L174.0 616.5 L173.5 616.0 L173.0 615.5 L172.5 615.0 L172.5 614.0 L172.0 613.5 L171.5 613.0 L171.0 612.5 L170.5 612.0 L170.0 611.5 L169.5 611.0 L169.0 610.5 L168.5 610.0 L168.5 609.0 L168.0 608.5 L167.5 608.0 L167.0 607.5 L166.5 607.0 L166.0 606.5 L165.5 606.0 L165.5 605.0 L165.0 604.5 L164.5 604.0 L164.0 603.5 L163.5 603.0 L163.0 602.5 L162.5 602.0 L162.5 601.0 L162.0 600.5 L161.5 600.0 L161.0 599.5 L160.5 599.0 L160.5 598.0 L160.0 597.5 L159.5 597.0 L159.0 596.5 L158.5 596.0 L158.5 595.0 L158.5 594.0 L158.0 593.5 L157.5 593.0 L157.5 592.0 L157.0 591.5 L156.5 591.0 L156.5 590.0 L156.0 589.5 L155.5 589.0 L155.0 588.5 L154.5 588.0 L154.5 587.0 L154.0 586.5 L153.5 586.0 L153.0 585.5 L152.5 585.0 L152.5 584.0 L152.0 583.5 L151.5 583.0 L151.5 582.0 L151.0 581.5 L150.5 581.0 L150.0 580.5 L149.5 580.0 L149.5 579.0 L149.0 578.5 L148.5 578.0 L148.0 577.5 L147.5 577.0 L147.5 576.0 L147.0 575.5 L146.5 575.0 L146.0 574.5 L145.5 574.0 L145.5 573.0 L145.0 572.5 L144.5 572.0 L144.5 571.0 L144.0 570.5 L143.5 570.0 L143.0 569.5 L142.5 569.0 L142.5 568.0 L142.0 567.5 L141.5 567.0 L141.5 566.0 L141.0 565.5 L140.5 565.0 L140.0 564.5 L139.5 564.0 L139.5 563.0 L139.0 562.5 L138.5 562.0 L138.5 561.0 L138.0 560.5 L137.5 560.0 L137.0 559.5 L136.5 559.0 L136.5 558.0 L136.0 557.5 L135.5 557.0 L135.5 556.0 L135.0 555.5 L134.5 555.0 L134.5 554.0 L134.0 553.5 L133.5 553.0 L133.5 552.0 L133.0 551.5 L132.5 551.0 L132.0 550.5 L131.5 550.0 L131.5 549.0 L131.0 548.5 L130.5 548.0 L130.5 547.0 L130.0 546.5 L129.5 546.0 L129.5 545.0 L129.0 544.5 L128.5 544.0 L128.5 543.0 L128.0 542.5 L127.5 542.0 L127.5 541.0 L127.0 540.5 L126.5 540.0 L126.0 539.5 L125.5 539.0 L125.5 538.0 L125.5 537.0 L125.0 536.5 L124.5 536.0 L124.5 535.0 L124.5 534.0 L124.0 533.5 L123.5 533.0 L123.5 532.0 L123.0 531.5 L122.5 531.0 L122.5 530.0 L122.0 529.5 L121.5 529.0 L121.5 528.0 L121.5 527.0 L121.0 526.5 L120.5 526.0 L120.5 525.0 L120.0 524.5 L119.5 524.0 L119.5 523.0 L119.0 522.5 L118.5 522.0 L118.5 521.0 L118.0 520.5 L117.5 520.0 L117.5 519.0 L117.0 518.5 L116.5 518.0 L116.5 517.0 L116.0 516.5 L115.5 516.0 L115.5 515.0 L115.0 514.5 L114.5 514.0 L114.5 513.0 L114.5 512.0 L114.0 511.5 L113.5 511.0 L113.0 510.5 L112.5 510.0 L112.5 509.0 L112.0 508.5 L111.5 508.0 L111.5 507.0 L111.5 506.0 L111.0 505.5 L110.5 505.0 L110.5 504.0 L110.0 503.5 L109.5 503.0 L109.5 502.0 L109.0 501.5 L108.5 501.0 L108.5 500.0 L108.5 499.0 L108.0 498.5 L107.5 498.0 L107.5 497.0 L107.0 496.5 L106.5 496.0 L106.5 495.0 L106.0 494.5 L105.5 494.0 L105.5 493.0 L105.5 492.0 L105.0 491.5 L104.5 491.0 L104.5 490.0 L104.5 489.0 L104.0 488.5 L103.5 488.0 L103.5 487.0 L103.5 486.0 L103.0 485.5 L102.5 485.0 L102.5 484.0 L102.5 483.0 L102.0 482.5 L101.5 482.0 L101.5 481.0 L101.5 480.0 L101.5 479.0 L101.0 478.5 L100.5 478.0 L100.5 477.0 L100.0 476.5 L99.5 476.0 L99.5 475.0 L99.5 474.0 L99.0 473.5 L98.5 473.0 L98.5 472.0 L98.5 471.0 L98.5 470.0 L98.5 469.0 L98.0 468.5 L97.5 468.0 L97.5 467.0 L97.5 466.0 L97.5 465.0 L97.5 464.0 L97.0 463.5 L96.5 463.0 L96.5 462.0 L96.5 461.0 L96.0 460.5 L95.5 460.0 L95.5 459.0 L95.5 458.0 L95.5 457.0 L95.5 456.0 L95.5 455.0 L95.5 454.0 L95.0 453.5 L94.5 453.0 L94.5 452.0 L94.5 451.0 L94.5 450.0 L94.5 449.0 L94.5 448.0 L94.0 447.5 L93.5 447.0 L93.5 446.0 L93.5 445.0 L93.5 444.0 L93.5 443.0 L93.5 442.0 L93.0 441.5 L92.5 441.0 L92.5 440.0 L92.5 439.0 L92.5 438.0 L92.5 437.0 L92.5 436.0 L92.5 435.0 L92.5 434.0 L92.5 433.0 L92.5 432.0 L92.5 431.0 L92.5 430.0 L92.5 429.0 L92.5 428.0 L92.5 427.0 L92.5 426.0 L92.5 425.0 L92.5 424.0 L92.5 423.0 L92.5 422.0 L92.5 421.0 L92.5 420.0 L92.5 419.0 L92.5 418.0 L92.5 417.0 L92.5 416.0 L92.5 415.0 L92.5 414.0 L92.5 413.0 L92.5 412.0 L92.5 411.0 L92.5 410.0 L92.5 409.0 L92.5 408.0 L92.5 407.0 L93.0 406.5 L93.5 406.0 L93.5 405.0 L93.5 404.0 L93.5 403.0 L93.5 402.0 L93.5 401.0 L93.5 400.0 L94.0 399.5 L94.5 399.0 L94.5 398.0 L94.5 397.0 L94.5 396.0 L94.5 395.0 L94.5 394.0 L94.5 393.0 L94.5 392.0 L94.5 391.0 L95.0 390.5 L95.5 390.0 L95.5 389.0 L95.5 388.0 L95.5 387.0 L95.5 386.0 L95.5 385.0 L95.5 384.0 L96.0 383.5 L96.5 383.0 L96.5 382.0 L96.5 381.0 L96.5 380.0 L96.5 379.0 L96.5 378.0 L96.5 377.0 L96.5 376.0 L96.5 375.0 L96.5 374.0 L96.5 373.0 L96.5 372.0 L97.0 371.5 L97.5 371.0 L97.5 370.0 L97.5 369.0 L97.5 368.0 L97.5 367.0 L97.5 366.0 L97.5 365.0 L97.5 364.0 L97.5 363.0 L97.5 362.0 L97.5 361.0 L98.0 360.5 L98.5 360.0 L98.5 359.0 L98.5 358.0 L98.5 357.0 L98.5 356.0 L98.5 355.0 L98.5 354.0 L98.0 353.5 L97.5 353.0 L97.5 352.0 L97.5 351.0 L97.5 350.0 L97.5 349.0 L97.5 348.0 L97.5 347.0 L97.5 346.0 L98.0 345.5 L98.5 345.0 L98.5 344.0 L98.5 343.0 L98.5 342.0 L98.5 341.0 L98.5 340.0 L98.5 339.0 L98.5 338.0 L98.5 337.0 L98.5 336.0 L98.5 335.0 L98.5 334.0 L98.5 333.0 L98.5 332.0 L98.5 331.0 L98.5 330.0 L98.5 329.0 L98.5 328.0 L98.5 327.0 L98.5 326.0 L98.5 325.0 L98.5 324.0 L98.5 323.0 L98.5 322.0 L98.5 321.0 L98.5 320.0 L98.5 319.0 L98.5 318.0 L98.5 317.0 L98.5 316.0 L98.5 315.0 L98.5 314.0 L98.5 313.0 L98.5 312.0 L98.5 311.0 L98.5 310.0 L98.5 309.0 L98.5 308.0 L98.5 307.0 L98.5 306.0 L98.5 305.0 L98.5 304.0 L98.5 303.0 L98.5 302.0 L98.0 301.5 L97.5 301.0 L97.5 300.0 L97.5 299.0 L97.5 298.0 L97.5 297.0 L97.5 296.0 L97.5 295.0 L97.5 294.0 L97.5 293.0 L97.5 292.0 L97.5 291.0 L97.5 290.0 L97.5 289.0 L97.5 288.0 L97.5 287.0 L97.5 286.0 L97.5 285.0 L97.5 284.0 L97.5 283.0 L97.5 282.0 L97.5 281.0 L97.5 280.0 L97.5 279.0 L97.5 278.0 L98.0 277.5 L98.5 277.0 L98.5 276.0 L98.5 275.0 L98.5 274.0 L98.5 273.0 L98.5 272.0 L98.5 271.0 L98.5 270.0 L98.5 269.0 L98.5 268.0 L98.5 267.0 L99.0 266.5 L99.5 266.0 L99.5 265.0 L99.5 264.0 L99.5 263.0 L100.0 262.5 L100.5 262.0 L100.5 261.0 L100.5 260.0 L100.5 259.0 L101.0 258.5 L101.5 258.0 L101.5 257.0 L101.5 256.0 L101.5 255.0 L101.5 254.0 L101.5 253.0 L102.0 252.5 L102.5 252.0 L102.5 251.0 L102.5 250.0 L103.0 249.5 L103.5 249.0 L103.5 248.0 L103.5 247.0 L104.0 246.5 L104.5 246.0 L104.5 245.0 L104.5 244.0 L105.0 243.5 L105.5 243.0 L105.5 242.0 L105.5 241.0 L105.5 240.0 L106.0 239.5 L106.5 239.0 L106.5 238.0 L107.0 237.5 L107.5 237.0 L107.5 236.0 L107.5 235.0 L108.0 234.5 L108.5 234.0 L108.5 233.0 L108.5 232.0 L109.0 231.5 L109.5 231.0 L109.5 230.0 L110.0 229.5 L110.5 229.0 L110.5 228.0 L111.0 227.5 L111.5 227.0 L111.5 226.0 L111.5 225.0 L112.0 224.5 L112.5 224.0 L112.5 223.0 L112.5 222.0 L113.0 221.5 L113.5 221.0 L113.5 220.0 L114.0 219.5 L114.5 219.0 L114.5 218.0 L115.0 217.5 L115.5 217.0 L116.0 216.5 L116.5 216.0 L116.5 215.0 L117.0 214.5 L117.5 214.0 L117.5 213.0 L118.0 212.5 L118.5 212.0 L118.5 211.0 L119.0 210.5 L119.5 210.0 L120.0 209.5 L120.5 209.0 L120.5 208.0 L121.0 207.5 L121.5 207.0 L121.5 206.0 L122.0 205.5 L122.5 205.0 L122.5 204.0 L123.0 203.5 L123.5 203.0 L123.5 202.0 L124.0 201.5 L124.5 201.0 L124.5 200.0 L125.0 199.5 L125.5 199.0 L125.5 198.0 L125.5 197.0 L126.0 196.5 L126.5 196.0 L127.0 195.5 L127.5 195.0 L127.5 194.0 L128.0 193.5 L128.5 193.0 L128.5 192.0 L129.0 191.5 L129.5 191.0 L130.0 190.5 L130.5 190.0 L130.5 189.0 L131.0 188.5 L131.5 188.0 L131.5 187.0 L132.0 186.5 L132.5 186.0 L133.0 185.5 L133.5 185.0 L134.0 184.5 L134.5 184.0 L134.5 183.0 L135.0 182.5 L135.5 182.0 L136.0 181.5 L136.5 181.0 L137.0 180.5 L137.5 180.0 L138.0 179.5 L138.5 179.0 L139.0 178.5 L139.5 178.0 L139.5 177.0 L140.0 176.5 L140.5 176.0 L141.0 175.5 L141.5 175.0 L141.5 174.0 L142.0 173.5 L142.5 173.0 L143.0 172.5 L143.5 172.0 L144.0 171.5 L144.5 171.0 L145.0 170.5 L145.5 170.0 L145.5 169.0 L146.0 168.5 L146.5 168.0 L147.0 167.5 L147.5 167.0 L148.0 166.5 L148.5 166.0 L149.0 165.5 L149.5 165.0 L149.5 164.0 L150.0 163.5 L150.5 163.0 L151.0 162.5 L151.5 162.0 L152.0 161.5 L152.5 161.0 L153.0 160.5 L153.5 160.0 L153.5 159.0 L154.0 158.5 L154.5 158.0 L155.0 157.5 L155.5 157.0 L156.0 156.5 L156.5 156.0 L157.0 155.5 L157.5 155.0 L157.5 154.0 L158.0 153.5 L158.5 153.0 L158.5 152.0 L159.0 151.5 L159.5 151.0 L160.0 150.5 L161.0 150.5 L161.5 150.0 L162.0 149.5 L162.5 149.0 L163.0 148.5 L163.5 148.0 L164.0 147.5 L165.0 147.5 L165.5 147.0 L166.0 146.5 L166.5 146.0 L167.0 145.5 L167.5 145.0 L168.0 144.5 L168.5 144.0 L169.0 143.5 L170.0 143.5 L170.5 143.0 L171.0 142.5 L171.5 142.0 L172.0 141.5 L172.5 141.0 L173.0 140.5 L173.5 140.0 L174.0 139.5 L174.5 139.0 L175.0 138.5 L176.0 138.5 L176.5 138.0 L177.0 137.5 L177.5 137.0 L178.0 136.5 L178.5 136.0 L179.0 135.5 L180.0 135.5 L180.5 135.0 L181.0 134.5 L181.5 134.0 L182.0 133.5 L183.0 133.5 L183.5 133.0 L184.0 132.5 L184.5 132.0 L185.0 131.5 L186.0 131.5 L186.5 131.0 L187.0 130.5 L188.0 130.5 L188.5 130.0 L189.0 129.5 L189.5 129.0 L190.0 128.5 L191.0 128.5 L191.5 128.0 L192.0 127.5 L193.0 127.5 L193.5 127.0 L194.0 126.5 L195.0 126.5 L195.5 126.0 L196.0 125.5 L197.0 125.5 L197.5 125.0 L198.0 124.5 L199.0 124.5 L200.0 124.5 L200.5 124.0 L201.0 123.5 L202.0 123.5 L202.5 123.0 L203.0 122.5 L204.0 122.5 L204.5 122.0 L205.0 121.5 L206.0 121.5 L207.0 121.5 L208.0 121.5 L208.5 121.0 L209.0 120.5 L210.0 120.5 L211.0 120.5 L212.0 120.5 L212.5 120.0 L213.0 119.5 L214.0 119.5 L215.0 119.5 L215.5 119.0 L216.0 118.5 L217.0 118.5 L218.0 118.5 L219.0 118.5 L220.0 118.5 L220.5 118.0 L221.0 117.5 L222.0 117.5 L223.0 117.5 L224.0 117.5 L225.0 117.5 L226.0 117.5 L227.0 117.5 L228.0 117.5 L228.5 117.0 L229.0 116.5 L230.0 116.5 L231.0 116.5 L232.0 116.5 L232.5 116.0 L233.0 115.5 L234.0 115.5 L235.0 115.5 L236.0 115.5 L237.0 115.5 L238.0 115.5 L239.0 115.5 L240.0 115.5 L240.5 115.0 Z M501.0 168.5 L502.0 168.5 L503.0 168.5 L504.0 168.5 L505.0 168.5 L506.0 168.5 L507.0 168.5 L507.5 169.0 L508.0 169.5 L509.0 169.5 L510.0 169.5 L511.0 169.5 L511.5 170.0 L512.0 170.5 L513.0 170.5 L513.5 171.0 L514.0 171.5 L515.0 171.5 L516.0 171.5 L516.5 172.0 L517.0 172.5 L518.0 172.5 L518.5 173.0 L519.0 173.5 L520.0 173.5 L520.5 174.0 L521.0 174.5 L521.5 175.0 L522.0 175.5 L523.0 175.5 L523.5 176.0 L524.0 176.5 L524.5 177.0 L524.5 178.0 L525.0 178.5 L525.5 179.0 L525.0 179.5 L524.0 179.5 L523.5 180.0 L523.0 180.5 L522.0 180.5 L521.0 180.5 L520.0 180.5 L519.0 180.5 L518.0 180.5 L517.0 180.5 L516.0 180.5 L515.0 180.5 L514.0 180.5 L513.0 180.5 L512.0 180.5 L511.5 181.0 L511.0 181.5 L510.0 181.5 L509.0 181.5 L508.5 182.0 L508.0 182.5 L507.0 182.5 L506.0 182.5 L505.5 183.0 L505.0 183.5 L504.0 183.5 L503.0 183.5 L502.5 184.0 L502.0 184.5 L501.0 184.5 L500.0 184.5 L499.5 185.0 L499.0 185.5 L498.5 186.0 L498.0 186.5 L497.0 186.5 L496.5 187.0 L496.0 187.5 L495.0 187.5 L494.0 187.5 L493.5 188.0 L493.0 188.5 L492.0 188.5 L491.0 188.5 L490.0 188.5 L489.0 188.5 L488.0 188.5 L487.0 188.5 L486.0 188.5 L485.0 188.5 L484.0 188.5 L483.0 188.5 L482.5 188.0 L482.0 187.5 L481.0 187.5 L480.0 187.5 L479.5 187.0 L479.0 186.5 L478.0 186.5 L477.0 186.5 L476.0 186.5 L475.5 186.0 L475.0 185.5 L474.5 185.0 L474.5 184.0 L474.5 183.0 L475.0 182.5 L475.5 182.0 L476.0 181.5 L477.0 181.5 L477.5 181.0 L478.0 180.5 L478.5 180.0 L479.0 179.5 L479.5 179.0 L480.0 178.5 L480.5 178.0 L481.0 177.5 L481.5 177.0 L482.0 176.5 L482.5 176.0 L483.0 175.5 L484.0 175.5 L484.5 175.0 L485.0 174.5 L486.0 174.5 L486.5 174.0 L487.0 173.5 L488.0 173.5 L488.5 173.0 L489.0 172.5 L490.0 172.5 L490.5 172.0 L491.0 171.5 L492.0 171.5 L492.5 171.0 L493.0 170.5 L494.0 170.5 L495.0 170.5 L496.0 170.5 L496.5 170.0 L497.0 169.5 L498.0 169.5 L499.0 169.5 L500.0 169.5 L500.5 169.0 Z M539.0 195.5 L540.0 195.5 L541.0 195.5 L542.0 195.5 L543.0 195.5 L544.0 195.5 L544.5 196.0 L545.0 196.5 L546.0 196.5 L547.0 196.5 L548.0 196.5 L548.5 197.0 L549.0 197.5 L550.0 197.5 L551.0 197.5 L552.0 197.5 L552.5 198.0 L553.0 198.5 L554.0 198.5 L554.5 199.0 L555.0 199.5 L556.0 199.5 L557.0 199.5 L557.5 200.0 L558.0 200.5 L559.0 200.5 L559.5 201.0 L560.0 201.5 L561.0 201.5 L561.5 202.0 L562.0 202.5 L563.0 202.5 L563.5 203.0 L564.0 203.5 L564.5 204.0 L565.0 204.5 L566.0 204.5 L566.5 205.0 L567.0 205.5 L568.0 205.5 L568.5 206.0 L569.0 206.5 L569.5 207.0 L570.0 207.5 L570.5 208.0 L571.0 208.5 L572.0 208.5 L572.5 209.0 L573.0 209.5 L574.0 209.5 L574.5 210.0 L575.0 210.5 L575.5 211.0 L576.0 211.5 L576.5 212.0 L577.0 212.5 L577.5 213.0 L578.0 213.5 L578.5 214.0 L579.0 214.5 L579.5 215.0 L580.0 215.5 L580.5 216.0 L581.0 216.5 L581.5 217.0 L582.0 217.5 L583.0 217.5 L583.5 218.0 L584.0 218.5 L584.5 219.0 L585.0 219.5 L585.5 220.0 L586.0 220.5 L586.5 221.0 L587.0 221.5 L588.0 221.5 L588.5 222.0 L589.0 222.5 L589.5 223.0 L590.0 223.5 L590.5 224.0 L591.0 224.5 L592.0 224.5 L592.5 225.0 L593.0 225.5 L593.5 226.0 L594.0 226.5 L594.5 227.0 L595.0 227.5 L596.0 227.5 L596.5 228.0 L597.0 228.5 L597.5 229.0 L598.0 229.5 L598.5 230.0 L599.0 230.5 L600.0 230.5 L600.5 231.0 L601.0 231.5 L601.5 232.0 L602.0 232.5 L602.5 233.0 L603.0 233.5 L603.5 234.0 L604.0 234.5 L605.0 234.5 L605.5 235.0 L606.0 235.5 L606.5 236.0 L606.5 237.0 L607.0 237.5 L607.5 238.0 L608.0 238.5 L608.5 239.0 L609.0 239.5 L609.5 240.0 L609.5 241.0 L609.0 241.5 L608.0 241.5 L607.0 241.5 L606.0 241.5 L605.5 241.0 L605.0 240.5 L604.0 240.5 L603.5 240.0 L603.0 239.5 L602.5 239.0 L602.0 238.5 L601.0 238.5 L600.5 238.0 L600.0 237.5 L599.5 237.0 L599.0 236.5 L598.0 236.5 L597.5 236.0 L597.0 235.5 L596.5 235.0 L596.0 234.5 L595.0 234.5 L594.5 234.0 L594.0 233.5 L593.0 233.5 L592.5 233.0 L592.0 232.5 L591.0 232.5 L590.5 232.0 L590.0 231.5 L589.0 231.5 L588.5 231.0 L588.0 230.5 L587.5 230.0 L587.0 229.5 L586.0 229.5 L585.5 229.0 L585.0 228.5 L584.0 228.5 L583.5 228.0 L583.0 227.5 L582.0 227.5 L581.5 227.0 L581.0 226.5 L580.0 226.5 L579.5 226.0 L579.0 225.5 L578.0 225.5 L577.5 225.0 L577.0 224.5 L576.0 224.5 L575.0 224.5 L574.5 224.0 L574.0 223.5 L573.0 223.5 L572.5 223.0 L572.0 222.5 L571.0 222.5 L570.0 222.5 L569.5 222.0 L569.0 221.5 L568.0 221.5 L567.0 221.5 L566.5 221.0 L566.0 220.5 L565.0 220.5 L564.5 220.0 L564.0 219.5 L563.0 219.5 L562.0 219.5 L561.5 219.0 L561.0 218.5 L560.0 218.5 L559.0 218.5 L558.0 218.5 L557.0 218.5 L556.0 218.5 L555.5 218.0 L555.0 217.5 L554.0 217.5 L553.0 217.5 L552.0 217.5 L551.0 217.5 L550.0 217.5 L549.0 217.5 L548.5 217.0 L548.0 216.5 L547.0 216.5 L546.0 216.5 L545.0 216.5 L544.0 216.5 L543.5 216.0 L543.0 215.5 L542.0 215.5 L541.0 215.5 L540.0 215.5 L539.0 215.5 L538.0 215.5 L537.0 215.5 L536.0 215.5 L535.0 215.5 L534.0 215.5 L533.0 215.5 L532.0 215.5 L531.0 215.5 L530.5 216.0 L530.0 216.5 L529.0 216.5 L528.0 216.5 L527.0 216.5 L526.0 216.5 L525.0 216.5 L524.0 216.5 L523.0 216.5 L522.0 216.5 L521.0 216.5 L520.0 216.5 L519.0 216.5 L518.0 216.5 L517.0 216.5 L516.0 216.5 L515.5 217.0 L515.0 217.5 L514.5 218.0 L514.0 218.5 L513.0 218.5 L512.0 218.5 L511.0 218.5 L510.0 218.5 L509.0 218.5 L508.0 218.5 L507.0 218.5 L506.5 218.0 L506.0 217.5 L505.0 217.5 L504.5 217.0 L504.0 216.5 L503.5 216.0 L503.0 215.5 L502.0 215.5 L501.5 215.0 L501.0 214.5 L500.0 214.5 L499.5 214.0 L499.5 213.0 L500.0 212.5 L501.0 212.5 L502.0 212.5 L503.0 212.5 L504.0 212.5 L505.0 212.5 L506.0 212.5 L507.0 212.5 L507.5 212.0 L508.0 211.5 L509.0 211.5 L509.5 211.0 L510.0 210.5 L510.5 210.0 L511.0 209.5 L512.0 209.5 L512.5 209.0 L513.0 208.5 L513.5 208.0 L514.0 207.5 L515.0 207.5 L515.5 207.0 L516.0 206.5 L516.5 206.0 L517.0 205.5 L518.0 205.5 L518.5 205.0 L519.0 204.5 L520.0 204.5 L520.5 204.0 L521.0 203.5 L521.5 203.0 L522.0 202.5 L522.5 202.0 L523.0 201.5 L524.0 201.5 L524.5 201.0 L525.0 200.5 L526.0 200.5 L526.5 200.0 L527.0 199.5 L528.0 199.5 L528.5 199.0 L529.0 198.5 L530.0 198.5 L530.5 198.0 L531.0 197.5 L532.0 197.5 L533.0 197.5 L534.0 197.5 L534.5 197.0 L535.0 196.5 L536.0 196.5 L537.0 196.5 L538.0 196.5 L538.5 196.0 Z M518.0 218.5 L518.5 219.0 L519.0 219.5 L520.0 219.5 L520.5 220.0 L521.0 220.5 L522.0 220.5 L522.5 221.0 L523.0 221.5 L524.0 221.5 L524.5 222.0 L525.0 222.5 L525.5 223.0 L526.0 223.5 L526.5 224.0 L526.5 225.0 L526.5 226.0 L526.0 226.5 L525.0 226.5 L524.5 226.0 L524.0 225.5 L523.0 225.5 L522.5 225.0 L522.0 224.5 L521.5 224.0 L521.0 223.5 L520.5 223.0 L520.0 222.5 L519.5 222.0 L519.0 221.5 L518.0 221.5 L517.5 221.0 L517.0 220.5 L516.5 220.0 L517.0 219.5 L517.5 219.0 Z M548.0 231.5 L549.0 231.5 L550.0 231.5 L551.0 231.5 L552.0 231.5 L552.5 232.0 L553.0 232.5 L554.0 232.5 L555.0 232.5 L556.0 232.5 L557.0 232.5 L558.0 232.5 L558.5 233.0 L559.0 233.5 L560.0 233.5 L561.0 233.5 L562.0 233.5 L563.0 233.5 L564.0 233.5 L564.5 234.0 L565.0 234.5 L566.0 234.5 L567.0 234.5 L568.0 234.5 L569.0 234.5 L569.5 235.0 L570.0 235.5 L571.0 235.5 L572.0 235.5 L573.0 235.5 L573.5 236.0 L574.0 236.5 L575.0 236.5 L576.0 236.5 L576.5 237.0 L577.0 237.5 L578.0 237.5 L578.5 238.0 L579.0 238.5 L580.0 238.5 L580.5 239.0 L581.0 239.5 L582.0 239.5 L582.5 240.0 L583.0 240.5 L583.5 241.0 L584.0 241.5 L585.0 241.5 L585.5 242.0 L586.0 242.5 L587.0 242.5 L587.5 243.0 L588.0 243.5 L589.0 243.5 L589.5 244.0 L590.0 244.5 L591.0 244.5 L591.5 245.0 L592.0 245.5 L592.5 246.0 L593.0 246.5 L594.0 246.5 L594.5 247.0 L595.0 247.5 L595.5 248.0 L596.0 248.5 L597.0 248.5 L597.5 249.0 L598.0 249.5 L598.5 250.0 L599.0 250.5 L599.5 251.0 L600.0 251.5 L601.0 251.5 L601.5 252.0 L602.0 252.5 L602.5 253.0 L602.5 254.0 L603.0 254.5 L603.5 255.0 L604.0 255.5 L604.5 256.0 L605.0 256.5 L605.5 257.0 L606.0 257.5 L606.5 258.0 L607.0 258.5 L607.5 259.0 L608.0 259.5 L608.5 260.0 L609.0 260.5 L609.5 261.0 L610.0 261.5 L610.5 262.0 L611.0 262.5 L611.5 263.0 L612.0 263.5 L612.5 264.0 L613.0 264.5 L613.5 265.0 L614.0 265.5 L614.5 266.0 L615.0 266.5 L615.5 267.0 L615.5 268.0 L616.0 268.5 L616.5 269.0 L617.0 269.5 L617.5 270.0 L618.0 270.5 L618.5 271.0 L618.5 272.0 L619.0 272.5 L619.5 273.0 L620.0 273.5 L620.5 274.0 L621.0 274.5 L621.5 275.0 L622.0 275.5 L622.5 276.0 L623.0 276.5 L623.5 277.0 L624.0 277.5 L624.5 278.0 L625.0 278.5 L625.5 279.0 L626.0 279.5 L626.5 280.0 L627.0 280.5 L627.5 281.0 L627.5 282.0 L628.0 282.5 L628.5 283.0 L628.5 284.0 L629.0 284.5 L629.5 285.0 L629.5 286.0 L630.0 286.5 L630.5 287.0 L630.5 288.0 L631.0 288.5 L631.5 289.0 L631.5 290.0 L631.5 291.0 L632.0 291.5 L632.5 292.0 L632.5 293.0 L633.0 293.5 L633.5 294.0 L633.5 295.0 L634.0 295.5 L634.5 296.0 L634.5 297.0 L634.5 298.0 L635.0 298.5 L635.5 299.0 L635.5 300.0 L636.0 300.5 L636.5 301.0 L636.5 302.0 L637.0 302.5 L637.5 303.0 L637.5 304.0 L638.0 304.5 L638.5 305.0 L639.0 305.5 L639.5 306.0 L639.5 307.0 L640.0 307.5 L640.5 308.0 L640.5 309.0 L641.0 309.5 L641.5 310.0 L641.5 311.0 L641.5 312.0 L642.0 312.5 L642.5 313.0 L642.5 314.0 L643.0 314.5 L643.5 315.0 L644.0 315.5 L644.5 316.0 L644.5 317.0 L644.5 318.0 L645.0 318.5 L645.5 319.0 L645.5 320.0 L646.0 320.5 L646.5 321.0 L646.5 322.0 L647.0 322.5 L647.5 323.0 L648.0 323.5 L648.5 324.0 L648.5 325.0 L648.5 326.0 L649.0 326.5 L649.5 327.0 L649.5 328.0 L650.0 328.5 L650.5 329.0 L651.0 329.5 L651.5 330.0 L651.5 331.0 L652.0 331.5 L652.5 332.0 L653.0 332.5 L653.5 333.0 L653.5 334.0 L654.0 334.5 L654.5 335.0 L654.5 336.0 L655.0 336.5 L655.5 337.0 L656.0 337.5 L656.5 338.0 L656.5 339.0 L657.0 339.5 L657.5 340.0 L658.0 340.5 L658.5 341.0 L658.5 342.0 L659.0 342.5 L659.5 343.0 L659.5 344.0 L660.0 344.5 L660.5 345.0 L661.0 345.5 L661.5 346.0 L662.0 346.5 L662.5 347.0 L663.0 347.5 L663.5 348.0 L664.0 348.5 L664.5 349.0 L665.0 349.5 L665.5 350.0 L665.5 351.0 L666.0 351.5 L667.0 351.5 L667.5 352.0 L668.0 352.5 L668.5 353.0 L668.5 354.0 L668.0 354.5 L667.5 355.0 L667.0 355.5 L666.5 355.0 L666.0 354.5 L665.0 354.5 L664.0 354.5 L663.5 354.0 L663.0 353.5 L662.0 353.5 L661.0 353.5 L660.5 353.0 L660.0 352.5 L659.0 352.5 L658.5 352.0 L658.0 351.5 L657.0 351.5 L656.5 351.0 L656.0 350.5 L655.0 350.5 L654.5 350.0 L654.0 349.5 L653.0 349.5 L652.5 349.0 L652.0 348.5 L651.0 348.5 L650.5 348.0 L650.0 347.5 L649.0 347.5 L648.5 347.0 L648.0 346.5 L647.0 346.5 L646.5 346.0 L646.0 345.5 L645.5 345.0 L645.0 344.5 L644.0 344.5 L643.5 344.0 L643.0 343.5 L642.0 343.5 L641.5 343.0 L641.0 342.5 L640.5 342.0 L640.0 341.5 L639.5 341.0 L639.0 340.5 L638.0 340.5 L637.5 340.0 L637.0 339.5 L636.5 339.0 L636.0 338.5 L635.5 338.0 L635.0 337.5 L634.0 337.5 L633.5 337.0 L633.0 336.5 L632.5 336.0 L632.0 335.5 L631.5 335.0 L631.0 334.5 L630.5 334.0 L630.0 333.5 L629.5 333.0 L629.0 332.5 L628.5 332.0 L628.0 331.5 L627.0 331.5 L626.5 331.0 L626.0 330.5 L625.5 330.0 L625.0 329.5 L624.5 329.0 L624.0 328.5 L623.5 328.0 L623.0 327.5 L622.5 327.0 L622.0 326.5 L621.5 326.0 L621.0 325.5 L620.5 325.0 L620.0 324.5 L619.5 324.0 L619.0 323.5 L618.0 323.5 L617.5 323.0 L617.0 322.5 L616.5 322.0 L616.0 321.5 L615.5 321.0 L615.0 320.5 L614.5 320.0 L614.0 319.5 L613.0 319.5 L612.5 319.0 L612.0 318.5 L611.5 318.0 L611.0 317.5 L610.5 317.0 L610.0 316.5 L609.0 316.5 L608.5 316.0 L608.0 315.5 L607.5 315.0 L607.0 314.5 L606.0 314.5 L605.5 314.0 L605.0 313.5 L604.5 313.0 L604.0 312.5 L603.5 312.0 L603.5 311.0 L603.0 310.5 L602.5 310.0 L602.0 309.5 L601.5 309.0 L601.0 308.5 L600.5 308.0 L600.0 307.5 L599.5 307.0 L599.0 306.5 L598.5 306.0 L598.0 305.5 L597.5 305.0 L597.0 304.5 L596.5 304.0 L596.0 303.5 L595.5 303.0 L595.0 302.5 L594.0 302.5 L593.5 302.0 L593.0 301.5 L592.5 301.0 L592.0 300.5 L591.5 300.0 L591.0 299.5 L590.5 299.0 L590.0 298.5 L589.5 298.0 L589.0 297.5 L588.5 297.0 L588.0 296.5 L587.5 296.0 L587.5 295.0 L587.0 294.5 L586.0 294.5 L585.5 294.0 L585.0 293.5 L584.5 293.0 L584.0 292.5 L583.5 292.0 L583.0 291.5 L582.5 291.0 L582.0 290.5 L581.5 290.0 L581.0 289.5 L580.5 289.0 L580.0 288.5 L579.5 288.0 L579.5 287.0 L579.0 286.5 L578.5 286.0 L578.0 285.5 L577.5 285.0 L577.0 284.5 L576.5 284.0 L576.0 283.5 L575.5 283.0 L575.0 282.5 L574.5 282.0 L574.0 281.5 L573.5 281.0 L573.0 280.5 L572.5 280.0 L572.0 279.5 L571.5 279.0 L571.5 278.0 L571.0 277.5 L570.5 277.0 L570.0 276.5 L569.5 276.0 L569.5 275.0 L569.5 274.0 L569.0 273.5 L568.5 273.0 L568.5 272.0 L568.0 271.5 L567.5 271.0 L567.5 270.0 L567.0 269.5 L566.5 269.0 L566.5 268.0 L566.0 267.5 L565.5 267.0 L565.5 266.0 L565.5 265.0 L565.0 264.5 L564.5 264.0 L564.5 263.0 L564.5 262.0 L564.0 261.5 L563.5 261.0 L563.5 260.0 L563.0 259.5 L562.5 259.0 L562.0 258.5 L561.5 258.0 L561.5 257.0 L561.0 256.5 L560.5 256.0 L560.5 255.0 L560.0 254.5 L559.5 254.0 L559.5 253.0 L559.0 252.5 L558.5 252.0 L558.5 251.0 L558.5 250.0 L558.0 249.5 L557.5 249.0 L557.5 248.0 L557.0 247.5 L556.5 247.0 L556.0 246.5 L555.5 246.0 L555.5 245.0 L555.0 244.5 L554.5 244.0 L554.5 243.0 L554.0 242.5 L553.5 242.0 L553.0 241.5 L552.5 241.0 L552.0 240.5 L551.5 240.0 L551.0 239.5 L550.5 239.0 L550.5 238.0 L550.0 237.5 L549.5 237.0 L549.0 236.5 L548.5 236.0 L548.5 235.0 L548.0 234.5 L547.5 234.0 L547.5 233.0 L547.5 232.0 Z M530.0 233.5 L530.5 234.0 L531.0 234.5 L531.5 235.0 L532.0 235.5 L533.0 235.5 L533.5 236.0 L534.0 236.5 L534.5 237.0 L535.0 237.5 L535.5 238.0 L536.0 238.5 L537.0 238.5 L537.5 239.0 L538.0 239.5 L538.5 240.0 L539.0 240.5 L539.5 241.0 L540.0 241.5 L541.0 241.5 L541.5 242.0 L542.0 242.5 L542.5 243.0 L543.0 243.5 L543.5 244.0 L544.0 244.5 L544.5 245.0 L544.5 246.0 L545.0 246.5 L545.5 247.0 L545.5 248.0 L546.0 248.5 L546.5 249.0 L546.5 250.0 L547.0 250.5 L547.5 251.0 L547.5 252.0 L547.5 253.0 L548.0 253.5 L548.5 254.0 L549.0 254.5 L549.5 255.0 L549.5 256.0 L550.0 256.5 L550.5 257.0 L551.0 257.5 L551.5 258.0 L552.0 258.5 L552.5 259.0 L552.5 260.0 L553.0 260.5 L553.5 261.0 L554.0 261.5 L554.5 262.0 L554.5 263.0 L554.5 264.0 L554.5 265.0 L554.5 266.0 L554.5 267.0 L554.5 268.0 L554.5 269.0 L554.5 270.0 L554.5 271.0 L554.5 272.0 L554.5 273.0 L554.5 274.0 L554.5 275.0 L554.5 276.0 L554.5 277.0 L554.0 277.5 L553.5 278.0 L553.5 279.0 L553.5 280.0 L553.5 281.0 L553.5 282.0 L553.5 283.0 L553.0 283.5 L552.5 284.0 L552.5 285.0 L552.5 286.0 L552.5 287.0 L552.5 288.0 L552.5 289.0 L552.5 290.0 L552.5 291.0 L552.5 292.0 L552.5 293.0 L552.0 293.5 L551.5 294.0 L551.5 295.0 L551.5 296.0 L551.5 297.0 L551.5 298.0 L551.5 299.0 L551.5 300.0 L551.5 301.0 L551.5 302.0 L551.5 303.0 L551.5 304.0 L551.5 305.0 L551.5 306.0 L552.0 306.5 L552.5 307.0 L552.5 308.0 L552.5 309.0 L552.5 310.0 L553.0 310.5 L553.5 311.0 L553.5 312.0 L554.0 312.5 L554.5 313.0 L554.5 314.0 L554.5 315.0 L555.0 315.5 L555.5 316.0 L555.5 317.0 L555.5 318.0 L556.0 318.5 L556.5 319.0 L556.5 320.0 L556.5 321.0 L556.5 322.0 L556.0 322.5 L555.0 322.5 L554.5 322.0 L554.0 321.5 L553.5 321.0 L553.0 320.5 L552.0 320.5 L551.5 320.0 L551.5 319.0 L551.0 318.5 L550.5 318.0 L550.0 317.5 L549.5 317.0 L549.0 316.5 L548.5 316.0 L548.0 315.5 L547.5 315.0 L547.0 314.5 L546.5 314.0 L546.0 313.5 L545.5 313.0 L545.0 312.5 L544.5 312.0 L544.0 311.5 L543.5 311.0 L543.0 310.5 L542.5 310.0 L542.0 309.5 L541.5 309.0 L541.5 308.0 L541.0 307.5 L540.5 307.0 L540.0 306.5 L539.5 306.0 L539.0 305.5 L538.5 305.0 L538.5 304.0 L538.0 303.5 L537.5 303.0 L537.0 302.5 L536.5 302.0 L536.0 301.5 L535.5 301.0 L535.5 300.0 L535.0 299.5 L534.5 299.0 L534.0 298.5 L533.5 298.0 L533.5 297.0 L533.0 296.5 L532.5 296.0 L532.5 295.0 L532.0 294.5 L531.5 294.0 L531.5 293.0 L531.0 292.5 L530.5 292.0 L530.5 291.0 L530.0 290.5 L529.5 290.0 L529.5 289.0 L529.0 288.5 L528.5 288.0 L528.5 287.0 L528.5 286.0 L528.0 285.5 L527.5 285.0 L527.5 284.0 L527.5 283.0 L527.5 282.0 L527.0 281.5 L526.5 281.0 L526.5 280.0 L526.5 279.0 L526.5 278.0 L526.5 277.0 L526.5 276.0 L526.0 275.5 L525.5 275.0 L525.5 274.0 L525.5 273.0 L525.5 272.0 L525.5 271.0 L525.5 270.0 L525.5 269.0 L525.5 268.0 L525.5 267.0 L525.5 266.0 L525.5 265.0 L525.5 264.0 L525.5 263.0 L525.5 262.0 L525.5 261.0 L526.0 260.5 L526.5 260.0 L526.5 259.0 L526.5 258.0 L526.5 257.0 L527.0 256.5 L527.5 256.0 L527.5 255.0 L527.5 254.0 L527.5 253.0 L527.5 252.0 L527.5 251.0 L528.0 250.5 L528.5 250.0 L528.5 249.0 L528.5 248.0 L528.5 247.0 L529.0 246.5 L529.5 246.0 L529.5 245.0 L529.5 244.0 L530.0 243.5 L530.5 243.0 L530.5 242.0 L530.5 241.0 L530.5 240.0 L530.5 239.0 L530.5 238.0 L530.5 237.0 L530.0 236.5 L529.5 236.0 L529.5 235.0 L529.5 234.0 Z M429.0 748.5 L428.5 749.0 L428.0 749.5 L427.0 749.5 L426.5 750.0 L426.5 751.0 L426.0 751.5 L425.5 752.0 L425.5 753.0 L426.0 753.5 L426.5 754.0 L426.5 755.0 L426.5 756.0 L427.0 756.5 L427.5 757.0 L428.0 757.5 L428.5 758.0 L428.5 759.0 L429.0 759.5 L429.5 760.0 L429.5 761.0 L430.0 761.5 L430.5 762.0 L431.0 762.5 L431.5 763.0 L431.5 764.0 L432.0 764.5 L432.5 765.0 L432.5 766.0 L433.0 766.5 L433.5 767.0 L434.0 767.5 L434.5 768.0 L435.0 768.5 L435.5 769.0 L436.0 769.5 L436.5 770.0 L437.0 770.5 L437.5 771.0 L438.0 771.5 L438.5 772.0 L438.5 773.0 L439.0 773.5 L439.5 774.0 L439.5 775.0 L440.0 775.5 L440.5 776.0 L441.0 776.5 L441.5 777.0 L441.5 778.0 L441.5 779.0 L442.0 779.5 L442.5 780.0 L442.5 781.0 L442.5 782.0 L442.5 783.0 L442.5 784.0 L443.0 784.5 L443.5 785.0 L443.5 786.0 L443.5 787.0 L443.5 788.0 L443.5 789.0 L443.5 790.0 L443.5 791.0 L443.5 792.0 L443.5 793.0 L443.5 794.0 L443.0 794.5 L442.5 795.0 L442.5 796.0 L442.5 797.0 L442.5 798.0 L442.5 799.0 L442.5 800.0 L442.5 801.0 L442.5 802.0 L443.0 802.5 L443.5 803.0 L443.0 803.5 L442.5 804.0 L442.5 805.0 L442.5 806.0 L442.5 807.0 L442.5 808.0 L442.0 808.5 L441.5 809.0 L441.5 810.0 L441.5 811.0 L441.5 812.0 L441.5 813.0 L441.0 813.5 L440.5 814.0 L440.5 815.0 L440.0 815.5 L439.5 816.0 L439.5 817.0 L439.0 817.5 L438.5 818.0 L438.5 819.0 L438.5 820.0 L438.0 820.5 L437.5 821.0 L437.0 821.5 L436.5 822.0 L436.5 823.0 L436.0 823.5 L435.5 824.0 L435.5 825.0 L435.0 825.5 L434.5 826.0 L434.0 826.5 L433.5 827.0 L433.5 828.0 L433.0 828.5 L432.5 829.0 L432.0 829.5 L431.5 830.0 L431.5 831.0 L431.0 831.5 L430.5 832.0 L430.0 832.5 L429.5 833.0 L429.0 833.5 L428.5 834.0 L428.0 834.5 L427.5 835.0 L427.0 835.5 L426.5 836.0 L426.0 836.5 L425.5 837.0 L425.0 837.5 L424.5 838.0 L424.0 838.5 L423.5 839.0 L423.0 839.5 L422.5 840.0 L422.0 840.5 L421.5 841.0 L421.0 841.5 L420.5 842.0 L420.0 842.5 L419.5 843.0 L419.0 843.5 L418.5 844.0 L418.5 845.0 L418.0 845.5 L417.5 846.0 L417.0 846.5 L416.5 847.0 L416.0 847.5 L415.5 848.0 L415.0 848.5 L414.5 849.0 L414.0 849.5 L413.5 850.0 L413.0 850.5 L412.5 851.0 L412.0 851.5 L411.5 852.0 L411.0 852.5 L410.5 853.0 L410.0 853.5 L409.5 854.0 L409.0 854.5 L408.5 855.0 L408.5 856.0 L408.0 856.5 L407.5 857.0 L407.0 857.5 L406.5 858.0 L406.0 858.5 L405.5 859.0 L405.0 859.5 L404.5 860.0 L404.5 861.0 L404.0 861.5 L403.5 862.0 L403.0 862.5 L402.5 863.0 L402.0 863.5 L401.5 864.0 L401.5 865.0 L401.0 865.5 L400.5 866.0 L400.0 866.5 L399.5 867.0 L399.0 867.5 L398.5 868.0 L398.0 868.5 L397.5 869.0 L397.5 870.0 L397.0 870.5 L396.5 871.0 L396.0 871.5 L395.5 872.0 L395.0 872.5 L394.5 873.0 L394.0 873.5 L393.5 874.0 L393.0 874.5 L392.5 875.0 L392.0 875.5 L391.5 876.0 L391.5 877.0 L391.0 877.5 L390.5 878.0 L390.0 878.5 L389.5 879.0 L389.0 879.5 L388.5 880.0 L388.5 881.0 L388.0 881.5 L387.5 882.0 L387.5 883.0 L387.0 883.5 L386.5 884.0 L386.0 884.5 L385.5 885.0 L385.5 886.0 L385.0 886.5 L384.5 887.0 L384.0 887.5 L383.5 888.0 L383.0 888.5 L382.5 889.0 L382.5 890.0 L382.0 890.5 L381.5 891.0 L381.0 891.5 L380.5 892.0 L380.0 892.5 L379.5 893.0 L379.0 893.5 L378.5 894.0 L378.5 895.0 L378.0 895.5 L377.5 896.0 L377.0 896.5 L376.5 897.0 L376.0 897.5 L375.5 898.0 L375.0 898.5 L374.5 899.0 L374.0 899.5 L373.5 900.0 L373.5 901.0 L373.0 901.5 L372.5 902.0 L372.0 902.5 L371.5 903.0 L371.0 903.5 L370.5 904.0 L370.0 904.5 L369.5 905.0 L370.0 905.5 L371.0 905.5 L372.0 905.5 L373.0 905.5 L374.0 905.5 L375.0 905.5 L376.0 905.5 L377.0 905.5 L377.5 905.0 L378.0 904.5 L378.5 904.0 L379.0 903.5 L379.5 903.0 L380.0 902.5 L380.5 902.0 L381.0 901.5 L382.0 901.5 L382.5 901.0 L383.0 900.5 L383.5 900.0 L384.0 899.5 L384.5 899.0 L384.5 898.0 L385.0 897.5 L385.5 897.0 L385.5 896.0 L386.0 895.5 L386.5 895.0 L387.0 894.5 L387.5 894.0 L388.0 893.5 L388.5 893.0 L388.5 892.0 L389.0 891.5 L389.5 891.0 L390.0 890.5 L390.5 890.0 L391.0 889.5 L391.5 889.0 L392.0 888.5 L392.5 888.0 L393.0 887.5 L393.5 887.0 L394.0 886.5 L394.5 886.0 L394.5 885.0 L395.0 884.5 L395.5 884.0 L396.0 883.5 L396.5 883.0 L397.0 882.5 L397.5 882.0 L398.0 881.5 L398.5 881.0 L399.0 880.5 L399.5 880.0 L399.5 879.0 L400.0 878.5 L400.5 878.0 L401.0 877.5 L401.5 877.0 L402.0 876.5 L402.5 876.0 L403.0 875.5 L403.5 875.0 L404.0 874.5 L404.5 874.0 L404.5 873.0 L405.0 872.5 L405.5 872.0 L406.0 871.5 L406.5 871.0 L407.0 870.5 L407.5 870.0 L408.0 869.5 L409.0 869.5 L409.5 869.0 L410.0 868.5 L410.5 868.0 L410.5 867.0 L411.0 866.5 L411.5 866.0 L412.0 865.5 L412.5 865.0 L413.0 864.5 L413.5 864.0 L414.0 863.5 L414.5 863.0 L415.0 862.5 L415.5 862.0 L415.5 861.0 L416.0 860.5 L416.5 860.0 L417.0 859.5 L417.5 859.0 L418.0 858.5 L418.5 858.0 L418.5 857.0 L419.0 856.5 L419.5 856.0 L420.0 855.5 L420.5 855.0 L420.5 854.0 L421.0 853.5 L421.5 853.0 L422.0 852.5 L422.5 852.0 L423.0 851.5 L423.5 851.0 L424.0 850.5 L424.5 850.0 L424.5 849.0 L425.0 848.5 L425.5 848.0 L426.0 847.5 L426.5 847.0 L427.0 846.5 L427.5 846.0 L427.5 845.0 L428.0 844.5 L428.5 844.0 L429.0 843.5 L429.5 843.0 L430.0 842.5 L430.5 842.0 L431.0 841.5 L431.5 841.0 L431.5 840.0 L432.0 839.5 L432.5 839.0 L433.0 838.5 L433.5 838.0 L434.0 837.5 L434.5 837.0 L435.0 836.5 L435.5 836.0 L436.0 835.5 L436.5 835.0 L437.0 834.5 L437.5 834.0 L438.0 833.5 L438.5 833.0 L439.0 832.5 L439.5 832.0 L439.5 831.0 L440.0 830.5 L440.5 830.0 L441.0 829.5 L441.5 829.0 L442.0 828.5 L442.5 828.0 L443.0 827.5 L443.5 827.0 L443.5 826.0 L444.0 825.5 L444.5 825.0 L445.0 824.5 L445.5 824.0 L446.0 823.5 L446.5 823.0 L446.5 822.0 L447.0 821.5 L447.5 821.0 L448.0 820.5 L448.5 820.0 L448.5 819.0 L449.0 818.5 L449.5 818.0 L450.0 817.5 L450.5 817.0 L450.5 816.0 L451.0 815.5 L451.5 815.0 L451.5 814.0 L452.0 813.5 L452.5 813.0 L452.5 812.0 L452.5 811.0 L453.0 810.5 L453.5 810.0 L453.5 809.0 L453.5 808.0 L454.0 807.5 L454.5 807.0 L454.5 806.0 L454.5 805.0 L455.0 804.5 L455.5 804.0 L455.5 803.0 L455.5 802.0 L455.5 801.0 L455.5 800.0 L455.5 799.0 L455.5 798.0 L456.0 797.5 L456.5 797.0 L456.5 796.0 L456.5 795.0 L456.5 794.0 L456.5 793.0 L456.5 792.0 L456.5 791.0 L456.5 790.0 L456.5 789.0 L456.5 788.0 L456.5 787.0 L456.5 786.0 L456.5 785.0 L456.5 784.0 L456.0 783.5 L455.5 783.0 L455.5 782.0 L455.5 781.0 L455.5 780.0 L455.5 779.0 L455.5 778.0 L455.5 777.0 L455.5 776.0 L455.0 775.5 L454.5 775.0 L454.5 774.0 L454.5 773.0 L454.5 772.0 L454.5 771.0 L454.5 770.0 L454.0 769.5 L453.5 769.0 L453.5 768.0 L453.5 767.0 L453.5 766.0 L453.5 765.0 L453.0 764.5 L452.5 764.0 L452.5 763.0 L452.5 762.0 L452.5 761.0 L452.5 760.0 L452.5 759.0 L452.5 758.0 L452.0 757.5 L451.5 757.0 L451.5 756.0 L451.5 755.0 L451.5 754.0 L451.0 753.5 L450.5 753.0 L450.0 752.5 L449.5 752.0 L449.0 751.5 L448.0 751.5 L447.5 751.0 L447.0 750.5 L446.0 750.5 L445.0 750.5 L444.0 750.5 L443.5 750.0 L443.0 749.5 L442.0 749.5 L441.0 749.5 L440.0 749.5 L439.0 749.5 L438.0 749.5 L437.0 749.5 L436.5 749.0 L436.0 748.5 L435.0 748.5 L434.0 748.5 L433.0 748.5 L432.0 748.5 L431.0 748.5 L430.0 748.5 Z"></path>
</svg>